<svg xmlns="http://www.w3.org/2000/svg" xmlns:xlink="http://www.w3.org/1999/xlink" viewBox="0 0 1128.13 518.59"><defs><style>.cls-1{fill:url(#linear-gradient);}.cls-2{fill:#d09a3f;}.cls-3{fill:#585553;}.cls-4{fill:#fff;}.cls-5{fill:#d6dbe2;}.cls-6{fill:none;}</style><linearGradient id="linear-gradient" x1="37.64" y1="322.1" x2="1109.82" y2="322.1" gradientUnits="userSpaceOnUse"><stop offset="0" stop-color="#fff"/><stop offset="0.1" stop-color="#d6dbe2"/><stop offset="0.9" stop-color="#d7dce3"/><stop offset="1" stop-color="#fff"/></linearGradient></defs><title>hurdles</title><g id="Layer_2" data-name="Layer 2"><g id="Layer_1-2" data-name="Layer 1"><rect class="cls-1" x="37.64" y="255.97" width="1072.18" height="132.26"/><path class="cls-2" d="M304.92,172.87c-.36-.06-36.64-6.66-84.84-28.26L176.48,124a7.12,7.12,0,0,0-9.46,3.37l-18,37.55a7.12,7.12,0,0,0,12.85,6.14l14.88-31.16,16.82,7.94-21.19,48.09A23.51,23.51,0,0,0,183,226.25l1.08.57-16.43,35L135.84,235.1a8.54,8.54,0,0,0-11,13.08l40.3,33.87a8.55,8.55,0,0,0,5.49,2,8.86,8.86,0,0,0,1.84-.2,8.52,8.52,0,0,0,5.89-4.71l19.09-40.68c31,30.7,34.38,77.07,34.41,77.63a8.55,8.55,0,0,0,8.52,8l.53,0a8.54,8.54,0,0,0,8-9.05c-.16-2.63-3.82-53.61-39.2-88.57l27.22-59.38c38,14.8,64.19,19.57,65.49,19.8a6.67,6.67,0,0,0,1.25.11,7.11,7.11,0,0,0,1.24-14.12Z"/><path class="cls-2" d="M242.1,142.5a30.64,30.64,0,0,0,24.82-12.68,18.65,18.65,0,0,1-11.77-17.33h17.62c0-.23,0-.46,0-.7A30.71,30.71,0,1,0,242.1,142.5Z"/><path class="cls-2" d="M991.34,197.42l-22.06-9,5.46-11.76a23.73,23.73,0,0,0-11.53-31.5,23.49,23.49,0,0,0-9.82-2.19c-.13,0-.25,0-.37,0H864.79a7.12,7.12,0,1,0,0,14.23H931.5l-20.06,45.26a15.88,15.88,0,0,0,7.13,20.51l6,3.16-21.14,45.49-36,29.87a8.54,8.54,0,1,0,10.91,13.15l37.5-31.1a8.42,8.42,0,0,0,2.29-3l20.07-43.17c32,30.68,35.54,78.15,35.58,78.72a8.54,8.54,0,0,0,8.51,8l.54,0a8.53,8.53,0,0,0,8-9.05c-.16-2.63-3.82-53.59-39.18-88.56l11.66-25.11L986,210.6a7,7,0,0,0,2.68.53,7.12,7.12,0,0,0,2.69-13.71Z"/><path class="cls-2" d="M976.24,81.09a30.7,30.7,0,0,0-30.71,30.7c0,.24,0,.47,0,.7h17.62a18.65,18.65,0,0,1-11.77,17.33,30.69,30.69,0,1,0,24.82-48.73Z"/><path class="cls-3" d="M596.07,231.37V354.71a9,9,0,0,1-9,9H550a2.85,2.85,0,1,0,0,5.69h37a14.74,14.74,0,0,0,14.72-14.72V278.29l87.84-85.67v73.13a9,9,0,0,1-9,9h-37a2.85,2.85,0,0,0,0,5.7h37a14.74,14.74,0,0,0,14.72-14.72V134.6Z"/><path class="cls-4" d="M608.54,232.09l1.62-1.58-.07,8.89,3.78-3.71v1.56l-5.4,5.29Z"/><path class="cls-4" d="M615.68,225.1l5.49-5.38,0,1.57-3.87,3.79,0,2.67,3.28-3.21v1.56l-3.28,3.21,0,3.09,4-3.92V230l-5.63,5.51Z"/><path class="cls-4" d="M625.1,215.87,627,214l2.88,7.54-1.71,1.68-1.34-4.2c-.28-.82-.54-1.75-.8-2.64l0,.06c-.26,1.4-.54,2.84-.84,4.23l-1.45,6.93L622,229.23Zm-1.27,7.35,4.3-4.2v1.45l-4.3,4.21Z"/><path class="cls-4" d="M631.15,209.94l2.43-2.38c2.79-2.73,4.43-2.62,4.4.83a13.8,13.8,0,0,1-4.4,9.54l-2.52,2.46Zm2.25,6.67a9.12,9.12,0,0,0,2.92-6.59c0-2.57-1-2.65-2.86-.85l-.71.69-.06,7.45Z"/><path class="cls-4" d="M640,201.27l5.49-5.37,0,1.56-3.87,3.79,0,2.68,3.28-3.21v1.56l-3.28,3.21,0,3.09,4-3.93v1.56l-5.63,5.51Z"/><path class="cls-4" d="M647.64,193.79l3.07-3c1.9-1.85,3.35-2.52,3.33-.19s-1.48,4.7-3.38,6.56l-1.46,1.42,0,4.09-1.62,1.58Zm2.86,2a5.47,5.47,0,0,0,2-3.67c0-1.21-.67-.95-1.92.27l-1.29,1.26,0,3.4Zm-.14,1.12,1.18-2.25,2.8,2.89-1.82,1.78Z"/><path class="cls-4" d="M655.14,195.48l1-2.19a3.21,3.21,0,0,0,2.36-1.14,4.57,4.57,0,0,0,1.6-2.9c0-.86-.57-.56-1.4-.15l-1.24.6c-.89.45-1.83.57-1.82-1s1.31-4.21,3.09-6c1.06-1,2.09-1.55,2.79-1.42l-.84,2a2.9,2.9,0,0,0-2,1,4.31,4.31,0,0,0-1.44,2.63c0,.82.69.44,1.44.06l1.23-.62c1.08-.54,1.83-.5,1.82,1,0,1.7-1.26,4.31-3.3,6.32C657.17,195,656,195.61,655.14,195.48Z"/><path class="cls-4" d="M663.57,178.18l1.62-1.58,0,4.2,3.69-3.61,0-4.2,1.62-1.58-.08,10.44-1.62,1.59,0-4.63-3.69,3.61,0,4.63-1.62,1.58Z"/><path class="cls-4" d="M673,169l1.62-1.59-.09,10.45-1.61,1.58Z"/><path class="cls-4" d="M677,165l2.87-2.81c2-2,3.52-2.65,3.5-.23s-1.53,4.86-3.5,6.78L678.58,170l0,3.84-1.62,1.59Zm2.75,2.39a5.53,5.53,0,0,0,2-3.87c0-1.3-.69-1.05-2,.28l-1.12,1.1,0,3.64Z"/><path class="cls-4" d="M627.73,241.35l1-2.2a3.21,3.21,0,0,0,2.36-1.13,4.61,4.61,0,0,0,1.6-2.91c0-.86-.57-.56-1.4-.15l-1.24.6c-.89.45-1.83.57-1.82-1s1.31-4.21,3.09-5.95c1.06-1,2.09-1.55,2.79-1.42l-.84,2a2.9,2.9,0,0,0-2,1,4.31,4.31,0,0,0-1.44,2.63c0,.82.69.44,1.44.06l1.23-.62c1.08-.54,1.83-.5,1.82,1,0,1.69-1.26,4.3-3.3,6.31C629.77,240.87,628.59,241.47,627.73,241.35Z"/><path class="cls-4" d="M637.72,224.08l-2.63,2.57v-1.56l6.88-6.74v1.56l-2.63,2.58-.08,8.89L637.65,233Z"/><path class="cls-4" d="M644.89,222l-2.69-3.88,1.73-1.69,1,1.7c.26.51.51,1,.79,1.5l.06-.05c.29-1.08.58-2.09.85-3.12l1-3.65,1.68-1.65-2.8,9.25,0,3.89-1.61,1.58Z"/><path class="cls-4" d="M650.29,210.21l1.62-1.58-.08,8.89,3.79-3.71v1.56l-5.4,5.29Z"/><path class="cls-4" d="M657.43,203.22l5.49-5.37,0,1.56L659,203.2l0,2.68,3.28-3.21v1.55L659,207.44l0,3.09,4-3.93v1.56l-5.63,5.51Z"/><path class="cls-3" d="M732.94,231.37V354.71a9,9,0,0,1-9,9h-37a2.85,2.85,0,1,0,0,5.69h37a14.75,14.75,0,0,0,14.72-14.72V278.29l87.83-85.67v73.13a9,9,0,0,1-9,9h-37a2.85,2.85,0,0,0,0,5.7h37a14.75,14.75,0,0,0,14.72-14.72V134.6Z"/><path class="cls-4" d="M769.68,208.33l1.66-1.63,2.78,3.09.93,1.31.05,0c-.07-1-.18-2.2-.18-3.37l0-4.53,1.54-1.51-.08,10.45-1.67,1.62-2.78-3.1-.93-1.3,0,.05c.07,1,.19,2.17.18,3.33l0,4.58-1.54,1.5Z"/><path class="cls-4" d="M779,199.23l5.49-5.37,0,1.55-3.87,3.8,0,2.67,3.28-3.21v1.56l-3.28,3.21,0,3.1,4-3.93v1.56l-5.63,5.51Z"/><path class="cls-4" d="M785.69,192.64l1.66-1.63.75,4.5.42,2.9.06-.06c.2-1.29.41-2.61.62-3.91l1.16-6.38,1.41-1.38,1.07,4.18c.2.89.39,1.83.58,2.75l.05-.05c.16-1.27.32-2.53.47-3.77l.84-6,1.55-1.52-1.84,12.16-2,2L791.4,192c-.14-.67-.27-1.34-.38-2L791,190c-.13.92-.27,1.85-.43,2.81l-1.15,6.58-2,1.93Z"/><path class="cls-4" d="M743.57,254.46,740.94,257v-1.56l6.89-6.74,0,1.56-2.63,2.58-.07,8.89-1.62,1.58Z"/><path class="cls-4" d="M749.5,247.11l5.48-5.37v1.56l-3.87,3.79,0,2.68,3.28-3.21,0,1.55-3.27,3.22,0,3.09,4-3.93v1.56l-5.63,5.51Z"/><path class="cls-4" d="M756.61,245.36a14.68,14.68,0,0,1,4.22-9.54c1.15-1.12,2-1.39,2.62-1.25l-.87,2c-.47-.08-1,.09-1.73.79a9.39,9.39,0,0,0-2.58,6.28c0,2.38,1,2.86,2.48,1.37a9.88,9.88,0,0,0,2-3l.85.32a13.76,13.76,0,0,1-2.88,4.34C758.38,249,756.58,248.82,756.61,245.36Z"/><path class="cls-4" d="M765.3,231.63l1.62-1.58,0,4.2,3.69-3.62,0-4.2,1.62-1.58-.08,10.45-1.62,1.58,0-4.63-3.69,3.61,0,4.64-1.62,1.58Z"/><path class="cls-4" d="M774.68,222.44l1.66-1.63,2.79,3.1.92,1.31.06-.06c-.07-1-.19-2.2-.18-3.36l0-4.54,1.54-1.51-.09,10.45-1.66,1.63L777,224.72l-.93-1.29,0,0c.06,1,.18,2.16.17,3.33l0,4.57-1.53,1.51Z"/><path class="cls-4" d="M783.44,219a13.83,13.83,0,0,1,4.07-9.31c2.37-2.33,4-1.94,4,1.43a14.06,14.06,0,0,1-4.06,9.4C785,222.85,783.42,222.38,783.44,219Zm6.38-6.25c0-2.34-.89-2.86-2.33-1.45a8.86,8.86,0,0,0-2.39,6.07c0,2.35.9,2.94,2.33,1.54A9,9,0,0,0,789.82,212.75Z"/><path class="cls-4" d="M793.5,204l1.62-1.59-.08,8.89,3.79-3.71v1.56l-5.41,5.3Z"/><path class="cls-4" d="M799.68,203.09a13.85,13.85,0,0,1,4.07-9.31c2.37-2.33,4-1.93,4,1.44a14,14,0,0,1-4.06,9.39C801.28,206.94,799.65,206.47,799.68,203.09Zm6.38-6.25c0-2.34-.89-2.85-2.33-1.45a8.87,8.87,0,0,0-2.39,6.08c0,2.34.9,2.94,2.33,1.53A9.07,9.07,0,0,0,806.06,196.84Z"/><path class="cls-4" d="M809.21,193.83a14.87,14.87,0,0,1,4.37-9.68c1.29-1.27,2.17-1.48,2.74-1.37l-.87,2c-.46-.07-1,.06-1.84.89a9.59,9.59,0,0,0-2.73,6.44c0,2.38.93,2.88,2.76,1.09a7.05,7.05,0,0,0,1.3-1.74l0-2.25-1.72,1.68,0-1.52,3.16-3.1,0,4.6a15.37,15.37,0,0,1-2.93,4.1C811,197.41,809.19,197.29,809.21,193.83Z"/><path class="cls-4" d="M820.1,184.46l-2.69-3.87,1.73-1.7,1,1.7c.26.52.51,1,.79,1.5L821,182c.29-1.08.58-2.08.86-3.12l1-3.64,1.68-1.65-2.79,9.25,0,3.88-1.61,1.59Z"/><path class="cls-3" d="M313.29,369.43h-37a2.85,2.85,0,1,1,0-5.69h37a9,9,0,0,0,9-9V257.54a2.85,2.85,0,0,1,5.69,0v97.17A14.74,14.74,0,0,1,313.29,369.43Z"/><path class="cls-3" d="M322.32,231.37v52.47l93.53-91.22v73.13a9,9,0,0,1-9,9h-37a2.85,2.85,0,1,0,0,5.7h37a14.74,14.74,0,0,0,14.72-14.72V134.6Z"/><path class="cls-4" d="M356.34,211l1.89-1.86,2.89,7.54-1.71,1.68-1.35-4.21c-.28-.82-.54-1.75-.79-2.63l-.06.05c-.26,1.41-.54,2.85-.83,4.24l-1.45,6.93-1.65,1.62Zm-1.27,7.35,4.29-4.2v1.45l-4.29,4.21Z"/><path class="cls-4" d="M362.39,205.06l1.61-1.58-.07,8.89,3.79-3.71,0,1.56-5.4,5.29Z"/><path class="cls-4" d="M369.52,198.07l1.62-1.58-.09,10.45-1.61,1.58Z"/><path class="cls-4" d="M373.07,199.82a14.83,14.83,0,0,1,4.36-9.68c1.29-1.27,2.17-1.49,2.74-1.38l-.87,2c-.45-.06-1,.07-1.83.9a9.51,9.51,0,0,0-2.74,6.43c0,2.38.93,2.88,2.76,1.09a7.31,7.31,0,0,0,1.31-1.73l0-2.26-1.72,1.68v-1.52l3.17-3.1,0,4.61a14.91,14.91,0,0,1-2.92,4.09C374.86,203.4,373,203.27,373.07,199.82Z"/><path class="cls-4" d="M382.48,185.37l1.67-1.62,2.78,3.09.92,1.31.06-.05c-.07-1-.19-2.2-.18-3.37l0-4.53,1.54-1.51-.09,10.45-1.66,1.63-2.78-3.11-.93-1.3-.05,0c.07,1,.18,2.17.18,3.33l0,4.58-1.54,1.5Z"/><path class="cls-4" d="M348.52,237.66l1.71-1.67,1.24,4c.29.9.48,1.73.78,2.62l.06-.06c.31-1.49.53-2.72.83-4.19l1.3-6.49,1.66-1.62-2.91,13.22-1.92,1.88Z"/><path class="cls-4" d="M358.91,227.49l1.89-1.86,2.89,7.54L362,234.85l-1.35-4.2c-.28-.82-.54-1.75-.79-2.64l-.06.06c-.26,1.4-.54,2.85-.84,4.23l-1.44,6.94-1.65,1.61Zm-1.27,7.36,4.29-4.21v1.46l-4.29,4.2Z"/><path class="cls-4" d="M365,221.57l1.62-1.59-.07,8.89,3.78-3.71v1.56l-5.4,5.3Z"/><path class="cls-4" d="M371.54,220.94l0-5.87,1.61-1.58-.05,6c0,2.28.72,2.3,1.83,1.22a6.48,6.48,0,0,0,1.9-4.87l.05-6,1.56-1.52-.05,5.87a11.12,11.12,0,0,1-3.48,8.14C372.85,224.39,371.51,224.37,371.54,220.94Z"/><path class="cls-4" d="M380.9,206l5.49-5.38,0,1.56-3.87,3.79,0,2.68,3.28-3.21V207l-3.28,3.21,0,3.09,4-3.92v1.55l-5.63,5.52Z"/><path class="cls-4" d="M387.84,208.19l1-2.2a3.22,3.22,0,0,0,2.37-1.13,4.69,4.69,0,0,0,1.6-2.91c0-.86-.58-.56-1.41-.15l-1.24.6c-.89.45-1.83.57-1.82-1s1.31-4.21,3.09-5.95c1.06-1,2.09-1.55,2.8-1.42l-.84,2a2.92,2.92,0,0,0-2,1,4.27,4.27,0,0,0-1.43,2.63c0,.82.68.44,1.43.06l1.23-.62c1.08-.54,1.83-.5,1.82,1,0,1.69-1.25,4.3-3.3,6.31C389.88,207.71,388.69,208.31,387.84,208.19Z"/><path class="cls-3" d="M459.19,231.37V354.71a9,9,0,0,1-9,9h-37a2.85,2.85,0,1,0,0,5.69h37a14.75,14.75,0,0,0,14.72-14.72V278.29l87.83-85.67v73.13a9,9,0,0,1-9,9h-37a2.85,2.85,0,1,0,0,5.7h37a14.75,14.75,0,0,0,14.72-14.72V134.6Z"/><path class="cls-4" d="M484.74,219.29l1.83-1.79,1.56,3.53c.2.46.38,1,.57,1.47l.06-.05c.21-.88.38-1.75.59-2.61l1.62-6.66,1.83-1.79-.09,10.45-1.48,1.45,0-4.78c0-1,.15-2.48.23-3.52l-.05,0-.76,3.15-1.54,6.16-1,.94-1.46-3.21-.71-1.72-.06,0c.08.89.19,2.16.19,3.12l0,4.78-1.46,1.43Z"/><path class="cls-4" d="M497,207.23l1.9-1.86,2.89,7.54-1.72,1.68-1.34-4.2c-.28-.82-.54-1.75-.8-2.64l-.05.06c-.26,1.4-.54,2.84-.84,4.23L495.64,219,494,220.59Zm-1.26,7.36,4.29-4.21v1.46l-4.29,4.2Z"/><path class="cls-4" d="M503.09,201.31l3.08-3c1.89-1.86,3.35-2.53,3.33-.19s-1.49,4.69-3.39,6.55l-1.45,1.43,0,4.08L503,211.76Zm2.87,2a5.45,5.45,0,0,0,1.94-3.67c0-1.2-.66-.95-1.91.27l-1.29,1.27,0,3.39Zm-.15,1.13,1.18-2.26,2.8,2.9L508,206.89Z"/><path class="cls-4" d="M511.48,193.09l1.62-1.59,0,4.75.05,0,3.28-7.93,1.8-1.76-2.84,6.83,3.22,3.16-1.78,1.74-2.42-2.49L513,198.9l0,3-1.61,1.59Z"/><path class="cls-4" d="M519.94,184.8l5.49-5.38V181l-3.87,3.8,0,2.67,3.28-3.21,0,1.56L521.51,189l0,3.1,4-3.93,0,1.56-5.62,5.51Z"/><path class="cls-4" d="M529.41,177.07l-2.63,2.58v-1.56l6.88-6.74v1.56L531,175.49l-.08,8.89L529.34,186Z"/><path class="cls-4" d="M491.08,241.13l1-2.2a3.19,3.19,0,0,0,2.36-1.13,4.61,4.61,0,0,0,1.6-2.91c0-.86-.57-.56-1.4-.15l-1.24.6c-.9.45-1.83.56-1.82-1s1.31-4.21,3.08-5.95c1.07-1,2.1-1.55,2.8-1.42l-.84,2a2.9,2.9,0,0,0-2,1,4.31,4.31,0,0,0-1.44,2.63c0,.82.69.44,1.44.06l1.23-.62c1.08-.54,1.83-.5,1.82,1,0,1.69-1.26,4.3-3.3,6.31C493.12,240.65,491.94,241.25,491.08,241.13Z"/><path class="cls-4" d="M499.52,223.83l1.62-1.59,0,4.2,3.69-3.61,0-4.2,1.62-1.58-.08,10.45-1.62,1.58,0-4.63-3.69,3.61,0,4.63-1.62,1.58Z"/><path class="cls-4" d="M508.9,214.64l1.62-1.59-.09,10.45-1.61,1.59Z"/><path class="cls-4" d="M513,210.65l5.51-5.4v1.56l-3.89,3.82,0,3,3.31-3.24v1.55l-3.31,3.25,0,4.37-1.62,1.58Z"/><path class="cls-4" d="M522.05,203.31l-2.63,2.58v-1.57l6.88-6.74v1.56l-2.64,2.58-.07,8.89L522,212.2Z"/><rect class="cls-5" x="298.52" y="112.73" width="16.45" height="89.77" transform="translate(128.77 -137.78) rotate(31.74)"/><rect class="cls-6" width="1128.13" height="518.59"/></g></g></svg>