<?xml version="1.0" encoding="UTF-8"?>
<svg width="1010px" height="282px" viewBox="0 0 1010 282" version="1.1" xmlns="http://www.w3.org/2000/svg" xmlns:xlink="http://www.w3.org/1999/xlink">
    <!-- Generator: Sketch 53.2 (72643) - https://sketchapp.com -->
    <title>process</title>
    <desc>Created with Sketch.</desc>
    <g id="Page-1" stroke="none" stroke-width="1" fill="none" fill-rule="evenodd">
        <g id="process">
            <g id="track" transform="translate(12.000000, 0.000000)" fill="#D09A3F">
                <polygon id="Fill-1" points="590.081395 38 594 41.8944919 592.895349 43 589 39.1093871"></polygon>
                <polygon id="Fill-2" points="601 50.168 603.821179 53 605 51.82 602.166833 49"></polygon>
                <polygon id="Fill-3" points="612.194857 60 615 62.7960396 613.79723 64 611 61.1960396"></polygon>
                <polygon id="Fill-4" points="622.222331 70 625 72.767419 623.773751 74 621 71.2247301"></polygon>
                <polygon id="Fill-5" points="632.243926 80 635 82.7431907 633.744412 84 631 81.2451362"></polygon>
                <polygon id="Fill-6" points="643.270452 90 646 92.7193828 644.717998 94 642 91.2690453"></polygon>
                <polygon id="Fill-7" points="653.296473 100 656 102.69341 654.695901 104 652 101.298949"></polygon>
                <polygon id="Fill-8" points="663.322002 111 666 113.667928 664.670444 115 662 112.320719"></polygon>
                <polygon id="Fill-9" points="673.342081 121 676 123.647887 674.646673 125 672 122.344601"></polygon>
                <polygon id="Fill-10" points="683.36676 131 686 133.620818 684.622098 135 682 132.36803"></polygon>
                <polygon id="Fill-11" points="694.390984 141 697 143.599078 695.601656 145 693 142.389862"></polygon>
                <polygon id="Fill-12" points="704.414768 151 707 153.577697 705.57794 155 703 152.414991"></polygon>
                <polygon id="Fill-13" points="714.433484 162 717 164.554348 715.559276 166 713 163.434783"></polygon>
                <polygon id="Fill-14" points="724.449016 172 727 174.522911 725.525939 176 723 173.455526"></polygon>
                <polygon id="Fill-15" points="735.504812 182 738 184.466139 736.474191 186 734 183.512753"></polygon>
                <polygon id="Fill-16" points="745.558219 192 748 194.413081 746.421233 196 744 193.562823"></polygon>
                <polygon id="Fill-17" points="755.607383 202 758 204.362258 756.372483 206 754 203.614153"></polygon>
                <polygon id="Fill-18" points="765.656532 212 768 214.315442 766.32046 216 764 213.66474"></polygon>
                <polygon id="Fill-19" points="776.701853 223 779 225.216084 777.320709 227 775 224.718928"></polygon>
                <polygon id="Fill-20" points="786.923682 232 790 233.949552 788.123525 236 785 233.988609"></polygon>
                <polygon id="Fill-21" points="798.707031 240 802 241.665025 800.351562 244 797 242.26601"></polygon>
                <polygon id="Fill-22" points="811.469661 247 815 248.374582 813.605201 251 810 249.568562"></polygon>
                <polygon id="Fill-23" points="823.963385 252 827 253.058621 826.104963 256 823 254.886207"></polygon>
                <polygon id="Fill-24" points="837.715141 256 841 256.721724 840.363559 260 837 259.228007"></polygon>
                <polygon id="Fill-25" points="851.411765 258 855 258.356061 854.680147 262 851 261.602273"></polygon>
                <polygon id="Fill-26" points="866.027833 259.082515 869.920477 259 870 262.976424 866 263"></polygon>
                <polygon id="Fill-27" points="880 258.431973 883.498195 258 884 261.602041 880.389892 262"></polygon>
                <polygon id="Fill-28" points="894 255.883245 897.112572 255 898 259.1395 894.772391 260"></polygon>
                <polygon id="Fill-29" points="907 252.166898 910.453101 251 912 254.840028 908.410741 256"></polygon>
                <polygon id="Fill-30" points="921 246.69599 924.050491 245 926 249.300129 922.819776 251"></polygon>
                <polygon id="Fill-31" points="933 239.955638 935.672584 238 938 242.014787 935.199211 244"></polygon>
                <polygon id="Fill-32" points="944 231.207885 946.794776 229 950 232.74552 947.063433 235"></polygon>
                <polygon id="Fill-33" points="955 222.456637 957.405694 220 961 223.483186 958.462633 226"></polygon>
                <polygon id="Fill-34" points="964 211.71048 966.037671 209 970 212.211368 967.835616 215"></polygon>
                <polygon id="Fill-35" points="972 199.990904 973.963415 197 979 199.907216 976.904656 203"></polygon>
                <polygon id="Fill-36" points="979 188.326169 980.561889 185 986 187.548673 984.312704 191"></polygon>
                <polygon id="Fill-37" points="984 175.088136 985.166667 172 991 173.783051 989.727957 177"></polygon>
                <polygon id="Fill-38" points="988 162.492182 988.774852 159 995 160.351452 994.138635 164"></polygon>
                <polygon id="Fill-39" points="991 148.222973 991.383614 145 998 145.621622 997.544221 149"></polygon>
                <polygon id="Fill-40" points="991 131.039722 991.019348 134.841112 997.965174 135 998 131.365442 998 131"></polygon>
                <polygon id="Fill-41" points="991 117.741631 991.401023 121 998 120.443777 997.638363 117"></polygon>
                <polygon id="Fill-42" points="988.82494 107 988 103.582232 995.186571 102 996 105.616006"></polygon>
                <polygon id="Fill-43" points="985.152263 94 984 90.5350482 990.833105 88 992 91.688746"></polygon>
                <polygon id="Fill-44" points="980.466135 81 979 78.0499713 985.498451 75 987 78.1499138"></polygon>
                <polygon id="Fill-45" points="973.762299 69 972 66.0656934 978.175011 62 980 65.1423358"></polygon>
                <polygon id="Fill-46" points="966.056546 58 964 55.1527378 969.85298 50 972 53.0662824"></polygon>
                <polygon id="Fill-47" points="956.365402 47 954 44.5881561 959.528685 39 962 41.6020637"></polygon>
                <polygon id="Fill-48" points="946.68366 38 944 35.7318625 949.174329 29 952 31.4590581"></polygon>
                <polygon id="Fill-49" points="936.050718 30 933 28.1488844 937.773206 21 941 23.0227181"></polygon>
                <polygon id="Fill-50" points="924.048329 23 921 21.5423529 924.760925 14 928 15.6094118"></polygon>
                <polygon id="Fill-51" points="911.010227 17 908 15.916411 910.795455 8 914 9.21127301"></polygon>
                <polygon id="Fill-52" points="898.541935 14 895 13.1824375 897.214194 4 901 4.93111279"></polygon>
                <polygon id="Fill-53" points="882 10.5726172 885.564319 11 887 1.51437216 883.175345 1"></polygon>
                <polygon id="Fill-54" points="868 9.96901301 871.624758 10 872 1.08263198 868.10058 1"></polygon>
                <polygon id="Fill-55" points="854 1.31786628 854.892231 11 858 10.6529046 857.355054 1"></polygon>
                <polygon id="Fill-56" points="840 3.68627451 841.923077 13 845 12.3137255 843.340081 3"></polygon>
                <polygon id="Fill-57" points="832 15.8928936 828.99319 17 826 7.14450867 829.272418 6"></polygon>
                <polygon id="Fill-58" points="819 20.5544754 816.09882 22 812 12.5155883 815.169617 11"></polygon>
                <polygon id="Fill-59" points="807 27.2219987 804.234525 29 799 19.8849765 802.034002 18"></polygon>
                <polygon id="Fill-60" points="796 33.8771273 793.394083 36 787 27.2614023 789.865089 25"></polygon>
                <polygon id="Fill-61" points="786 42.7454418 783.583576 45 776 37.4158485 778.670785 35"></polygon>
                <polygon id="Fill-62" points="776 52.5034819 773.565491 55 766 47.4616992 768.47293 45"></polygon>
                <polygon id="Fill-63" points="766 63.2915522 763.599035 66 756 57.6706731 758.435412 55"></polygon>
                <polygon id="Fill-64" points="756 73.328252 753.394835 76 745 67.6307588 747.642542 65"></polygon>
                <polygon id="Fill-65" points="746 83.3639706 743.426944 86 735 77.5992647 737.606233 75"></polygon>
                <polygon id="Fill-66" points="736 94.3996044 733.463778 97 725 88.5641279 727.57261 86"></polygon>
                <polygon id="Fill-67" points="726 104.433453 723.497715 107 715 98.5307517 717.541775 96"></polygon>
                <polygon id="Fill-68" points="715 114.463712 712.529961 117 704 108.497431 706.505477 106"></polygon>
                <polygon id="Fill-69" points="705 125.503025 702.541135 128 694 119.475963 696.479911 117"></polygon>
                <polygon id="Fill-70" points="695 135.522742 692.560582 138 684 129.456412 686.460297 127"></polygon>
                <polygon id="Fill-71" points="685 146.318709 682.359699 149 673 139.658728 675.6629 137"></polygon>
                <polygon id="Fill-72" points="675 156.339552 672.380255 159 663 149.63806 665.645905 147"></polygon>
                <polygon id="Fill-73" points="665 166.358444 662.399691 169 653 159.615622 655.622566 157"></polygon>
                <polygon id="Fill-74" points="655 176.379479 652.419632 179 643 169.598469 645.602454 167"></polygon>
                <polygon id="Fill-75" points="645 187.398601 642.439269 190 633 180.579507 635.586301 178"></polygon>
                <polygon id="Fill-76" points="634 197.419005 631.45861 200 622 190.559276 624.563142 188"></polygon>
                <polygon id="Fill-77" points="624 207.437556 621.476905 210 612 200.540881 614.54829 198"></polygon>
                <polygon id="Fill-78" points="614 217.455843 611.494937 220 602 210.522748 604.526504 208"></polygon>
                <polygon id="Fill-79" points="604 228.471821 601.51345 231 592 221.503393 594.507833 219"></polygon>
                <polygon id="Fill-80" points="593 238.400725 589.964253 241 581 230.327384 583.757104 228"></polygon>
                <polygon id="Fill-81" points="581 248.700771 577.700365 251 570 239.064842 572.989725 237"></polygon>
                <polygon id="Fill-82" points="567 257.156571 563.427256 259 557 246.652977 560.226519 245"></polygon>
                <polygon id="Fill-83" points="553 263.589093 549.138526 265 544 252.259613 547.486316 251"></polygon>
                <polygon id="Fill-84" points="538 269.006474 534.30294 270 531 256.885458 534.33433 256"></polygon>
                <polygon id="Fill-85" points="517 259.513986 518.962756 273 523 272.41958 520.638734 259"></polygon>
                <polygon id="Fill-86" points="503 260.134923 503.328308 274 507 273.836673 506.309883 260"></polygon>
                <polygon id="Fill-87" points="487 273.736247 491.150228 274 492 260.249686 488.263278 260"></polygon>
                <polygon id="Fill-88" points="471 272.278312 474.73057 273 477 258.662472 473.639033 258"></polygon>
                <polygon id="Fill-89" points="459.936389 269 456 267.844455 460.460243 254 464 255.048822"></polygon>
                <polygon id="Fill-90" points="444.617156 264 441 262.403309 446.754567 249 450 250.444801"></polygon>
                <polygon id="Fill-91" points="430.335657 257 427 255.094758 434.005925 243 437 244.725302"></polygon>
                <polygon id="Fill-92" points="416.358644 249 413 246.650248 421.991528 235 425 237.123534"></polygon>
                <polygon id="Fill-93" points="404.046229 239 401 236.382932 411.269286 226 414 228.36105"></polygon>
                <polygon id="Fill-94" points="393.598526 228 391 225.383787 401.390417 215 404 217.605159"></polygon>
                <polygon id="Fill-95" points="382.605173 218 380 215.377096 390.383741 205 393 207.611822"></polygon>
                <polygon id="Fill-96" points="372.6126 208 370 205.373326 380.376283 195 383 197.619265"></polygon>
                <polygon id="Fill-97" points="362.620069 198 360 195.365819 370.372499 185 373 187.623035"></polygon>
                <polygon id="Fill-98" points="352.626827 187 350 184.359026 360.365721 174 363 176.633524"></polygon>
                <polygon id="Fill-99" points="342.633621 177 340 174.351437 350.355172 164 353 166.641092"></polygon>
                <polygon id="Fill-100" points="331.64121 167 329 164.344569 339.351297 154 342 156.64794"></polygon>
                <polygon id="Fill-101" points="321.648079 156 319 153.538995 329.344409 144 332 146.44714"></polygon>
                <polygon id="Fill-102" points="312.450753 146 310 143.53258 319.538818 134 322 136.456994"></polygon>
                <polygon id="Fill-103" points="301.457873 136 299 133.528899 308.535154 124 311 126.46413"></polygon>
                <polygon id="Fill-104" points="291.464317 126 289 123.522423 298.525197 114 301 116.470588"></polygon>
                <polygon id="Fill-105" points="281.471516 115 279 112.515187 288.521472 103 291 105.477804"></polygon>
                <polygon id="Fill-106" points="271.478032 105 269 102.508638 278.514938 93 281 95.4843338"></polygon>
                <polygon id="Fill-107" points="260.480684 95 258 92.4805654 267.494544 83 270 85.5017668"></polygon>
                <polygon id="Fill-108" points="250.498366 85 248 82.4618807 257.476685 73 260 75.5167606"></polygon>
                <polygon id="Fill-109" points="240.517056 74 238 71.4436809 247.45781 62 250 64.5348073"></polygon>
                <polygon id="Fill-110" points="230.536027 64 228 61.4236676 237.442267 52 240 54.5510388"></polygon>
                <polygon id="Fill-111" points="220.55451 54 218 51.4057004 227.419982 42 230 44.5724682"></polygon>
                <polygon id="Fill-112" points="210.394222 44 208 41.8302055 216.323274 32 219 34.3878463"></polygon>
                <polygon id="Fill-113" points="200.601969 36 198 34.0354894 205.092124 23 208 25.1579851"></polygon>
                <polygon id="Fill-114" points="189.8125 29 187 27.3935844 192.862028 16 196 17.7514644"></polygon>
                <polygon id="Fill-115" points="178.027515 23 175 21.7376552 179.62968 10 183 11.3627586"></polygon>
                <polygon id="Fill-116" points="165.272145 18 162 17.0770718 165.369264 5 169 5.98756906"></polygon>
                <polygon id="Fill-117" points="149 14.4238429 151.968338 15 154 2.60168303 150.711741 2"></polygon>
                <polygon id="Fill-118" points="136.485166 0 136 12.7750865 139.186736 13 140 0.206170704"></polygon>
                <polygon id="Fill-119" points="122 1.20446533 122.814621 13 126 12.86604 125.505657 1"></polygon>
                <polygon id="Fill-120" points="108 2.58751099 109.971314 14 113 13.5145119 111.318879 2"></polygon>
                <polygon id="Fill-121" points="100 16.1552795 96.5847085 17 93 5.98314108 96.7348735 5"></polygon>
                <polygon id="Fill-122" points="87 20.7793541 83.7467933 22 79 11.3872623 82.5458432 10"></polygon>
                <polygon id="Fill-123" points="75 26.3872778 71.889172 28 66 17.8110384 69.3821656 16"></polygon>
                <polygon id="Fill-124" points="63 32.1362007 60.3217629 34 54 25.0824373 56.8958658 23"></polygon>
                <polygon id="Fill-125" points="53 39.9296066 50.4330766 42 43 34.294686 45.7612761 32"></polygon>
                <polygon id="Fill-126" points="43 49.4990765 40.7754386 52 33 44.7595124 35.3789474 42"></polygon>
                <polygon id="Fill-127" points="35 59.3112183 32.9119153 62 24 55.9565742 26.2232844 53"></polygon>
                <polygon id="Fill-128" points="27 71.143366 25.2557355 74 16 69.1308994 17.8444669 66"></polygon>
                <polygon id="Fill-129" points="21 83.0020131 19.5943205 86 10 82.2692501 11.4726166 79"></polygon>
                <polygon id="Fill-130" points="16 94.8881119 14.9370702 98 5 95.3811189 6.0931912 92"></polygon>
                <polygon id="Fill-131" points="2 109.457521 11.3579283 111 12 107.810585 2.6385243 106"></polygon>
                <polygon id="Fill-132" points="0 124.490026 9.71036019 125 10 121.759757 0.256219829 121"></polygon>
                <polygon id="Fill-133" points="0 135.252788 0.141977684 139 9 138.483271 8.91689111 135"></polygon>
                <polygon id="Fill-134" points="1 149.282625 1.52477134 153 10 151.467562 9.56440549 148"></polygon>
                <polygon id="Fill-135" points="12.209018 162 13 165.463878 4.89759266 168 4 164.296578"></polygon>
                <polygon id="Fill-136" points="16.8466899 175 18 177.963004 10.28223 181 9 177.845291"></polygon>
                <polygon id="Fill-137" points="21.4756049 187 23 190.003064 15.6814756 194 14 190.811032"></polygon>
                <polygon id="Fill-138" points="28.0772391 199 30 202.01145 23.0965489 207 21 203.820611"></polygon>
                <polygon id="Fill-139" points="35.9173838 210 38 212.652095 32.2616179 218 30 215.213115"></polygon>
                <polygon id="Fill-140" points="45.5107062 221 48 223.333776 42.6824601 229 40 226.556441"></polygon>
                <polygon id="Fill-141" points="55.4296875 230 58 232.029746 53.7583008 238 51 235.886264"></polygon>
                <polygon id="Fill-142" points="66.9792994 238 70 239.732104 66.2287686 246 63 244.211682"></polygon>
                <polygon id="Fill-143" points="78.9631363 244 82 245.432408 79.2404915 252 76 250.531782"></polygon>
                <polygon id="Fill-144" points="91.4323259 249 95 250.116365 92.7884363 257 89 255.876217"></polygon>
                <polygon id="Fill-145" points="105.488722 253 109 253.679181 107.718045 260 104 259.327645"></polygon>
                <polygon id="Fill-146" points="118.641975 255 122 255.350548 121.541446 262 118 261.685968"></polygon>
                <polygon id="Fill-147" points="132 256.036789 135.731256 256 136 261.916388 132.081792 262"></polygon>
                <polygon id="Fill-148" points="147 255.443716 150.155629 255 151 261.475956 147.692053 262"></polygon>
                <polygon id="Fill-149" points="160 252.837574 163.434974 252 165 258.063887 161.414401 259"></polygon>
                <polygon id="Fill-150" points="174 249.229935 177.046402 248 179 253.656182 175.829186 255"></polygon>
                <polygon id="Fill-151" points="186 244.628979 189.282375 243 192 248.248079 188.600126 250"></polygon>
                <polygon id="Fill-152" points="199 237.74692 201.963592 236 205 240.135498 201.938107 242"></polygon>
                <polygon id="Fill-153" points="210 230.103986 212.686088 228 216 231.764298 213.235434 234"></polygon>
                <polygon id="Fill-154" points="221 220.492253 223.548578 218 227 221.468415 224.486967 224"></polygon>
                <polygon id="Fill-155" points="231 210.556777 233.608379 208 237 211.410256 234.428051 214"></polygon>
                <polygon id="Fill-156" points="241 200.617021 243.675373 198 247 201.341677 244.36194 204"></polygon>
                <polygon id="Fill-157" points="252 190.685934 254.741544 188 258 191.27553 255.296745 194"></polygon>
                <polygon id="Fill-158" points="262 180.299078 264.815445 178 268 180.671278 265.223822 183"></polygon>
                <polygon id="Fill-159" points="273 170.357916 275.407532 168 278 170.604871 275.626093 173"></polygon>
                <polygon id="Fill-160" points="283 160.425191 285.475829 158 288 160.540014 285.558702 163"></polygon>
                <polygon id="Fill-161" points="293 149.496429 295.537313 147 298 149.471429 295.491116 152"></polygon>
                <polygon id="Fill-162" points="303 139.547238 305.581463 137 308 139.427326 305.443881 142"></polygon>
                <polygon id="Fill-163" points="314 129.596296 316.629056 127 319 129.381481 316.396755 132"></polygon>
                <polygon id="Fill-164" points="324 119.645064 326.672673 117 329 119.332329 326.346096 122"></polygon>
                <polygon id="Fill-165" points="334 109.689946 336.725535 107 339 109.283193 336.297401 112"></polygon>
                <polygon id="Fill-166" points="344 99.7447142 346.778644 97 349 99.2317933 346.248636 102"></polygon>
                <polygon id="Fill-167" points="355 88.7972865 357.831612 86 360 88.1747805 357.192216 91"></polygon>
                <polygon id="Fill-168" points="365 79.2847844 367.311183 77 369 78.6956876 366.708266 81"></polygon>
                <polygon id="Fill-169" points="376 69.3322259 378.358974 67 380 68.6511628 377.660877 71"></polygon>
                <polygon id="Fill-170" points="386 58.3762712 388.403376 56 390 57.6 387.613502 60"></polygon>
                <polygon id="Fill-171" points="396 48.4277056 398.458621 46 400 47.5480519 397.565517 50"></polygon>
                <polygon id="Fill-172" points="407 38.4702751 409.563923 36 411 37.5474712 408.499124 40"></polygon>
                <polygon id="Fill-173" points="418 29.3120301 420.800699 27 422 28.7142857 419.248252 31"></polygon>
                <polygon id="Fill-174" points="429 20.094 430.039233 21.99 433 19.926 432.016565 18.01"></polygon>
                <polygon id="Fill-175" points="442 13.862 442.82807 15.83 446 14.158 445.224561 12.17"></polygon>
                <polygon id="Fill-176" points="456 7.628 456.629696 9.64 460 8.38 459.431127 6.36"></polygon>
                <polygon id="Fill-177" points="470 4.4 470.426471 6.432 474 5.596 473.625 3.568"></polygon>
                <polygon id="Fill-178" points="484 1.188 484.221797 3.204 488 2.804 487.835564 0.796"></polygon>
                <polygon id="Fill-179" points="498.003976 2.966 501.956262 3.006 502 1.042 498 0.994"></polygon>
                <polygon id="Fill-180" points="513 3.718 516.75619 4.194 517 2.302 513.194286 1.806"></polygon>
                <polygon id="Fill-181" points="527 5.462 530.584801 6.366 531 4.566 527.374421 3.634"></polygon>
                <polygon id="Fill-182" points="541 9.19 544.425435 10.526 545 8.834 541.537969 7.474"></polygon>
                <polygon id="Fill-183" points="554 14.924 557.277727 16.668 558 15.104 554.689276 13.332"></polygon>
                <polygon id="Fill-184" points="567 21.662 570.13352 23.798 571 22.378 567.832866 20.202"></polygon>
                <polygon id="Fill-185" points="579 29.408 581.985535 31.9 583 30.632 579.983607 28.1"></polygon>
            </g>
            <circle id="Oval" fill="#F3F2F6" cx="25" cy="91" r="25"></circle>
            <polygon id="Polygon" fill="#F3F2F6" points="561 227 589.531695 247.72949 578.633558 281.27051 543.366442 281.27051 532.468305 247.72949"></polygon>
            <rect id="Rectangle" fill="#F3F2F6" x="760" y="24" width="50" height="50" rx="8"></rect>
        </g>
    </g>
</svg>