<svg xmlns="http://www.w3.org/2000/svg" viewBox="0 0 1168 720.89"><defs><style>.cls-1{fill:#ce993e;}.cls-2{fill:#585554;}.cls-3{fill:#d6dbe1;}.cls-4{fill:#fff;}.cls-5{fill:none;}</style></defs><title>cop</title><g id="Layer_2" data-name="Layer 2"><g id="Layer_1-2" data-name="Layer 1"><rect class="cls-1" x="25.65" y="451.52" width="11.26" height="2.25"/><rect class="cls-1" x="1087.5" y="451.52" width="22.35" height="2.25"/><rect class="cls-1" x="1053.97" y="451.52" width="22.35" height="2.25"/><rect class="cls-1" x="1020.45" y="451.52" width="22.35" height="2.25"/><rect class="cls-1" x="986.92" y="451.52" width="22.35" height="2.25"/><rect class="cls-1" x="953.39" y="451.52" width="22.35" height="2.25"/><rect class="cls-1" x="919.86" y="451.52" width="22.35" height="2.25"/><rect class="cls-1" x="886.33" y="451.52" width="22.35" height="2.25"/><rect class="cls-1" x="852.8" y="451.52" width="22.35" height="2.25"/><rect class="cls-1" x="819.27" y="451.52" width="22.35" height="2.25"/><rect class="cls-1" x="785.74" y="451.52" width="22.35" height="2.25"/><rect class="cls-1" x="752.21" y="451.52" width="22.35" height="2.25"/><rect class="cls-1" x="718.68" y="451.52" width="22.35" height="2.25"/><rect class="cls-1" x="685.15" y="451.52" width="22.35" height="2.25"/><rect class="cls-1" x="651.62" y="451.52" width="22.35" height="2.25"/><rect class="cls-1" x="618.09" y="451.52" width="22.35" height="2.25"/><rect class="cls-1" x="584.56" y="451.52" width="22.35" height="2.25"/><rect class="cls-1" x="551.03" y="451.52" width="22.35" height="2.25"/><rect class="cls-1" x="517.5" y="451.52" width="22.35" height="2.25"/><rect class="cls-1" x="483.97" y="451.52" width="22.35" height="2.25"/><rect class="cls-1" x="450.44" y="451.52" width="22.35" height="2.25"/><rect class="cls-1" x="416.91" y="451.52" width="22.35" height="2.25"/><rect class="cls-1" x="383.38" y="451.52" width="22.35" height="2.25"/><rect class="cls-1" x="349.85" y="451.52" width="22.35" height="2.25"/><rect class="cls-1" x="316.32" y="451.52" width="22.35" height="2.25"/><rect class="cls-1" x="282.79" y="451.52" width="22.35" height="2.25"/><rect class="cls-1" x="249.26" y="451.52" width="22.35" height="2.25"/><rect class="cls-1" x="215.73" y="451.52" width="22.35" height="2.25"/><rect class="cls-1" x="182.2" y="451.52" width="22.35" height="2.25"/><rect class="cls-1" x="148.68" y="451.52" width="22.35" height="2.25"/><rect class="cls-1" x="115.15" y="451.52" width="22.35" height="2.25"/><rect class="cls-1" x="81.62" y="451.52" width="22.35" height="2.25"/><rect class="cls-1" x="48.09" y="451.52" width="22.35" height="2.25"/><rect class="cls-1" x="1121.03" y="451.52" width="26.46" height="2.25"/><polygon class="cls-1" points="1117.9 485 1116.31 483.41 1147.07 452.64 1116.31 421.88 1117.9 420.29 1150.26 452.64 1117.9 485"/><polygon class="cls-2" points="1028.2 459.34 1026.61 460.94 1056.25 490.57 919.77 490.57 876.2 413.04 875.88 412.46 667.15 412.46 693.7 364.13 1054.76 364.13 1025.12 393.77 1026.71 395.36 1059.07 363 1026.71 330.64 1025.12 332.24 1054.76 361.88 692.37 361.88 664.59 412.46 25.65 412.46 25.65 414.72 663.35 414.72 621.69 490.57 25.65 490.57 25.65 492.83 623.02 492.83 665.92 414.72 874.55 414.72 918.13 492.25 918.45 492.83 1056.25 492.83 1026.61 522.47 1028.2 524.06 1060.56 491.7 1028.2 459.34"/><polygon class="cls-2" points="757.71 331.96 758.01 403.49 795.18 403.49 795.25 332 757.71 331.96"/><path class="cls-2" d="M851.88,327.11H735.13L722.31,290a5.63,5.63,0,0,0-10.65,3.67l14.13,40.95a5.64,5.64,0,0,0,5.33,3.79h26.62l.18,43.48c0,.23-.07.45-.07.68l-.14,91.36a6.76,6.76,0,0,0,6.74,6.77,7.09,7.09,0,0,0,1.74-.22,6.77,6.77,0,0,0,5-6.53l.11-70.42h10.36l-.11,70.4a6.76,6.76,0,0,0,6.74,6.77,7.09,7.09,0,0,0,1.74-.22,6.77,6.77,0,0,0,5-6.53l.15-91.36c0-.11,0-.2,0-.31l0-43.87h56.63a5.63,5.63,0,0,0,0-11.26Z"/><circle class="cls-1" cx="745.1" cy="302.35" r="4.81"/><polygon class="cls-1" points="754.93 299.71 744.89 301.19 744.89 297.54 754.93 297.54 754.93 299.71"/><path class="cls-2" d="M806,280.66l4.8-3.84-44.76-21.51,2.5,13.87-2.18,7.11-20-6.12a24.31,24.31,0,0,0,16.92,11.37,24.34,24.34,0,1,0,37.55,5.33l3,.91Z"/><path class="cls-1" d="M761,339.44a5.71,5.71,0,0,1-5.7,5.71v38.93h12.32a7.77,7.77,0,0,0,7.77-7.77V326.92H761Zm30.88,0V326.92H777.54v49.39a7.76,7.76,0,0,0,7.76,7.77h12.32V345.15A5.71,5.71,0,0,1,791.92,339.44Z"/><path class="cls-3" d="M740.16,262.6c.27-.27.56-.5.84-.76l-14.36-14.35-1.59,1.59,14.35,14.36C739.66,263.16,739.89,262.87,740.16,262.6Z"/><path class="cls-3" d="M733.63,272.07l-18.75-7.77-.86,2.08,18.74,7.76C733,273.44,733.32,272.75,733.63,272.07Z"/><path class="cls-3" d="M751.71,255.2l-7.77-18.74-2.08.86,7.77,18.75C750.31,255.76,751,255.46,751.71,255.2Z"/><circle class="cls-2" cx="488.37" cy="414.31" r="29.01"/><circle class="cls-1" cx="488.37" cy="414.31" r="14.95"/><path class="cls-4" d="M488.37,425.54a11.23,11.23,0,1,1,11.23-11.23A11.24,11.24,0,0,1,488.37,425.54Zm0-20.2a9,9,0,1,0,9,9A9,9,0,0,0,488.37,405.34Z"/><path class="cls-2" d="M500.52,234.18H444.73V380.59h-87.3a8.91,8.91,0,0,0-8.92,8.91v11.92h106.1a36.12,36.12,0,0,1,67.52,0h33.2V289A54.81,54.81,0,0,0,500.52,234.18Z"/><path class="cls-1" d="M99.67,198.16H419.46a9,9,0,0,1,9,9V375.5a0,0,0,0,1,0,0H99.67a0,0,0,0,1,0,0V198.16A0,0,0,0,1,99.67,198.16Z"/><path class="cls-3" d="M485.4,286.4v35.92h69.93V289a54.63,54.63,0,0,0-2.58-16.62H499.43A14,14,0,0,0,485.4,286.4Z"/><path class="cls-1" d="M555.33,360.75a12.9,12.9,0,1,0,0,25.79Z"/><path class="cls-3" d="M99.67,354.18a12.9,12.9,0,0,0,0-25.79Z"/><circle class="cls-2" cx="387.2" cy="414.31" r="29.01"/><circle class="cls-1" cx="387.2" cy="414.31" r="14.95"/><path class="cls-4" d="M387.2,425.54a11.23,11.23,0,1,1,11.23-11.23A11.24,11.24,0,0,1,387.2,425.54Zm0-20.2a9,9,0,1,0,9,9A9,9,0,0,0,387.2,405.34Z"/><circle class="cls-2" cx="133.39" cy="414.31" r="29.01"/><circle class="cls-1" cx="133.39" cy="414.31" r="14.95"/><path class="cls-4" d="M133.39,425.54a11.23,11.23,0,1,1,11.23-11.23A11.24,11.24,0,0,1,133.39,425.54Zm0-20.2a9,9,0,1,0,9,9A9,9,0,0,0,133.39,405.34Z"/><circle class="cls-2" cx="199.98" cy="414.31" r="29.01"/><circle class="cls-1" cx="199.98" cy="414.31" r="14.95"/><path class="cls-4" d="M200,425.54a11.23,11.23,0,1,1,11.23-11.23A11.23,11.23,0,0,1,200,425.54Zm0-20.2a9,9,0,1,0,9,9A9,9,0,0,0,200,405.34Z"/><polygon class="cls-4" points="498.53 322.32 517.97 322.32 539.41 272.37 519.97 272.37 498.53 322.32"/><rect class="cls-1" x="766.62" y="274.76" width="39.18" height="7.44" transform="translate(116.17 -218.24) rotate(17.05)"/><rect class="cls-5" width="1168" height="720.89"/></g></g></svg>