<svg xmlns="http://www.w3.org/2000/svg" viewBox="0 0 1167.16 1033.08"><defs><style>.cls-1{fill:#d6dbe2;}.cls-2{fill:#d09a3f;}.cls-3{fill:#bbbdbf;}.cls-4{fill:#585553;}.cls-5{fill:none;}</style></defs><title>digital-first</title><g id="Layer_2" data-name="Layer 2"><g id="Layer_1-2" data-name="Layer 1"><path class="cls-1" d="M676.92,313.29c0-1.06,0-2.11-.08-3.16l10.38-3.72q-.24-3.37-.69-6.68l-10.93-1.48c-.36-2.09-.78-4.16-1.29-6.2l9.36-5.78c-.62-2.16-1.28-4.3-2-6.39l-11,.83c-.79-2-1.64-3.9-2.57-5.79l8-7.62c-1.06-2-2.19-3.91-3.37-5.81l-10.57,3.09c-1.18-1.75-2.44-3.44-3.74-5.1l6.22-9.11q-2.17-2.58-4.51-5l-9.7,5.22c-1.51-1.46-3.07-2.88-4.69-4.23l4.18-10.19c-1.77-1.38-3.56-2.72-5.42-4L636,239.35c-1.78-1.12-3.61-2.19-5.48-3.18l2-10.85c-2-1-4.06-1.88-6.14-2.72l-6.72,8.7c-2-.72-4-1.35-6-1.93l-.33-11c-2.16-.54-4.36-1-6.57-1.38l-4.78,9.93q-3.1-.44-6.29-.65L593,215.54c-1.12,0-2.23-.09-3.36-.09s-2.25.05-3.36.09l-2.61,10.7q-3.18.21-6.29.65L572.61,217c-2.22.39-4.41.84-6.57,1.38l-.33,11c-2,.58-4.06,1.21-6,1.93l-6.73-8.7c-2.08.84-4.12,1.74-6.13,2.72l2,10.85c-1.87,1-3.69,2.06-5.47,3.18l-8.43-7.14c-1.85,1.25-3.65,2.59-5.41,4l4.18,10.19c-1.62,1.35-3.18,2.77-4.69,4.23l-9.71-5.22c-1.55,1.61-3.06,3.27-4.5,5l6.21,9.11c-1.3,1.66-2.56,3.35-3.74,5.1l-10.56-3.09c-1.19,1.9-2.32,3.83-3.37,5.81l8,7.62c-.93,1.89-1.78,3.82-2.57,5.79l-11-.83c-.76,2.09-1.43,4.23-2.05,6.39l9.37,5.78c-.51,2-.93,4.11-1.3,6.2l-10.92,1.48c-.31,2.2-.53,4.43-.69,6.68l10.37,3.72c0,1.05-.08,2.1-.08,3.16s.05,2.11.08,3.16l-10.37,3.71c.16,2.25.38,4.48.69,6.69l10.92,1.47c.37,2.1.79,4.17,1.3,6.2l-9.37,5.79c.62,2.16,1.29,4.29,2.05,6.39l11-.83c.79,2,1.64,3.9,2.57,5.79l-8,7.61c1,2,2.18,3.92,3.37,5.81L517.22,362c1.18,1.75,2.44,3.45,3.74,5.11l-6.21,9.11c1.44,1.71,3,3.37,4.5,5L529,376c1.51,1.47,3.07,2.89,4.69,4.24l-4.18,10.19c1.76,1.37,3.56,2.71,5.41,4l8.43-7.14q2.67,1.68,5.47,3.17l-2,10.86c2,1,4.05,1.88,6.13,2.72l6.73-8.7c2,.72,4,1.35,6,1.93l.33,11c2.16.53,4.35,1,6.57,1.37l4.78-9.92q3.11.44,6.29.64L586.29,411c1.11,0,2.23.08,3.36.08s2.24,0,3.36-.08l2.61-10.71q3.18-.21,6.29-.64l4.78,9.92c2.21-.39,4.41-.84,6.57-1.37l.33-11c2-.58,4.06-1.21,6-1.93l6.72,8.7c2.08-.84,4.13-1.74,6.14-2.72l-2-10.86q2.81-1.48,5.48-3.17l8.42,7.14c1.86-1.26,3.65-2.6,5.42-4l-4.18-10.19c1.62-1.35,3.18-2.77,4.69-4.24l9.7,5.22q2.34-2.42,4.51-5l-6.22-9.11c1.3-1.66,2.56-3.36,3.74-5.11l10.57,3.09c1.18-1.89,2.31-3.83,3.37-5.81l-8-7.61c.93-1.89,1.78-3.83,2.57-5.79l11,.83c.76-2.1,1.42-4.23,2-6.39l-9.36-5.79c.51-2,.93-4.1,1.29-6.2l10.93-1.47q.45-3.32.69-6.69l-10.38-3.71C676.88,315.4,676.92,314.35,676.92,313.29Zm-87.27,75.44a75.44,75.44,0,1,1,75.44-75.44A75.52,75.52,0,0,1,589.65,388.73Z"/><path class="cls-2" d="M427.87,410.42a7.17,7.17,0,0,0-9.95,2L392,451.27l-27.7-4.12a24.08,24.08,0,0,0-.75-6l23.08,3.51a7.85,7.85,0,0,0,1.08.08,7.17,7.17,0,0,0,7.17-7.18V400.27a7.18,7.18,0,0,0-14.35,0v28.94l-33.79-5.13-.2-.06a23.92,23.92,0,0,0-29.25,17l-3.67,14.24-24.22,90.41H258.82a8.61,8.61,0,1,0,0,17.22H296a8.62,8.62,0,0,0,8.32-6.38l12.71-47.47,13.86.29-26.46,99.78a8.61,8.61,0,0,0,6.12,10.53,8.89,8.89,0,0,0,2.21.29,8.62,8.62,0,0,0,8.32-6.41L350.93,501a4.67,4.67,0,0,0,.08-.52l10.42-39.28,33,4.9a7.68,7.68,0,0,0,1.06.08,7.17,7.17,0,0,0,6-3.19l28.43-42.65A7.17,7.17,0,0,0,427.87,410.42Z"/><path class="cls-2" d="M365,384.31H381.9c0-.19,0-.37,0-.57a31,31,0,1,0-5.66,17.82A18.81,18.81,0,0,1,365,384.31Z"/><path class="cls-2" d="M388.59,333.88c.48,0,1,.06,1.43.08V308.09h-2.87V334C387.64,333.94,388.11,333.88,388.59,333.88Z"/><path class="cls-2" d="M374.18,336.53l-9.9-23.89-2.65,1.1,9.89,23.88C372.39,337.22,373.28,336.86,374.18,336.53Z"/><path class="cls-2" d="M405.66,337.62l9.89-23.88-2.65-1.1L403,336.53C403.9,336.86,404.79,337.22,405.66,337.62Z"/><path class="cls-3" d="M949.36,175.75l-2.65-1.1-11.61,28c.89.35,1.78.69,2.66,1.07Z"/><path class="cls-3" d="M1007.26,215.11l-2-2-21.47,21.47c.69.67,1.36,1.35,2,2Z"/><path class="cls-3" d="M1028.48,341c0,.48,0,1,0,1.44h30.37v-2.87h-30.37C1028.45,340,1028.48,340.5,1028.48,341Z"/><path class="cls-3" d="M1045.7,408.33l-28-11.61c-.36.89-.7,1.78-1.07,2.66l28,11.6Z"/><path class="cls-3" d="M880.8,191.9V161.54h-2.87V191.9c.48,0,1,0,1.43,0Z"/><path class="cls-3" d="M1045.7,273.64l-1.1-2.65-28,11.6c.37.87.71,1.77,1.07,2.66Z"/><path class="cls-3" d="M823.63,202.68l-11.61-28-2.66,1.1,11.6,28C821.84,203.37,822.74,203,823.63,202.68Z"/><circle class="cls-2" cx="879.36" cy="473.88" r="5.52"/><path class="cls-2" d="M933.41,261.11H825.31a18.46,18.46,0,0,0-18.46,18.45V473.75a18.47,18.47,0,0,0,18.46,18.46h108.1a18.47,18.47,0,0,0,18.46-18.46V279.56A18.46,18.46,0,0,0,933.41,261.11Zm-54,221.16a8.39,8.39,0,1,1,8.39-8.39A8.39,8.39,0,0,1,879.36,482.27Zm62.22-36.55a12.87,12.87,0,0,1-12.87,12.88H830a12.87,12.87,0,0,1-12.88-12.88V284.64A12.87,12.87,0,0,1,830,271.76h98.69a12.87,12.87,0,0,1,12.87,12.88Z"/><path class="cls-2" d="M734.34,377.16c.09-1,.16-2.05.16-3.1s-.07-2.08-.16-3.1l-10-3.55a22.76,22.76,0,0,0-1.91-4.64l4.56-9.58a33.57,33.57,0,0,0-4.38-4.38L713,353.37a23,23,0,0,0-4.64-1.91l-3.55-10c-1-.09-2.06-.16-3.1-.16s-2.08.07-3.1.16l-3.56,10a22.67,22.67,0,0,0-4.63,1.91l-9.58-4.56a32.37,32.37,0,0,0-4.38,4.38l4.55,9.58a23.34,23.34,0,0,0-1.91,4.64l-10,3.55c-.09,1-.15,2.06-.15,3.1s.06,2.08.15,3.1l10,3.56a23.25,23.25,0,0,0,1.91,4.63l-4.55,9.58a31.81,31.81,0,0,0,4.38,4.38l9.58-4.55a23.25,23.25,0,0,0,4.63,1.91l3.56,10c1,.09,2.05.15,3.1.15s2.08-.06,3.1-.15l3.55-10a23.59,23.59,0,0,0,4.64-1.91l9.58,4.55a32.37,32.37,0,0,0,4.38-4.38l-4.56-9.58a22.67,22.67,0,0,0,1.91-4.63Z"/><path class="cls-4" d="M913.15,778.93A80.19,80.19,0,0,1,833,697.85l1.14-74.53h-196a26,26,0,0,1-26-26v-49h78.17a38.53,38.53,0,0,0,38.49-38.48V438H761.3c-4-8.3-17-41.16-17-119.19V271.57a74.54,74.54,0,0,0-74.45-74.45H534.45A74.54,74.54,0,0,0,460,271.57v82H448a39.69,39.69,0,0,0-39.65,39.64V414A39.7,39.7,0,0,0,448,453.65h12V623.32H24.4v-2.87H457.12V456.52H448A42.56,42.56,0,0,1,405.47,414V393.22A42.56,42.56,0,0,1,448,350.71h9.13V271.57a77.42,77.42,0,0,1,77.33-77.32H669.86a77.41,77.41,0,0,1,77.32,77.32v47.27c0,89.34,17.54,119.59,17.72,119.89l1.3,2.17H731.62v68.94a41.4,41.4,0,0,1-41.36,41.35H615v46.14a23.14,23.14,0,0,0,23.12,23.12H834.14L835,562.4a45.92,45.92,0,0,1,45.76-45.25h72.66a18.92,18.92,0,0,0,17-10.52l14.52-29a21.77,21.77,0,0,1,19.58-12.1h15.5l-25.82,51.66h10.86a18.91,18.91,0,0,0,17-10.52l14.52-29a21.78,21.78,0,0,1,19.58-12.1h15.51l-25.83,51.66h10.86a18.93,18.93,0,0,0,17-10.52l14.52-29a21.77,21.77,0,0,1,19.57-12.1h15.51l-43.44,86.88a34.73,34.73,0,0,1-31.22,19.3H914.42V568.8H1048.7a31.89,31.89,0,0,0,28.66-17.71l41.36-82.73h-10.87a18.92,18.92,0,0,0-17,10.52l-14.52,29a21.77,21.77,0,0,1-19.58,12.1h-15.5l25.83-51.66H1056.2a18.91,18.91,0,0,0-17,10.52l-14.52,29a21.77,21.77,0,0,1-19.58,12.1H989.58l25.83-51.66h-10.86a18.91,18.91,0,0,0-17,10.52l-14.53,29A21.77,21.77,0,0,1,953.44,520H880.78a43,43,0,0,0-42.89,42.41l-.88,58h78a78.38,78.38,0,0,1,78.29,78.29A80.28,80.28,0,0,1,913.15,778.93ZM837,623.32l-1.14,74.57a77.32,77.32,0,1,0,154.64.85,75.51,75.51,0,0,0-75.42-75.42Z"/><path class="cls-1" d="M593.24,454.38c.06-1,.16-2,.16-3s-.1-2-.16-3l-8.7-1.67a44.6,44.6,0,0,0-1.59-7.95l7.43-4.89a53,53,0,0,0-2.33-5.61L579.36,430a45,45,0,0,0-4.52-6.73l5-7.35a54.52,54.52,0,0,0-4.3-4.3l-7.35,5a45.8,45.8,0,0,0-6.73-4.53l1.79-8.68a52.3,52.3,0,0,0-5.62-2.33l-4.88,7.43a43.73,43.73,0,0,0-8-1.59l-1.67-8.7c-1-.06-2-.16-3-.16s-2,.1-3.05.16l-1.66,8.7a43.56,43.56,0,0,0-8,1.59L522.53,401a53,53,0,0,0-5.61,2.33l1.79,8.68a45.28,45.28,0,0,0-6.73,4.53l-7.35-5a52.87,52.87,0,0,0-4.3,4.3l5,7.35a45.74,45.74,0,0,0-4.52,6.73l-8.68-1.79a53,53,0,0,0-2.33,5.61l7.43,4.89a44.62,44.62,0,0,0-1.6,7.95l-8.7,1.67c-.05,1-.15,2-.15,3s.1,2,.15,3.05l8.7,1.66a44.62,44.62,0,0,0,1.6,7.95l-7.43,4.89a53,53,0,0,0,2.33,5.61l8.68-1.79a45.22,45.22,0,0,0,4.52,6.73l-5,7.35a52.87,52.87,0,0,0,4.3,4.3l7.35-5a44.52,44.52,0,0,0,6.73,4.53l-1.79,8.68a53,53,0,0,0,5.61,2.33l4.89-7.43a44.44,44.44,0,0,0,8,1.6l1.66,8.7c1,.05,2,.15,3.05.15s2-.1,3-.15l1.67-8.7a44.62,44.62,0,0,0,8-1.6l4.88,7.43a52.3,52.3,0,0,0,5.62-2.33l-1.79-8.68a45,45,0,0,0,6.73-4.53l7.35,5a54.52,54.52,0,0,0,4.3-4.3l-5-7.35a44.46,44.46,0,0,0,4.52-6.73l8.69,1.79a53,53,0,0,0,2.33-5.61L583,464a44.6,44.6,0,0,0,1.59-7.95Zm-53.16,20.37A23.8,23.8,0,1,1,563.87,451,23.83,23.83,0,0,1,540.08,474.75Z"/><path class="cls-4" d="M701.74,382.79a8.73,8.73,0,1,1,8.73-8.73A8.73,8.73,0,0,1,701.74,382.79Zm0-14.59a5.86,5.86,0,1,0,5.86,5.86A5.86,5.86,0,0,0,701.74,368.2Z"/><path class="cls-1" d="M589.65,240.72a72.57,72.57,0,1,0,72.57,72.57A72.65,72.65,0,0,0,589.65,240.72Zm0,79.86a7.3,7.3,0,1,1,7.29-7.29A7.29,7.29,0,0,1,589.65,320.58Z"/><path class="cls-4" d="M589.65,338.38a25.09,25.09,0,1,1,25.09-25.09A25.12,25.12,0,0,1,589.65,338.38Zm0-47.31a22.22,22.22,0,1,0,22.22,22.22A22.24,22.24,0,0,0,589.65,291.07Z"/><path class="cls-4" d="M729.55,487.82c-63.93,0-92-50.16-92.24-50.66a1.43,1.43,0,1,1,2.51-1.37c.27.49,27.55,49.16,89.73,49.16a1.44,1.44,0,1,1,0,2.87Z"/><path class="cls-1" d="M963.55,702.17c.06-.95.15-1.89.15-2.85s-.09-1.91-.15-2.86l-8.16-1.56a41.89,41.89,0,0,0-1.5-7.47l7-4.58a51,51,0,0,0-2.19-5.28l-8.15,1.69a43.11,43.11,0,0,0-4.25-6.32L951,666a49.68,49.68,0,0,0-4-4l-6.9,4.68a42.18,42.18,0,0,0-6.31-4.24l1.68-8.16a53.1,53.1,0,0,0-5.27-2.19l-4.59,7a42,42,0,0,0-7.46-1.5l-1.57-8.16c-1-.06-1.89-.15-2.86-.15s-1.9.09-2.85.15l-1.57,8.16a42,42,0,0,0-7.46,1.5l-4.59-7a50.81,50.81,0,0,0-5.27,2.19l1.68,8.16a42.18,42.18,0,0,0-6.31,4.24l-6.9-4.68a49.68,49.68,0,0,0-4,4l4.68,6.9a43.11,43.11,0,0,0-4.25,6.32l-8.15-1.69a51.74,51.74,0,0,0-2.19,5.27l7,4.59a41.89,41.89,0,0,0-1.5,7.47l-8.16,1.56c-.06.95-.15,1.89-.15,2.86s.09,1.9.15,2.85l8.16,1.57a42,42,0,0,0,1.5,7.46l-7,4.59a50.81,50.81,0,0,0,2.19,5.27l8.15-1.68A43.11,43.11,0,0,0,881,725.7l-4.68,6.89a48.13,48.13,0,0,0,4,4l6.9-4.68a41.49,41.49,0,0,0,6.31,4.25l-1.68,8.15a50.81,50.81,0,0,0,5.27,2.19l4.59-7a42,42,0,0,0,7.46,1.5l1.57,8.17c1,0,1.89.14,2.85.14s1.91-.09,2.86-.14l1.57-8.17a42,42,0,0,0,7.46-1.5l4.59,7a50.81,50.81,0,0,0,5.27-2.19l-1.68-8.15A41.49,41.49,0,0,0,940,732l6.9,4.68a48.13,48.13,0,0,0,4-4l-4.68-6.89a43.11,43.11,0,0,0,4.25-6.32l8.15,1.68a50.81,50.81,0,0,0,2.19-5.27l-7-4.59a42,42,0,0,0,1.5-7.46Zm-49.91,11.67a14.53,14.53,0,1,1,14.53-14.52A14.52,14.52,0,0,1,913.64,713.84Z"/><path class="cls-4" d="M913.65,707.6a8.29,8.29,0,1,1,8.28-8.28A8.3,8.3,0,0,1,913.65,707.6Zm0-13.7a5.42,5.42,0,1,0,5.41,5.42A5.42,5.42,0,0,0,913.65,693.9Z"/><path class="cls-3" d="M190.34,484l-30.41,30.41v87.32h89.29V484Zm-.84,4.9v24.67H164.83Zm56.85,110H162.8V516.4h29.57V486.83h54Z"/><path class="cls-3" d="M69,484,38.63,514.37v87.32h89.3V484Zm-.84,4.9v24.67H43.53Zm56.86,110H41.5V516.4H71.07V486.83h54Z"/><path class="cls-3" d="M418.68,661a10.17,10.17,0,1,1,10.17-10.17A10.18,10.18,0,0,1,418.68,661Zm0-14.59a4.43,4.43,0,1,0,4.43,4.42A4.44,4.44,0,0,0,418.68,646.4Z"/><path class="cls-3" d="M348.59,661a10.17,10.17,0,1,1,10.16-10.17A10.18,10.18,0,0,1,348.59,661Zm0-14.59a4.43,4.43,0,1,0,4.42,4.42A4.44,4.44,0,0,0,348.59,646.4Z"/><path class="cls-3" d="M278.49,661a10.17,10.17,0,1,1,10.17-10.17A10.18,10.18,0,0,1,278.49,661Zm0-14.59a4.43,4.43,0,1,0,4.43,4.42A4.43,4.43,0,0,0,278.49,646.4Z"/><path class="cls-3" d="M208.4,661a10.17,10.17,0,1,1,10.17-10.17A10.19,10.19,0,0,1,208.4,661Zm0-14.59a4.43,4.43,0,1,0,4.43,4.42A4.44,4.44,0,0,0,208.4,646.4Z"/><path class="cls-3" d="M138.31,661a10.17,10.17,0,1,1,10.16-10.17A10.18,10.18,0,0,1,138.31,661Zm0-14.59a4.43,4.43,0,1,0,4.42,4.42A4.44,4.44,0,0,0,138.31,646.4Z"/><path class="cls-3" d="M68.21,661a10.17,10.17,0,1,1,10.17-10.17A10.18,10.18,0,0,1,68.21,661Zm0-14.59a4.43,4.43,0,1,0,4.43,4.42A4.43,4.43,0,0,0,68.21,646.4Z"/><rect class="cls-5" width="1167.16" height="1033.08"/></g></g></svg>