<svg xmlns="http://www.w3.org/2000/svg" xmlns:xlink="http://www.w3.org/1999/xlink" viewBox="0 0 1167.2 1033.1"><defs><style>.cls-1{mask:url(#mask);filter:url(#luminosity-noclip-8);}.cls-10,.cls-12,.cls-14,.cls-18,.cls-2,.cls-20,.cls-22,.cls-29,.cls-38,.cls-4,.cls-41,.cls-45,.cls-6,.cls-8{mix-blend-mode:multiply;}.cls-2{fill:url(#linear-gradient);}.cls-3{mask:url(#mask-2);filter:url(#luminosity-noclip-13);}.cls-4{fill:url(#linear-gradient-2);}.cls-5{mask:url(#mask-3);filter:url(#luminosity-noclip-14);}.cls-6{fill:url(#linear-gradient-3);}.cls-7{mask:url(#mask-4);filter:url(#luminosity-noclip-9);}.cls-8{fill:url(#linear-gradient-4);}.cls-9{mask:url(#mask-5);filter:url(#luminosity-noclip-10);}.cls-10{fill:url(#linear-gradient-5);}.cls-11{mask:url(#mask-6);filter:url(#luminosity-noclip-11);}.cls-12{fill:url(#linear-gradient-6);}.cls-13{mask:url(#mask-7);filter:url(#luminosity-noclip-12);}.cls-14{fill:url(#linear-gradient-7);}.cls-15{isolation:isolate;}.cls-16{fill:none;}.cls-17{mask:url(#mask-8);}.cls-18,.cls-20,.cls-22,.cls-29,.cls-38,.cls-41,.cls-45{opacity:0.22;}.cls-18{fill:url(#linear-gradient-8);}.cls-19{mask:url(#mask-9);}.cls-20{fill:url(#linear-gradient-9);}.cls-21{mask:url(#mask-10);}.cls-22{fill:url(#linear-gradient-10);}.cls-23{fill:#3a3837;}.cls-24{fill:#f4d19d;}.cls-25{fill:#d6dbe2;}.cls-26{fill:#131313;}.cls-27{fill:#5a4945;}.cls-28{mask:url(#mask-11);}.cls-29{fill:url(#linear-gradient-11);}.cls-30{fill:#303030;}.cls-31{fill:#3f2e26;}.cls-32{fill:#e8e8e8;}.cls-33{fill:#d09a3f;}.cls-34{fill:#976233;}.cls-35{fill:#666;}.cls-36{fill:#7a6356;}.cls-37{mask:url(#mask-12);}.cls-38{fill:url(#linear-gradient-12);}.cls-39{fill:#585553;}.cls-40{mask:url(#mask-13);}.cls-41{fill:url(#linear-gradient-13);}.cls-42{fill:#ddc68b;}.cls-43{fill:#3f3f3f;}.cls-44{mask:url(#mask-14);}.cls-45{fill:url(#linear-gradient-14);}.cls-46{fill:#fcfcfc;}.cls-47{filter:url(#luminosity-noclip-7);}.cls-48{filter:url(#luminosity-noclip-6);}.cls-49{filter:url(#luminosity-noclip-5);}.cls-50{filter:url(#luminosity-noclip-4);}.cls-51{filter:url(#luminosity-noclip-3);}.cls-52{filter:url(#luminosity-noclip-2);}.cls-53{filter:url(#luminosity-noclip);}</style><filter id="luminosity-noclip" x="707.66" y="-8708" width="142.99" height="32766" filterUnits="userSpaceOnUse" color-interpolation-filters="sRGB"><feFlood flood-color="#fff" result="bg"/><feBlend in="SourceGraphic" in2="bg"/></filter><mask id="mask" x="707.66" y="-8708" width="142.99" height="32766" maskUnits="userSpaceOnUse"><g class="cls-53"/></mask><linearGradient id="linear-gradient" x1="1156.64" y1="726.44" x2="1231.16" y2="726.44" gradientTransform="matrix(1.92, -0.05, 0.03, 1, -1532.57, 57.83)" gradientUnits="userSpaceOnUse"><stop offset="0" stop-color="#fff"/><stop offset="1"/></linearGradient><filter id="luminosity-noclip-2" x="295.61" y="-8708" width="113.31" height="32766" filterUnits="userSpaceOnUse" color-interpolation-filters="sRGB"><feFlood flood-color="#fff" result="bg"/><feBlend in="SourceGraphic" in2="bg"/></filter><mask id="mask-2" x="295.61" y="-8708" width="113.31" height="32766" maskUnits="userSpaceOnUse"><g class="cls-52"/></mask><linearGradient id="linear-gradient-2" x1="942.03" y1="718.92" x2="1001.09" y2="718.92" xlink:href="#linear-gradient"/><filter id="luminosity-noclip-3" x="96.39" y="-8708" width="142.99" height="32766" filterUnits="userSpaceOnUse" color-interpolation-filters="sRGB"><feFlood flood-color="#fff" result="bg"/><feBlend in="SourceGraphic" in2="bg"/></filter><mask id="mask-3" x="96.39" y="-8708" width="142.99" height="32766" maskUnits="userSpaceOnUse"><g class="cls-51"/></mask><linearGradient id="linear-gradient-3" x1="838.29" y1="713.59" x2="912.81" y2="713.59" xlink:href="#linear-gradient"/><filter id="luminosity-noclip-4" x="516.55" y="-8708" width="142.99" height="32766" filterUnits="userSpaceOnUse" color-interpolation-filters="sRGB"><feFlood flood-color="#fff" result="bg"/><feBlend in="SourceGraphic" in2="bg"/></filter><mask id="mask-4" x="516.55" y="-8708" width="142.99" height="32766" maskUnits="userSpaceOnUse"><g class="cls-50"/></mask><linearGradient id="linear-gradient-4" x1="1057.13" y1="720.54" x2="1131.66" y2="720.54" xlink:href="#linear-gradient"/><filter id="luminosity-noclip-5" x="397.9" y="-8708" width="113.31" height="32766" filterUnits="userSpaceOnUse" color-interpolation-filters="sRGB"><feFlood flood-color="#fff" result="bg"/><feBlend in="SourceGraphic" in2="bg"/></filter><mask id="mask-5" x="397.9" y="-8708" width="113.31" height="32766" maskUnits="userSpaceOnUse"><g class="cls-49"/></mask><linearGradient id="linear-gradient-5" x1="995.31" y1="720.05" x2="1054.37" y2="720.05" xlink:href="#linear-gradient"/><filter id="luminosity-noclip-6" x="834.82" y="-8708" width="142.99" height="32766" filterUnits="userSpaceOnUse" color-interpolation-filters="sRGB"><feFlood flood-color="#fff" result="bg"/><feBlend in="SourceGraphic" in2="bg"/></filter><mask id="mask-6" x="834.82" y="-8708" width="142.99" height="32766" maskUnits="userSpaceOnUse"><g class="cls-48"/></mask><linearGradient id="linear-gradient-6" x1="1222.85" y1="729.89" x2="1297.37" y2="729.89" xlink:href="#linear-gradient"/><filter id="luminosity-noclip-7" x="991.01" y="-8708" width="142.99" height="32766" filterUnits="userSpaceOnUse" color-interpolation-filters="sRGB"><feFlood flood-color="#fff" result="bg"/><feBlend in="SourceGraphic" in2="bg"/></filter><mask id="mask-7" x="991.01" y="-8708" width="142.99" height="32766" maskUnits="userSpaceOnUse"><g class="cls-47"/></mask><linearGradient id="linear-gradient-7" x1="1304.14" y1="736.72" x2="1378.66" y2="736.72" xlink:href="#linear-gradient"/><filter id="luminosity-noclip-8" x="707.66" y="713.89" width="142.99" height="9.58" filterUnits="userSpaceOnUse" color-interpolation-filters="sRGB"><feFlood flood-color="#fff" result="bg"/><feBlend in="SourceGraphic" in2="bg"/></filter><mask id="mask-8" x="707.66" y="713.89" width="142.99" height="9.58" maskUnits="userSpaceOnUse"><g class="cls-1"><path class="cls-2" d="M848.05,718.49c2.77-1,3.57-2.13,1.21-3.55-1.9-1.14-7.4-.53-9.92-.59-11.76-.28-23.53-.49-35.33-.45-23.73.07-47.52,1-71.14,2.72-3.51.26-28.91,1.26-24.75,5.61,2.11,2.21,12.21.81,15.93.79l24.45-.1,48.89-.19C801,722.72,837.86,722,848.05,718.49Z"/></g></mask><linearGradient id="linear-gradient-8" x1="1156.64" y1="726.44" x2="1231.16" y2="726.44" gradientTransform="matrix(1.92, -0.05, 0.03, 1, -1532.57, 57.83)" gradientUnits="userSpaceOnUse"><stop offset="0"/><stop offset="1"/></linearGradient><filter id="luminosity-noclip-9" x="516.55" y="713.42" width="142.99" height="9.58" filterUnits="userSpaceOnUse" color-interpolation-filters="sRGB"><feFlood flood-color="#fff" result="bg"/><feBlend in="SourceGraphic" in2="bg"/></filter><mask id="mask-9" x="516.55" y="713.42" width="142.99" height="9.58" maskUnits="userSpaceOnUse"><g class="cls-7"><path class="cls-8" d="M656.94,718c2.76-1,3.56-2.13,1.2-3.55-1.9-1.14-7.4-.53-9.91-.59-11.76-.28-23.53-.49-35.33-.45-23.74.07-47.52,1-71.15,2.72-3.5.26-28.9,1.26-24.75,5.61,2.12,2.21,12.21.8,15.94.79l24.44-.1,48.89-.19C609.9,722.25,646.75,721.55,656.94,718Z"/></g></mask><linearGradient id="linear-gradient-9" x1="1057.13" y1="720.54" x2="1131.66" y2="720.54" xlink:href="#linear-gradient-8"/><filter id="luminosity-noclip-10" x="397.9" y="717.75" width="113.31" height="7.59" filterUnits="userSpaceOnUse" color-interpolation-filters="sRGB"><feFlood flood-color="#fff" result="bg"/><feBlend in="SourceGraphic" in2="bg"/></filter><mask id="mask-10" x="397.9" y="717.75" width="113.31" height="7.59" maskUnits="userSpaceOnUse"><g class="cls-9"><path class="cls-10" d="M509.15,721.39c2.19-.76,2.83-1.68,1-2.81-1.51-.9-5.87-.42-7.86-.47-9.32-.22-18.65-.38-28-.35-18.8.06-37.65.78-56.38,2.16-2.77.2-22.9,1-19.61,4.44,1.67,1.75,9.68.64,12.63.62l19.37-.07,38.74-.16C471.88,724.74,501.08,724.19,509.15,721.39Z"/></g></mask><linearGradient id="linear-gradient-10" x1="995.31" y1="720.05" x2="1054.37" y2="720.05" xlink:href="#linear-gradient-8"/><filter id="luminosity-noclip-11" x="834.82" y="713.72" width="142.99" height="9.58" filterUnits="userSpaceOnUse" color-interpolation-filters="sRGB"><feFlood flood-color="#fff" result="bg"/><feBlend in="SourceGraphic" in2="bg"/></filter><mask id="mask-11" x="834.82" y="713.72" width="142.99" height="9.58" maskUnits="userSpaceOnUse"><g class="cls-11"><path class="cls-12" d="M975.22,718.32c2.76-1,3.56-2.13,1.2-3.55-1.9-1.14-7.4-.53-9.91-.59-11.76-.28-23.54-.49-35.34-.45-23.73.07-47.51,1-71.14,2.72-3.5.26-28.9,1.26-24.75,5.61,2.11,2.2,12.21.8,15.94.79l24.44-.1,48.89-.19C928.18,722.54,965,721.85,975.22,718.32Z"/></g></mask><linearGradient id="linear-gradient-11" x1="1222.85" y1="729.89" x2="1297.37" y2="729.89" xlink:href="#linear-gradient-8"/><filter id="luminosity-noclip-12" x="991.01" y="716.12" width="142.99" height="9.58" filterUnits="userSpaceOnUse" color-interpolation-filters="sRGB"><feFlood flood-color="#fff" result="bg"/><feBlend in="SourceGraphic" in2="bg"/></filter><mask id="mask-12" x="991.01" y="716.12" width="142.99" height="9.58" maskUnits="userSpaceOnUse"><g class="cls-13"><path class="cls-14" d="M1131.4,720.71c2.77-1,3.57-2.12,1.21-3.54-1.9-1.15-7.4-.54-9.92-.6-11.76-.27-23.53-.49-35.33-.45-23.73.08-47.52,1-71.14,2.73-3.51.26-28.91,1.26-24.75,5.6,2.11,2.21,12.21.81,15.93.79l24.45-.09,48.89-.2C1084.36,724.94,1121.21,724.24,1131.4,720.71Z"/></g></mask><linearGradient id="linear-gradient-12" x1="1304.14" y1="736.72" x2="1378.66" y2="736.72" xlink:href="#linear-gradient-8"/><filter id="luminosity-noclip-13" x="295.61" y="719.53" width="113.31" height="7.59" filterUnits="userSpaceOnUse" color-interpolation-filters="sRGB"><feFlood flood-color="#fff" result="bg"/><feBlend in="SourceGraphic" in2="bg"/></filter><mask id="mask-13" x="295.61" y="719.53" width="113.31" height="7.59" maskUnits="userSpaceOnUse"><g class="cls-3"><path class="cls-4" d="M406.87,723.17c2.19-.76,2.82-1.69.95-2.81-1.5-.91-5.86-.43-7.85-.47-9.32-.22-18.65-.39-28-.36-18.81.06-37.66.78-56.38,2.16-2.78.2-22.91,1-19.61,4.44,1.67,1.75,9.67.64,12.62.63l19.37-.08,38.75-.15C369.59,726.52,398.8,726,406.87,723.17Z"/></g></mask><linearGradient id="linear-gradient-13" x1="942.03" y1="718.92" x2="1001.09" y2="718.92" xlink:href="#linear-gradient-8"/><filter id="luminosity-noclip-14" x="96.39" y="718.43" width="142.99" height="9.58" filterUnits="userSpaceOnUse" color-interpolation-filters="sRGB"><feFlood flood-color="#fff" result="bg"/><feBlend in="SourceGraphic" in2="bg"/></filter><mask id="mask-14" x="96.39" y="718.43" width="142.99" height="9.58" maskUnits="userSpaceOnUse"><g class="cls-5"><path class="cls-6" d="M236.78,723c2.77-1,3.57-2.13,1.21-3.55-1.9-1.14-7.41-.53-9.92-.59-11.76-.27-23.53-.49-35.33-.45-23.73.08-47.52,1-71.14,2.73-3.51.25-28.91,1.26-24.75,5.6,2.11,2.21,12.21.81,15.93.79l24.45-.1,48.89-.19C189.74,727.25,226.59,726.55,236.78,723Z"/></g></mask><linearGradient id="linear-gradient-14" x1="838.29" y1="713.59" x2="912.81" y2="713.59" xlink:href="#linear-gradient-8"/></defs><g class="cls-15"><g id="Layer_2" data-name="Layer 2"><g id="Layer_1-2" data-name="Layer 1"><rect class="cls-16" width="1167.2" height="1033.1"/><rect class="cls-16" width="1167.2" height="1033.1"/><g class="cls-17"><path class="cls-18" d="M848.05,718.49c2.77-1,3.57-2.13,1.21-3.55-1.9-1.14-7.4-.53-9.92-.59-11.76-.28-23.53-.49-35.33-.45-23.73.07-47.52,1-71.14,2.72-3.51.26-28.91,1.26-24.75,5.61,2.11,2.21,12.21.81,15.93.79l24.45-.1,48.89-.19C801,722.72,837.86,722,848.05,718.49Z"/></g><g class="cls-19"><path class="cls-20" d="M656.94,718c2.76-1,3.56-2.13,1.2-3.55-1.9-1.14-7.4-.53-9.91-.59-11.76-.28-23.53-.49-35.33-.45-23.74.07-47.52,1-71.15,2.72-3.5.26-28.9,1.26-24.75,5.61,2.12,2.21,12.21.8,15.94.79l24.44-.1,48.89-.19C609.9,722.25,646.75,721.55,656.94,718Z"/></g><g class="cls-21"><path class="cls-22" d="M509.15,721.39c2.19-.76,2.83-1.68,1-2.81-1.51-.9-5.87-.42-7.86-.47-9.32-.22-18.65-.38-28-.35-18.8.06-37.65.78-56.38,2.16-2.77.2-22.9,1-19.61,4.44,1.67,1.75,9.68.64,12.63.62l19.37-.07,38.74-.16C471.88,724.74,501.08,724.19,509.15,721.39Z"/></g><path class="cls-23" d="M469.31,621c-1.45-26.56,1.6-53.65,1.33-80.37a53.17,53.17,0,0,0-4.53-27.41,4.15,4.15,0,0,0-1-1.51c-1.51-1.28-4.09-.6-6.1.08-19.22,6.55-41.92,5-59.44-4.23-3.46,4.35-4.46,9.7-5.31,14.86-1.38,8.35-2.9,16.69-3.27,25.07v0h0c-.08,1.8-.12,3.6-.08,5.41.24,10.45,2.68,20.75,4.59,31.06a121.12,121.12,0,0,1,2.44,20.3c.09,5.57-.86,10.66.65,16.12,3.72,13.44,3.73,28.08,5.3,41.81,1.68,14.7,3.34,29.4,4.72,44.13.05.58.11,1.17.16,1.76.9.19,14.6,2.8,14.6-.13l3.3-85.74c.46-12-.59-52.66,3.1-64.11l4.56.37c8.35,37.82,18.25,104.07,26.61,141.89.74,3.33,1.63,6.92,4.28,9.07s7.62,1.54,8.4-1.78C471.17,678.83,470.89,649.94,469.31,621Z"/><path class="cls-24" d="M444.77,362.43c0-9.77-8.52-17.7-19-17.7s-19,7.93-19,17.7a16.37,16.37,0,0,0,.7,4.71c0,.38,0,.77,0,1.18a49.87,49.87,0,0,0,.79,10.56c1.34,6.77,4.85,13.06,11.48,16.91a14.61,14.61,0,0,0,7.38,2.24,14.26,14.26,0,0,0,9.27-4.11c8.14-7.48,8.84-18.72,8.27-29.33A17.16,17.16,0,0,0,444.77,362.43Z"/><path class="cls-25" d="M471.42,529.17q-.09-27.43-.19-54.88c-.06-15.41-3.57-31.76-5.85-47-1.26-8.38-2.75-11.29-6.55-18.76-.54-1.06-.63-1.78-5.66-3.4-1.09-.35-3.69-1.83-5-1.6-6.57,1.11-13.26-1.38-19.83-.27-7,1.17-18.62-2.35-24,2.41-7.32,6.42-7.83,21.69-9,31.67-1.57,13.47-5.3,27.14-5.95,40.69-.58,11.9-.89,23.8-1.11,35.71-.12,6.21-2.38,27.79,3.19,31.94,3.26,2.43,12,3.42,21,3.72l1,0h.26c3.66.09,7.32.08,10.63,0,4.89-.11,9-.34,11.27-.55a233,233,0,0,0,31.09-5.45c1.82-.42,3.84-1,4.83-2.65C472.14,539.62,471.43,530.58,471.42,529.17Z"/><path class="cls-26" d="M414.59,721.23c-1.3,1.09.47,1.95,1.31,2a14.26,14.26,0,0,0,4.65-.3,2.85,2.85,0,0,0,1.13-.48,3.17,3.17,0,0,0,.62-.74c.49-.74,1.67-1.91,1.86-2.77a3.28,3.28,0,0,0-.61-2.05c-.71-1.38-1.92-2.79-1.86-4.43-3.34.37-6.54-.78-9.31.12-.24,1.16-1.11,2.12-.7,3-.27-.6-8.34,1.43-9.3,1.61a42.74,42.74,0,0,1-4.65.7c-1.21.11-3.55-.45-4.23.76a3.51,3.51,0,0,0-.36,1.43,2.81,2.81,0,0,0,.09,1.12,2.22,2.22,0,0,0,1.38,1.28C401.25,725,407.86,721.13,414.59,721.23Z"/><path class="cls-26" d="M470.52,719.57c1.26,1.17-.44,2.11-1.26,2.2a12.64,12.64,0,0,1-4.5-.31,2.77,2.77,0,0,1-1.1-.51,3.72,3.72,0,0,1-.6-.8c-.48-.8-1.62-2.06-1.81-3a3.77,3.77,0,0,1,.58-2.21c.68-1.49,1.85-4.17,1.78-5.93,3.24.38,7.92.39,10.61,1.36-.71,1.37-.51,2.16-.9,3.15.26-.65,8.07,1.51,9,1.71a40.57,40.57,0,0,0,4.5.74c1.18.11,3.44-.5,4.1.81a4,4,0,0,1,.36,1.54,3.29,3.29,0,0,1-.09,1.21,2.25,2.25,0,0,1-1.33,1.38C483.45,723.58,477,719.44,470.52,719.57Z"/><path class="cls-27" d="M453.84,350.57a10.93,10.93,0,0,0-1.53-2.43,15.82,15.82,0,0,0-4.13-8.61,4.52,4.52,0,0,0-4-1.3,14.51,14.51,0,0,0-5.25-1.15,18.36,18.36,0,0,0-6-2.42c-10.89-2.17-22.78,2.29-29,11.46-.92-3.86-8.2-4.45-8.82.12s.95,8.54,5.45,10.4c3.92,1.61,6.45.28,8.7-2l.28-.13c3.84-2.29,8.13-5,12.65-6.1,3.37,1.19,6.63,3.93,9.31,6.44a15.92,15.92,0,0,0,5.3,3.46,12.6,12.6,0,0,0,1,1.86,4.92,4.92,0,0,0,4.47,5.2,11.52,11.52,0,0,0,3.49-.24c-.08.3-.16.6-.22.87-.3,1.28-.61,5.68-2,6.36-3.15,1.49-2.75,6.22,0,7.83s7.23-.39,6.82-3.92c-.1-.89.67-2.62,1-3.46.42-1.23,1-2.3,1.34-3.59a19.94,19.94,0,0,0,.76-4c0-.54-.3-3.34-.08-3.62a3.16,3.16,0,0,0,.39-3.25c.1-.24.2-.48.28-.73A10.18,10.18,0,0,0,453.84,350.57Z"/><g class="cls-28"><path class="cls-29" d="M975.22,718.32c2.76-1,3.56-2.13,1.2-3.55-1.9-1.14-7.4-.53-9.91-.59-11.76-.28-23.54-.49-35.34-.45-23.73.07-47.51,1-71.14,2.72-3.5.26-28.9,1.26-24.75,5.61,2.11,2.2,12.21.8,15.94.79l24.44-.1,48.89-.19C928.18,722.54,965,721.85,975.22,718.32Z"/></g><path class="cls-27" d="M841.61,305a14.76,14.76,0,0,0,.1-4.69c-.21-1.51-1-3.27-2.52-3.45s-2.65,1.31-3.31,2.67c-3,6.26-3.42,13.41-3.77,20.35-1.45-.36-.67.56,5.66.07-.21-2.88,2.06-5.28,3.24-7.91,1.27-2.81,3.33-5.55,2.91-8.61h-1.23Z"/><path class="cls-23" d="M919.82,622.45c-1.45-26.56,1.6-53.65,1.34-80.37a53.26,53.26,0,0,0-4.54-27.41,4,4,0,0,0-1-1.51c-1.51-1.29-4.1-.6-6.1.08-19.22,6.55-41.92,5-59.45-4.24-3.46,4.36-4.45,9.71-5.31,14.87-1.38,8.35-2.89,16.68-3.26,25.07,0,0,0,0,0,0h0c-.08,1.8-.13,3.6-.09,5.41.25,10.45,2.69,20.75,4.6,31.05a123.37,123.37,0,0,1,2.44,20.3c.08,5.58-.86,10.67.65,16.13,3.71,13.43,3.72,28.07,5.29,41.8,1.69,14.71,3.35,29.41,4.72,44.13.06.59.11,1.18.17,1.76.89.2,14.6,2.81,14.6-.12l3.29-85.74c.47-12-.59-52.66,3.1-64.12l4.56.38C893.2,597.79,903.1,664,911.45,701.86c.74,3.33,1.63,6.92,4.29,9.07s7.61,1.54,8.4-1.78C921.69,680.25,921.41,651.36,919.82,622.45Z"/><path class="cls-27" d="M895.39,363.89c0-9.83-8.57-17.8-19.14-17.8s-19.13,8-19.13,17.8a16.86,16.86,0,0,0,.7,4.73c0,.38,0,.78,0,1.19a51,51,0,0,0,.8,10.61c1.35,6.81,4.87,13.14,11.54,17a14.8,14.8,0,0,0,7.42,2.25,14.29,14.29,0,0,0,9.32-4.14c8.19-7.52,8.89-18.82,8.31-29.49A15.47,15.47,0,0,0,895.39,363.89Z"/><path class="cls-30" d="M867.56,397.16a11.63,11.63,0,0,0,3.14,3.23,11.06,11.06,0,0,0,5.52,1.26,12,12,0,0,0,6.69-1.49,28.74,28.74,0,0,0,5.5-4.83c2.84-4.32,4.65-7.3,6.16-12.11a14,14,0,0,0,.82-4.5,1.3,1.3,0,0,0-1.52.64,3.58,3.58,0,0,0-.27,1.62c-.11,3-1.59,5.72-3.12,8.35-1.35,2.31-4.76,4.35-6.85,6.17a11.19,11.19,0,0,1-7.87,2.94,3,3,0,0,1-1.11-.25,2.71,2.71,0,0,1-1.21-1.83,3,3,0,0,0-1.15-1.88c-.68-.4-1.89,0-1.8.7,0,.47.6.81.61,1.28s-.77.87-1.35.72a2.94,2.94,0,0,1-1.39-1l-2.74-3.05c-.38-.43-.82-.78-1.38-.55A29,29,0,0,0,867.56,397.16Z"/><path class="cls-31" d="M872.05,709.81a76,76,0,0,0-16.44.62,63.75,63.75,0,0,1-13.6,6.78,11,11,0,0,0-3.92,2c-1,1-1.45,2.63-.48,3.66s2.34,1,3.66,1a178.76,178.76,0,0,0,30.24-2.28,3.23,3.23,0,0,0,1.67-.59,2.33,2.33,0,0,0,.63-1.15A11.49,11.49,0,0,0,872.05,709.81Z"/><path class="cls-31" d="M918.87,706.75a66.6,66.6,0,0,0-14.39,3.09,53.73,53.73,0,0,1-10.67,8.09,9.41,9.41,0,0,0-3.07,2.35,2.39,2.39,0,0,0,.29,3.31,4.69,4.69,0,0,0,3.44.32,156.76,156.76,0,0,0,26.24-6.7,2.76,2.76,0,0,0,1.35-.78,2.06,2.06,0,0,0,.33-1.11A10.69,10.69,0,0,0,918.87,706.75Z"/><path class="cls-25" d="M837.87,320.37c.42-2.68.49-6.17-1.59-6.94s-4.2,2.16-5.43,4.65l-8.06,16.47c-5.24,10.7-10.57,21.65-12.74,33.46-.88,4.81-1,10.35,1.79,13.47,1.75,1.94,4.31,2.53,6.77,2.89,12.26,1.79,11-12.08,12.74-22.95Q834.61,340.9,837.87,320.37Z"/><path class="cls-30" d="M844.08,549.2a15.88,15.88,0,0,0,4.3,0,14.93,14.93,0,0,0,7.61-3.13,19.32,19.32,0,0,0,4.24-5.24,39.31,39.31,0,0,0,4-9.54l-.93,0c-.47,1.62-1,3.24-1.57,4.83-1.42,3.88-4,8.51-8.07,10.85-3.44,2-7.61,1.61-11.63,1.44-.58,0-.73.83-.14.92H842a.55.55,0,0,1,.16-.36C842.59,548.71,843.62,549.13,844.08,549.2Z"/><path class="cls-30" d="M860.11,542a57.41,57.41,0,0,0,4.41-10.61h-.25a39.31,39.31,0,0,1-4,9.54,19.32,19.32,0,0,1-4.24,5.24,14.93,14.93,0,0,1-7.61,3.13,15.88,15.88,0,0,1-4.3,0c-.46-.07-1.49-.49-1.88-.2a.55.55,0,0,0-.16.36C849.18,550.32,856.81,548,860.11,542Z"/><path class="cls-25" d="M921.94,530.59q-.11-27.44-.2-54.87c0-15.41-3.56-31.76-5.85-47-1.26-8.38-2.74-11.29-6.54-18.76-.54-1.07-.63-1.78-5.67-3.4-1.09-.36-3.69-1.83-5-1.6-6.57,1.11-13.26-1.38-19.83-.27-7,1.17-18.61-2.35-24,2.41-7.33,6.42-7.84,21.69-9,31.67-1.57,13.47-5.3,27.14-6,40.69-.58,11.89-.89,23.8-1.11,35.71-.11,6.2-2.38,27.79,3.2,31.94,3.26,2.43,12,3.42,21,3.72l1,0h.26c3.66.1,7.31.09,10.62,0,4.89-.1,9-.34,11.27-.54a234.64,234.64,0,0,0,31.09-5.45c1.83-.42,3.84-1,4.84-2.65C922.65,541.05,921.94,532,921.94,530.59Z"/><path class="cls-25" d="M842.11,436c2.68,2.83,5.68,5.51,9.1,6.36A6.94,6.94,0,0,0,859.7,438c1.08-3.38-.29-7.36-1.79-10.78-3.82-8.75-8.6-16.93-13.35-25.07l-15-25.76c-1.52-2.61-3.16-5.33-5.54-6.72-4.16-2.44-13.34,1.11-13.84,6.72-.45,5,6.65,17.19,8.72,21.91C824.9,412.05,832.15,425.46,842.11,436Z"/><path class="cls-32" d="M876.06,407.25c.33-.42.68-.94.47-1.41a1.71,1.71,0,0,0-1-.72c-1.8-.73-3.63-1.4-5.49-2a2.46,2.46,0,0,0-1.86-.09,2,2,0,0,0-.67.65l-3.46,4.55a1.35,1.35,0,0,0-.37.79,1.41,1.41,0,0,0,.55.87,49.34,49.34,0,0,1,3.5,3.75c.78.94,1.69,3.16,3.23,2.18,1.18-.74,1.6-3,2.2-4.15A31.1,31.1,0,0,1,876.06,407.25Z"/><path class="cls-32" d="M882.31,413a15.87,15.87,0,0,0,.72,2.87.78.78,0,0,0,.24.33c.38.25.85-.15,1.09-.5a46.41,46.41,0,0,1,7.34-8,6,6,0,0,0,1.45-1.57,1.64,1.64,0,0,0-.18-1.93,3.09,3.09,0,0,0-1.33-.62l-3.16-.9a4.92,4.92,0,0,0-2-.29,4.57,4.57,0,0,0-1.67.66c-1.28.73-4.83,2.26-5,3.76-.08.85,1,2.14,1.38,2.93A18.35,18.35,0,0,1,882.31,413Z"/><path class="cls-25" d="M924.24,355.2q-8.57,34.19-18.78,68c-.79,2.63-1.59,5.32-1.34,8a7.94,7.94,0,0,0,4.57,6.66c3.29,1.38,7.37.06,9.88-2.28s3.77-5.49,4.9-8.56a208.06,208.06,0,0,0,12.24-87.29c-.23-3-.52-6.15.48-9,.53-1.54,1.33-3.41.07-4.56-1.47-1.36-4.94-1.32-6.1.06-1.5,1.81-1.13,7.48-1.56,9.79C927.4,342.46,925.84,348.84,924.24,355.2Z"/><path class="cls-27" d="M928.61,310.75a14.65,14.65,0,0,1,.43-4.66c.39-1.48,1.35-3.15,2.91-3.14s2.48,1.61,3,3c2.27,6.58,1.84,13.72,1.38,20.65,1.48-.18.6.64-5.63-.58.54-2.84-1.43-5.48-2.3-8.24-.93-2.93-2.66-5.9-1.9-8.88l1.23.12Z"/><path class="cls-30" d="M893.39,371.46c-2,.66-4,1.35-6,2a2.39,2.39,0,0,0-1.38-1.66,9.4,9.4,0,0,0-3.66-.28c-2.35,0-4.7,0-7.05,0a.59.59,0,0,0-.59.39l-1,0a.69.69,0,0,0-.7.66c0,.88,0,1.76,0,2.64-.44,0-.87-.07-1.27-.08-.92,0-1.84,0-2.76,0,0-.5-.06-1-.1-1.43s.07-.79.08-1.2a.68.68,0,0,0-.67-.67h-.16l-.12,0-6.32-.37c-1.47-.09-3.44-.6-4.82-.08-2,.74-1.7,3.32-1.46,5.43a3,3,0,0,0,.19,2.33,1.86,1.86,0,0,0,1.3.58,27.71,27.71,0,0,0,5,0c1.55,0,4.93.76,6.22-.44a4,4,0,0,0,.87-2.69h.09a.53.53,0,0,0,.45.46,14.27,14.27,0,0,0,3.63.26,3.44,3.44,0,0,0,2.2,2.41c1.65.63,3.88.14,5.63.23a6.41,6.41,0,0,0,2.76-.32c.71-.09,1.42-.2,2.13-.34a.58.58,0,0,0,.4-.33.62.62,0,0,0,.48-.42,14.46,14.46,0,0,0,.74-3.89c2.05-.69,4.13-1.32,6.2-1.95C894.52,372.46,894.17,371.21,893.39,371.46Zm-26.17,5.59a1.57,1.57,0,0,1-.15.32,35.59,35.59,0,0,1-6.08.42,3.79,3.79,0,0,1-2.32-.73v0l0-3.87h3.95l4.68.16c.06.63.13,1.37.13,2.07S867.32,376.5,867.22,377.05ZM885,375.74a3.29,3.29,0,0,1-1.66,2.6,24.25,24.25,0,0,1-5.32.11c-1.48-.13-2-.13-2.12-1.65,0-.25,0-.52,0-.78a.76.76,0,0,0,0-.61c0-.65,0-1.3.08-1.94,2.89,0,5.78,0,8.67,0a1.23,1.23,0,0,1,.44.57c0,.46,0,.92,0,1.39C885,375.56,885,375.64,885,375.74Z"/><path class="cls-26" d="M729.11,721.42c-1.23,1,.44,1.85,1.24,1.92a13.56,13.56,0,0,0,4.4-.28,2.75,2.75,0,0,0,1.07-.45,3.28,3.28,0,0,0,.58-.7c.47-.7,1.58-1.81,1.76-2.63a3.09,3.09,0,0,0-.57-1.93c-.67-1.31-1.82-2.64-1.76-4.19-3.16.35-6.19-.74-8.81.11-.22,1.1-1,2-.66,2.86-.26-.56-7.89,1.36-8.79,1.53a41,41,0,0,1-4.4.66c-1.15.1-3.36-.43-4,.72a3.33,3.33,0,0,0-.34,1.35,2.7,2.7,0,0,0,.09,1.06,2.1,2.1,0,0,0,1.31,1.21C716.49,725,722.74,721.33,729.11,721.42Z"/><path class="cls-23" d="M732,576.14l-21.58-.57c-.45-.93,1.42-.13,1.4.9a474,474,0,0,0,8.67,97.14c2.68,13.77,6,27.56,6.05,41.59h8.85q1.5-65.85,3-131.7c0-2.22,0-4.77-1.76-6.18C735.43,576.27,733.67,576.18,732,576.14Z"/><path class="cls-23" d="M792.88,708.79a18,18,0,0,0,11.06-4q-10.52-18.57-21.05-37.14a78.81,78.81,0,0,1-6-12.08,57.06,57.06,0,0,1-3.33-16.23c-3-60.64-3-60.64,1.51-73.7.59-1.7,11.61-7.94,0,0-4.27,2.92-20.43.52-25.54,1.27a5,5,0,0,0-3.09,1.24c-.86,1,.42,4.36-.7,3.7-9.11-5.36-3,1.94-1.66,18.8.48,5.93,6.73,43.71,8.51,49.38,3.15,10,7.41,20.4,13.81,28.74C776.29,681.63,782.88,693.46,792.88,708.79Z"/><path class="cls-33" d="M785.64,490.3c-1.67-23.17-5.78-47.11-18.8-66.86-9.35-14.19-22.22-30.68-40.27-15.84-1.63,1.34-12.83-3.71-13.93-2a6.48,6.48,0,0,0-7.65,3.24c-6.12,10.74-8.32,22.61-9.3,34.8-1.12,14-1.46,28.08-1.88,42.1q-.3,9.76-.46,19.51c-2.51,17.39-3.76,34.87-.91,52.36a6.31,6.31,0,0,0,.84,2.28q.09,6.58.24,13.17c.06,2.8,2.16,6.5,5.27,6.92a230.43,230.43,0,0,0,82.07-3.31c3.18-.72,5.12-3.87,5.27-6.93A657.81,657.81,0,0,0,785.64,490.3Z"/><path class="cls-24" d="M646.54,331.76c.45-3,1.68-6.25.45-9.07l-1.2.32c-.2.6-.4,1.21-.61,1.82a14.62,14.62,0,0,0-1.17-4.54c-.62-1.4-1.84-2.89-3.37-2.64s-2.2,2-2.46,3.48c-1.19,6.85.38,13.83,1.94,20.6a23.55,23.55,0,0,0,7.29-1.44A17.56,17.56,0,0,1,646.54,331.76Z"/><path class="cls-33" d="M703.48,444c11.54,4.29,23.13-28.43,8.6-33.44-13.17-4.54-34.34-3.11-46.52-10.93a24.85,24.85,0,0,1-11.12-16.9q-4-21.9-6.9-43.94l-9.49.54q.09,27.66.19,55.34c0,3.55,0,7.24,1.37,10.59a24.09,24.09,0,0,0,6,8.14C661.58,428.78,685.17,437.19,703.48,444Z"/><path class="cls-25" d="M652.94,378.39a61,61,0,0,0-14.22,1.91.68.68,0,0,0,.35,1.32,91.25,91.25,0,0,1,13.86-2.17A.53.53,0,0,0,652.94,378.39Z"/><path class="cls-25" d="M674.75,429.53c-1.68-6.27-2.23-17.52,3.19-22.43.53-.48-.23-1.15-.77-.75-6.34,4.81-5.5,16.95-4.23,23.65C673.15,431.15,675.06,430.68,674.75,429.53Z"/><path class="cls-25" d="M653.65,382.74c-2-.4-4,.09-5.9.43-2.82.49-5.62,1.13-8.4,1.82a1,1,0,0,0,.51,1.91c2.09-.51,4.17-1,6.27-1.49,2.37-.53,4.9-1.42,7.34-1.48C654.16,383.91,654.36,382.88,653.65,382.74Z"/><path class="cls-25" d="M682.89,431.68c-1.85-7.79-3-15,1.3-22.28a.89.89,0,0,0-1.4-1c-6.14,6.62-4.18,16.11-2.35,24C680.8,433.86,683.26,433.23,682.89,431.68Z"/><path class="cls-24" d="M734.69,393.63a20.34,20.34,0,0,0,2.44-10.42c-.1-7.63-1-15.45-4.51-22.1-4-7.67-13.26-14.79-22.13-11.89-10.39,3.39-8.66,17.63-7.25,27.06,1.13,7.5,4.26,14.92,10,19.53C721.7,402.7,730.53,400.86,734.69,393.63Z"/><path class="cls-26" d="M799.9,714.65c-.77,1.55,1.24,1.63,2.06,1.35a14.65,14.65,0,0,0,4.22-2.2,2.84,2.84,0,0,0,.85-.91,2.81,2.81,0,0,0,.27-.95c.16-.89.78-2.48.59-3.36-.15-.72-.83-1.19-1.41-1.66-1.23-1-3.38-2.8-4-4.35-3,1.72-7.48,3.74-9.69,5.72,1.21.89,1.33,1.65,2.08,2.34-.5-.45-7.19,4.78-8,5.35-1.31.91-2.65,1.79-4.05,2.57-1.1.6-3.51,1-3.64,2.45a3.47,3.47,0,0,0,.25,1.49,2.88,2.88,0,0,0,.55,1,2.28,2.28,0,0,0,1.82.63C789,723.66,793.57,717.34,799.9,714.65Z"/><path class="cls-25" d="M756.43,427.4c-.46-1-.93-2-1.4-3.07-18.7,3.64-37.38,6.85-56.33,8.42-.11,1-.24,2.05-.35,3.08A431.08,431.08,0,0,0,756.43,427.4Z"/><path class="cls-25" d="M696.19,492.51c0,1,.07,2,.1,3a565.62,565.62,0,0,0,77.45-10.94c-.24-1.26-.47-2.53-.72-3.79C747.72,486.06,722.21,490.33,696.19,492.51Z"/><path class="cls-25" d="M701.56,550.54c.11.72.22,1.45.34,2.17,5.57-.67,11.08-1.43,16.49-2.17a538.23,538.23,0,0,0,61.15-12l-.15-3.11c-15.72,4.06-31.68,7.57-48.09,10.42C721.92,547.48,711.84,549.24,701.56,550.54Z"/><path class="cls-25" d="M696.5,501.51c0,.47.06.94.08,1.41a679.52,679.52,0,0,0,78.52-10.48l-.3-1.77c-20.21,3.51-40.39,7-61.07,9.26C708,500.56,702.26,501.07,696.5,501.51Z"/><path class="cls-25" d="M697.91,440.58c0,.49-.09,1-.13,1.48,20.7-1.69,41.3-4.59,61.43-8.13-.25-.6-.48-1.2-.72-1.79-16.7,2.86-33.43,5.56-50.51,7.44C704.63,439.94,701.27,440.28,697.91,440.58Z"/><path class="cls-25" d="M703.41,561.33a317.82,317.82,0,0,0,76.47-13.92c0-.52,0-1,0-1.57a332,332,0,0,1-76.74,13.75C703.19,560.17,703.3,560.75,703.41,561.33Z"/><path class="cls-24" d="M669.23,496.3a11,11,0,0,0-3.28,1.59,3.77,3.77,0,0,0-1.57,3.15,2.32,2.32,0,0,0,2.47,2.14,1.17,1.17,0,0,0,.19,1c2.49.71,5-.85,7.25-2.08a33.35,33.35,0,0,1,5.51-2.33c1.61-.51,3.42-1,4.27-2.47a4.45,4.45,0,0,0,.17-3.58,24.76,24.76,0,0,0-1.61-3.32l-9,1.67a3.17,3.17,0,0,0-1.39.49,1.09,1.09,0,0,0-.35,1.32,2.69,2.69,0,0,1,1.71.86Z"/><path class="cls-33" d="M760.55,429.51C758.2,419,744.66,416.77,742,430c-2.39,12-3.19,24.26-8.61,35.83a22.42,22.42,0,0,1-13.6,11.84Q700.9,484,681.73,489.4l1.65,8.17,49-7.4c3.15-.47,6.41-1,9.21-2.57a21.5,21.5,0,0,0,6.47-6.3C759.72,465.49,764.33,446.37,760.55,429.51Z"/><path class="cls-25" d="M716.14,479.56a52,52,0,0,0,3.45,12.08.61.61,0,0,0,1.12-.48,79,79,0,0,1-3.63-11.72C716.93,478.86,716.06,478.94,716.14,479.56Z"/><path class="cls-25" d="M758.76,454c-5.35,2.28-15.25,4.23-20.27.17-.49-.4-1,.35-.57.76,5,4.88,15.7,2.56,21.48.59C760.39,455.16,759.74,453.57,758.76,454Z"/><path class="cls-25" d="M719.9,478.38a13.75,13.75,0,0,0,1.11,5.06c.79,2.38,1.7,4.72,2.66,7a.89.89,0,0,0,1.63-.7c-.71-1.74-1.42-3.48-2.09-5.23-.77-2-1.88-4.07-2.23-6.17C720.88,477.79,719.94,477.74,719.9,478.38Z"/><path class="cls-25" d="M759.66,446.65c-6.68,2.62-12.95,4.59-19.9,1.79-.81-.33-1.51.84-.76,1.34,6.62,4.46,14.79,1.52,21.52-1.09C761.85,448.17,761,446.13,759.66,446.65Z"/><path class="cls-34" d="M764.1,362.07a7.29,7.29,0,0,0-6.07-3.69c0-.13.05-.25.07-.38,3-2.53,4.14-7.17.57-11.22a9.72,9.72,0,0,0-3.08-2.4,53.91,53.91,0,0,0-11.17-6.5,7.73,7.73,0,0,0-1-.34,15.59,15.59,0,0,0-13.38-12.94,19.47,19.47,0,0,0-5.55,0c-7.51-3.74-16.19-.09-20.6,6.45-.34.17-.68.35-1,.57a10.82,10.82,0,0,0-4.66,7.09l-.32.06c-6.54,1.69-10.75,8.49-8.68,15,1,3.19,4,5.89,7.56,5.75l5-.19a7.71,7.71,0,0,0,4.73-1.95c.35.16.7.32,1.06.45a13.44,13.44,0,0,0,3.7.82,11.6,11.6,0,0,0,4.65,3.92,17.7,17.7,0,0,0,12.5,1,11.62,11.62,0,0,0,1.05.91,10,10,0,0,0,1.8,1.08,17.08,17.08,0,0,0-1.68,3.27c-1.58,4.12,1.8,8.39,5.48,9.64a8.79,8.79,0,0,0,2.23.47c-1.57,4.1.45,9.73,5.12,10.71,6,1.26,11.78-.48,15.63-5.36,2.68-3.38,3.14-6.78,3.47-10.51C765.08,371,767,366.82,764.1,362.07Z"/><path class="cls-35" d="M689.26,290.28a63.25,63.25,0,0,1-3.59,7c-.57.93.78,1.69,1.42.86,1.59-2.07,3.24-4.14,4.66-6.34C692.8,290.19,690,288.61,689.26,290.28Z"/><path class="cls-35" d="M665.31,296.65a13.14,13.14,0,0,0,2.93,1.75,12.54,12.54,0,0,0,3.4,1.54c.59.09,1.37-.5.92-1.15a11.16,11.16,0,0,0-2.66-2.27,15.43,15.43,0,0,0-3.23-2.1A1.36,1.36,0,0,0,665.31,296.65Z"/><path class="cls-35" d="M675.15,288.22a19.32,19.32,0,0,0,.92,4.17,10,10,0,0,0,1.41,3.5.8.8,0,0,0,1.34-.32,8.84,8.84,0,0,0-.1-3.28,21,21,0,0,0-.84-4.39C677.38,286.55,675,286.54,675.15,288.22Z"/><path class="cls-33" d="M537.25,614.42c1.23-27.23-1.35-55-1.13-82.42A64.79,64.79,0,0,1,540,503.9a4.27,4.27,0,0,1,.85-1.55c1.28-1.32,3.47-.61,5.16.09a55.51,55.51,0,0,0,50.39-4.35c2.93,4.47,3.77,10,4.5,15.25,1.17,8.56,2.45,17.1,2.76,25.7a.09.09,0,0,0,0,.05h0c.07,1.85.11,3.7.07,5.55-.2,10.72-2.27,21.28-3.89,31.84a151.67,151.67,0,0,0-2.07,20.82c-.07,5.71.73,10.94-.55,16.53-3.15,13.78-3.16,28.79-4.49,42.87-1.42,15.08-2.83,30.16-4,45.26,0,.6-.09,1.2-.13,1.8-.76.2-12.38,2.88-12.38-.13l-2.79-87.92c-.39-12.33-.81-24.84-3.94-36.59l-3.86.38Q555,637.67,544.34,695.85c-.62,3.41-1.38,7.09-3.63,9.29s-6.45,1.59-7.12-1.81C535.67,673.69,535.91,644.07,537.25,614.42Z"/><path class="cls-36" d="M579.58,708.72a54.92,54.92,0,0,1,13.31.57,50,50,0,0,0,11,6.19,8.52,8.52,0,0,1,3.17,1.8,2.64,2.64,0,0,1,.4,3.34,3.8,3.8,0,0,1-3,.92,129,129,0,0,1-24.5-2.08,2.53,2.53,0,0,1-1.34-.54,2.36,2.36,0,0,1-.52-1A11.61,11.61,0,0,1,579.58,708.72Z"/><path class="cls-36" d="M542.92,708.29a54.22,54.22,0,0,0-13.26,1.36A49.88,49.88,0,0,1,519,716.49a8.42,8.42,0,0,0-3.06,2,2.63,2.63,0,0,0-.19,3.36,3.78,3.78,0,0,0,3,.75A129.71,129.71,0,0,0,543.13,719a2.48,2.48,0,0,0,1.31-.63,2.27,2.27,0,0,0,.45-1.07A11.59,11.59,0,0,0,542.92,708.29Z"/><path class="cls-24" d="M587.6,345.26a8.24,8.24,0,0,0-1.05-4.2c-1.27-1.86-3.76-2.35-6-2.6-9.55,0-19,.43-28.59.9a3.93,3.93,0,0,0-2.32.59,3.55,3.55,0,0,0-1.07,2.29c-.68,3.95.61,8.09.55,12.13a65.85,65.85,0,0,0,.83,12.39c1.4,7.95,5,15.35,12,19.87a14.2,14.2,0,0,0,7.69,2.63c3.7,0,7.09-2.17,9.66-4.83C588.83,374.52,588.54,359,587.6,345.26Z"/><path class="cls-24" d="M578.1,383.62c-1.79,3.93-6.22,5.08-10.82,3.78-2.49-.7-5.67-3-8.24-3.26,2,2.67,4.69,5.48,8,6.15a10.36,10.36,0,0,0,9.26-2.5C577.39,386.67,578.72,385.09,578.1,383.62Z"/><path class="cls-30" d="M586,329.71c-3.08-2.37-7-2.91-10.74-3.09-4.13-.19-8-1.16-12.18-.5-2.16.34-4.28,1-6.47,1.15a9,9,0,0,1-6.24-1.5c-.75-.59-1.45-1.38-2.4-1.42-1.32-.05-2.14,1.38-2.6,2.62A42,42,0,0,0,543,347.15c.77,5.44,4.73,11,6.83,16.12a1.33,1.33,0,0,0,.32.52.9.9,0,0,0,1.25-.34,2.62,2.62,0,0,0,.26-1.42,40.52,40.52,0,0,1,1.58-11.64c1.44-4.55,2.87-2.72,6.9-3,6.06-.41,12.62-5.33,18.64-2.24a15.82,15.82,0,0,1,4.85,4.59c2,2.56,4.16,5.44,4,8.71,2.86-1.45,3.52-5.17,3.77-8.37C592,342.76,591.81,334.19,586,329.71Z"/><path class="cls-23" d="M609,486.79l-1.35-12.26c-2.82-25.5-5.71-51.29-14.35-75.37-2.14-6-7.59-12.82-13.36-6.68a16.73,16.73,0,0,1-2.55,2.29c-5.76,4-13.49,3.56-19.79,1.2-5.51-2.06-8.84-9.93-15.63-7-6.4,2.79-9.29,14-10.16,20.34-1.59,11.68-2.28,23.72-3.51,35.5-2.18,21-4.37,42-5.23,63.11-.36,8.75-.5,17.57-2.34,26.12,4.65,1.22,9.54.87,14.35.86,11.26,0,22.46,1.74,33.7,2.49,9,.59,18.15.51,26.94-1.68,1.43-.36,18.26-4,18.16-4.81Q611.48,508.85,609,486.79Z"/><path class="cls-25" d="M613.12,526.06c.26,0,.35-.19.2-.45a92.38,92.38,0,0,1-4.05-8.55,494,494,0,0,0-6.22-54.74c-3.95-22.25-12.46-42.9-17.54-64.78-1.49-6.43-9.18-5.86-12-1.36l-.67.14a27.8,27.8,0,0,0-9.08-5.26c-4.07-1.47-8.32,2.33-8.31,6.34,0,4.26-.07,8.54-.17,12.82A651.83,651.83,0,0,0,542.52,516v.12q-.59,2.74-1.21,5.47a35.69,35.69,0,0,0-2,8.32c-.05.24-.11.48-.17.72a5.74,5.74,0,0,0,3.91,6.87,86.16,86.16,0,0,0,67.37-3.35,6.88,6.88,0,0,0,.81-.46l.56-.24,1-.76a5,5,0,0,0,1.35-2.82A5.16,5.16,0,0,0,613.12,526.06Z"/><path class="cls-24" d="M635.87,332.93a14.66,14.66,0,0,1,2.1-4.18c.9-1.24,2.41-2.44,3.86-1.87s1.72,2.41,1.66,3.92c-.29,6.95-3.29,13.44-6.25,19.73a23.65,23.65,0,0,1-6.82-3,17.51,17.51,0,0,0,2.65-8.15c.21-3.07-.32-6.46,1.48-9l1.1.56C635.72,331.66,635.79,332.3,635.87,332.93Z"/><path class="cls-23" d="M544.84,443.06c-8.85,6-5.82-28.53-6.25-32.77-.51-4.91-1.26-13.16,2.91-16.91,7.39-6.63,27.51,1.27,36.3,2.26A70.57,70.57,0,0,0,606.25,393a17.58,17.58,0,0,0,5.8-2.69c4.57-3.58,17.63-44.46,18.55-44.21l9.17,2.53c-2.77,12.63-5.46,25.28-8.33,37.88-2.21,9.72-2.62,21.06-9.62,28.82-4.45,4.93-10.91,7.56-17.36,9.11C587.33,428.57,560.07,432.8,544.84,443.06Z"/><path class="cls-35" d="M522.13,310.38a65.73,65.73,0,0,1,1.22,7.77c.08,1.09,1.62.91,1.65-.13.06-2.62.18-5.26,0-7.88C524.93,308.22,521.76,308.57,522.13,310.38Z"/><path class="cls-35" d="M506.52,329.64a13.47,13.47,0,0,0,3.4-.31,12.51,12.51,0,0,0,3.65-.77c.53-.27.82-1.21.07-1.46a11,11,0,0,0-3.49-.27,15.46,15.46,0,0,0-3.85.2A1.36,1.36,0,0,0,506.52,329.64Z"/><path class="cls-35" d="M509.5,317a20.52,20.52,0,0,0,3.2,2.83,10.13,10.13,0,0,0,3.2,2,.8.8,0,0,0,.89-1.05,8.66,8.66,0,0,0-2-2.59,21.43,21.43,0,0,0-3.26-3.06C510.32,314.36,508.42,315.73,509.5,317Z"/><g class="cls-37"><path class="cls-38" d="M1131.4,720.71c2.77-1,3.57-2.12,1.21-3.54-1.9-1.15-7.4-.54-9.92-.6-11.76-.27-23.53-.49-35.33-.45-23.73.08-47.52,1-71.14,2.73-3.51.26-28.91,1.26-24.75,5.6,2.11,2.21,12.21.81,15.93.79l24.45-.09,48.89-.2C1084.36,724.94,1121.21,724.24,1131.4,720.71Z"/></g><path class="cls-23" d="M969.9,486.38c-1-1-2.5-2.05-3.75-.82s-.87,3.51-.3,5.05q1.88,5.06,3.76,10.13c2.44,6.58,5,13.3,9.22,18.06,1.74,1.94,4.12,3.57,6.72,2.48,1.61-.68,3-2.29,4.21-3.9,6.11-8-.55-11-4.59-15.16Z"/><path class="cls-23" d="M994.64,470.82a18.87,18.87,0,0,0-1.67-8c-1.27-2.52-3.76-4.64-5.89-4.3-1.94.31-3,2.43-3.69,4.46a121.53,121.53,0,0,0-4.2,16.48q-1.85,8.91-3.68,17.81a12,12,0,0,0-.19,5.72c1,3.5,6.84,8.51,9.45,7.14,2.34-1.24,4.07-9.64,5.08-12.45C992.78,489.51,995,480.62,994.64,470.82Z"/><path class="cls-39" d="M1067.69,664.15a82.43,82.43,0,0,1-6.31-12.78c-2-5.51-2.75-11.36-3.52-17.16q-4.47-33.72-8.95-67.44a14,14,0,0,0-1.5-5.46c-2.82-4.69-9.56-4.47-15-3.68a8.71,8.71,0,0,0-2.11.53c-11,1.13-22,2-33,2.64a6.45,6.45,0,0,0-5.82,5.58c-.33-.1-.55,0-.36.38h.33a4.84,4.84,0,0,0,1.15,3.33,500.32,500.32,0,0,0,9.17,100.32c2.83,14.57,6.33,29.14,6.39,44l9.36,0q1.44-63.3,2.89-126.6a88,88,0,0,0,2.7,9.33c4.87,14.42,10.57,28.47,13.64,43.43a5.34,5.34,0,0,0,2.07,3.38,85.42,85.42,0,0,0,11.48,21.41c10.42,13.58,17.39,26.08,28,42.29a19.14,19.14,0,0,0,11.7-4.21Z"/><path class="cls-26" d="M1010.27,721.42c-1.3,1.09.46,2,1.31,2a14.26,14.26,0,0,0,4.65-.3,3,3,0,0,0,1.13-.47,3.4,3.4,0,0,0,.61-.75c.5-.74,1.68-1.91,1.86-2.77a3.21,3.21,0,0,0-.6-2c-.71-1.38-1.92-2.79-1.86-4.42-3.34.36-6.55-.79-9.32.11-.23,1.17-1.1,2.12-.69,3-.27-.6-8.34,1.43-9.3,1.62a45.73,45.73,0,0,1-4.65.69c-1.22.11-3.55-.45-4.23.76a3.22,3.22,0,0,0-.36,1.43,2.81,2.81,0,0,0,.09,1.12,2.19,2.19,0,0,0,1.38,1.28C996.92,725.17,1003.53,721.32,1010.27,721.42Z"/><path class="cls-26" d="M1084.43,713.19c-.8,1.64,1.32,1.73,2.19,1.44a15.7,15.7,0,0,0,4.46-2.33,3,3,0,0,0,.9-1,3.48,3.48,0,0,0,.29-1c.16-1,.81-2.63.62-3.56-.16-.76-.88-1.26-1.49-1.75-1.3-1-3.58-3-4.23-4.61-3.14,1.82-7.91,4-10.25,6.06,1.28.93,1.4,1.74,2.2,2.47-.53-.48-7.61,5-8.47,5.65a47.76,47.76,0,0,1-4.29,2.72c-1.15.63-3.7,1.1-3.84,2.6a3.5,3.5,0,0,0,.27,1.56,3,3,0,0,0,.57,1.07,2.45,2.45,0,0,0,1.93.66C1072.9,722.72,1077.74,716,1084.43,713.19Z"/><path class="cls-24" d="M1006.75,420.5a19.92,19.92,0,0,0,2.39-10.24c-.09-7.49-1-15.16-4.42-21.69-3.93-7.53-13-14.52-21.72-11.67-10.2,3.33-8.51,17.3-7.12,26.56,1.1,7.37,4.18,14.65,9.77,19.18C994,429.4,1002.67,427.6,1006.75,420.5Z"/><path class="cls-23" d="M1024.55,456.78c-4.91-13-17.46-30-26.23-23.56a11.34,11.34,0,0,0-3.49.32l-5,1.28c-9.47,2.44-9.84,11.67-4.66,16.39-.82,5.45-1.61,10.15-2.32,14.49a5,5,0,0,1,.26,2.9,140.82,140.82,0,0,0-2.37,17.15,71.28,71.28,0,0,1-.54,9.58c-.57,17,.6,34.08-.2,51.05-.23,4.84-.6,9.68-1,14.51,2.39,3.38,6.71,5.81,13.13,5.87q8.11.07,16.23.1c5.19.19,10.33.08,14.81,0h4.58a15.79,15.79,0,0,0,11-3.79c1.35.1,2.7.2,4,.32,8.38.74,14.79-6.6,15.12-13.07C1059.79,512.18,1038,492.45,1024.55,456.78Z"/><path class="cls-34" d="M1032.44,413.94c-1-3.28-4.32-5.42-6.11-8.29-3.65-5.82-4.06-12.19-4.31-19-.29-8-3.84-12.28-9.94-16.24-9.94-6.46-23.5-6.8-33.36,0l-.78.56a35.22,35.22,0,0,0-2.45,3.92,3.15,3.15,0,0,0-2.91,2.59c-.55,2.37-1.09,4.76-1.6,7.15a3.7,3.7,0,0,0-1.13,5.52c-2.63,13.7-3.85,27.61.34,41.24A3.76,3.76,0,0,0,973.7,434l3.09,1.1a3.18,3.18,0,0,0,3.45.09,46.07,46.07,0,0,0,4.11,5.65c2.64,3.12,8.15-1.05,5.72-4.41a73.65,73.65,0,0,1-7.67-13.28c-3-8.76-3.32-18.43-2.74-27.95a77,77,0,0,0,23.63-4.91c-.09,1-.26,2-.4,2.94-.85,5.37-1.7,6.12-.1,11.17,3.25,10.24-.6,20.43,8.83,26.83,6.91,4.69,15.08,3.33,19.06-5.42C1032,423,1033.38,417.19,1032.44,413.94Z"/><path class="cls-23" d="M1036.23,379.61q-12.07,33.11-25.72,65.71c-1.06,2.53-2.14,5.12-2.16,7.85a7.9,7.9,0,0,0,3.85,7.09c3.13,1.71,7.33.83,10.06-1.24s4.32-5.07,5.76-8a208,208,0,0,0,21.21-85.56c.08-3,.12-6.16,1.42-8.95.68-1.47,1.67-3.25.54-4.53-1.32-1.5-4.78-1.82-6.07-.56-1.69,1.64-1.9,7.31-2.57,9.57C1040.69,367.26,1038.48,373.44,1036.23,379.61Z"/><path class="cls-24" d="M1051.72,337.39a7.31,7.31,0,0,0-5.86-4.49c-2.86-.34-5.25,1.11-5.16,4.13a13.78,13.78,0,0,0,.88,4.39,26.52,26.52,0,0,0,2.3,3.77c0,.42,0,.85-.07,1.28a2.12,2.12,0,0,0,2.12,2.12l3-.14a2,2,0,0,0,1.79-1C1052,344.27,1053.06,340.74,1051.72,337.39Z"/><path class="cls-24" d="M966.15,487.3a2.1,2.1,0,0,0,.25-2.55l-.49-.83a1.6,1.6,0,0,0-.35-1.75c-.29-.31-.61-.66-.94-1.05a3.19,3.19,0,0,1,.46-1.36c1-1.54,3.1-1.87,4-3.62a5.79,5.79,0,0,0-3.07-8c-3.33-1.15-6.56,1.34-7.73,4.36l0,.09a6.34,6.34,0,0,0-.68,2c-.81,4.93,1.52,10.21,4.5,14A2.3,2.3,0,0,0,966.15,487.3Z"/><path class="cls-35" d="M970.44,336.84a63.75,63.75,0,0,1,1.23,7.77c.08,1.09,1.62.91,1.64-.13.07-2.62.18-5.26,0-7.88C973.25,334.68,970.08,335,970.44,336.84Z"/><path class="cls-35" d="M954.84,356.1a13.39,13.39,0,0,0,3.39-.31,12.51,12.51,0,0,0,3.66-.77c.53-.27.81-1.21.06-1.46a10.94,10.94,0,0,0-3.48-.27,15.46,15.46,0,0,0-3.85.2A1.36,1.36,0,0,0,954.84,356.1Z"/><path class="cls-35" d="M957.82,343.49a20.07,20.07,0,0,0,3.2,2.83,10,10,0,0,0,3.2,2,.8.8,0,0,0,.89-1.05,8.7,8.7,0,0,0-2-2.59,20.53,20.53,0,0,0-3.26-3.06C958.64,340.82,956.74,342.19,957.82,343.49Z"/><g class="cls-40"><path class="cls-41" d="M406.87,723.17c2.19-.76,2.82-1.69.95-2.81-1.5-.91-5.86-.43-7.85-.47-9.32-.22-18.65-.39-28-.36-18.81.06-37.66.78-56.38,2.16-2.78.2-22.91,1-19.61,4.44,1.67,1.75,9.67.64,12.62.63l19.37-.08,38.75-.15C369.59,726.52,398.8,726,406.87,723.17Z"/></g><path class="cls-30" d="M369.06,719.82a8.09,8.09,0,0,0-3-1.67,46.16,46.16,0,0,1-10.25-5.76,50.39,50.39,0,0,0-12.39-.52,10.75,10.75,0,0,0-1.32,8.51,2.05,2.05,0,0,0,.47,1,2.43,2.43,0,0,0,1.26.51,120.87,120.87,0,0,0,22.79,1.93,3.49,3.49,0,0,0,2.76-.86A2.45,2.45,0,0,0,369.06,719.82Z"/><path class="cls-30" d="M327.84,719.52a7.83,7.83,0,0,0-3-1.48,45.14,45.14,0,0,1-10.3-5.1,49.73,49.73,0,0,0-12.13.12,10.58,10.58,0,0,0-.86,8.38,2,2,0,0,0,.52.93,2.23,2.23,0,0,0,1.25.42,116.76,116.76,0,0,0,22.35.73,3.45,3.45,0,0,0,2.66-1A2.42,2.42,0,0,0,327.84,719.52Z"/><path class="cls-24" d="M368.31,545.74h0a.09.09,0,0,0,0,0c-.28-8.68-1.47-17.31-2.55-26-.66-5.35-1.44-10.88-4.15-15.39a47.36,47.36,0,0,1-46.46,4.39c-1.57-.71-3.58-1.42-4.77-.09a4.47,4.47,0,0,0-.77,1.56,71.34,71.34,0,0,0-3.55,28.38c-.2,27.66,2.18,55.7,1,83.2-1.23,29.93-1.45,59.83-3.37,89.75.61,3.43,6.62,4.43,8.69,2.21s.65-6.32,1.23-9.77l19.59-117.44,3.56-.39c2.89,11.86,3.27,24.49,3.63,36.94L343,711.84c0,3,10.71.34,11.41.13,0-.6.08-1.21.13-1.82,1.07-15.24,2.37-30.46,3.69-45.68,1.22-14.21,1.23-29.37,4.14-43.28,1.17-5.65.44-10.92.5-16.69a166,166,0,0,1,1.91-21c1.49-10.67,3.4-21.33,3.59-32.15C368.4,549.47,368.37,547.6,368.31,545.74Z"/><path class="cls-24" d="M337.46,393.22c-.41-6.31-3.14-12.2-5.93-17.87-2.25-4.58-4.69-9.27-8.74-12.37a5.49,5.49,0,0,0-2.72-1.26,6.42,6.42,0,0,0-2.54.46c-7.79,2.53-15.69,5.12-22.53,9.63a2.9,2.9,0,0,0-1.23,1.27,2.93,2.93,0,0,0,0,1.58c3.16,15.79,10,36.65,25.81,40.55,7.67-3.71,6.3-.86,14.26-3.9C331.73,407.15,337.76,397.88,337.46,393.22Z"/><path class="cls-42" d="M356.07,406.27c-1.79-2.1-4.44-3.25-5.54-5.83A53.88,53.88,0,0,1,348,391a133.63,133.63,0,0,0-7.52-24.11,6.84,6.84,0,0,0-.41-.86,9.31,9.31,0,0,0-3.42-11.79,15.6,15.6,0,0,0-4.89-2,10.37,10.37,0,0,0-6-1.26l-.64.08c-16.21-1.76-41.41,2-40.19,14.92a3.84,3.84,0,0,0-1,1.89c-.34,2,.23,3.29,1.3,4a12.57,12.57,0,0,0-1.3,4.47,11.51,11.51,0,0,0-1.93,3.5c-1.9,5.5-.9,11.54.8,16.94,1.57,5,4.28,9.53,4.38,14.86.11,5.89-3.91,6.67-8.95,7.93-9.95,2.5-15.56,8.24-15.74,18.95a22.92,22.92,0,0,0,4.32,14.2c3,3.84,8,8.54,12.51,10.44a8.37,8.37,0,0,0,5.86.22c8.45,1.43,17.27-.17,22.87-7.4a17,17,0,0,0,1.85-3,14.15,14.15,0,0,0,4.53-8.2,12.55,12.55,0,0,0-11.07-14.93,10.68,10.68,0,0,0-3.3-2.9c4.32-3.16,8.23-6.16,9.94-11.57,3.54-11.21-3-23.66-11.72-30.46-1-.74-.68-1.42-1.69-1.59-.07-.27-.15-.54-.2-.81,4.26-.87,3.19-6.6,1-10.09a11.07,11.07,0,0,1,4-3c1.71.09,3.44.32,4.61.49,3.17.45,6.21.81,9.43,1.06,4.09.32,8.43,1.43,12.65,1.53l.28.39a2,2,0,0,0,.71.64,101,101,0,0,1,5,14.12,82.06,82.06,0,0,1,1.8,10.3,5.81,5.81,0,0,0-3.17,5.2c-.38,6.12.63,12.8,3.8,18.12.8,1.33,2.14,2.56,2.76,4,.16.36.38.43.54.41a11.32,11.32,0,0,0-1.09.9c-2.07,1.9-3.8,3.31-4.35,6.26-2.42,13,14.12,16.16,21.31,7.81C362.69,432.46,363.1,414.5,356.07,406.27Z"/><path class="cls-39" d="M374.74,583.71c0-8-1.15-16-1.79-23.89s-1.2-15.92-2.05-23.86c-1.7-15.63-3.83-31.25-6.24-46.76C360.59,463.05,353,436.91,333.82,420c-5.55,1.41-11.41,1.65-17.32,1.67a7.34,7.34,0,0,0-.35,1.12c-9.08,40.31-12.74,81.5-19.54,122.26-.86,5.16-2.09,10.55-3.08,15.94-2,5.66-4.82,11.78-5.53,18a10,10,0,0,0-1.05,2.67c-2.34,3.1-2,8.23,2,10.1a5,5,0,0,0,2.6.45c.13,0,.24.13.38.18,14.06,5.19,29.28,8.59,44.15,8a8.61,8.61,0,0,0,2.52-.48c4.33.28,8.62.44,13,.55,5.46.14,12.84,1.43,17.75-1.48,2.94-1.74,3.88-5.48,3.42-8.88A10.66,10.66,0,0,0,374.74,583.71Z"/><path class="cls-43" d="M332.85,380.65c-3.46-1.07-8.09.24-10,3.49a.7.7,0,0,0-.06.17c-1.63.45-3.28,1-4.94,1.27a6.43,6.43,0,0,0-7.7-1.83,10,10,0,0,0-7.84,8.07c-.71,5.19,6.6,6.58,10.45,5.62,4.44-1.1,7.92-6.22,5.82-10.7l-.09-.14c1.6-.54,3.29-.89,4.91-1.32,1.47,5.17,11.48,8,13.48,2.12C338,384.37,335.64,381.51,332.85,380.65Zm-21.6,15.75c-4.08.42-9.2-1.71-7-6.5a9.19,9.19,0,0,1,4.28-4.36.61.61,0,0,0,1,.25c3-2.52,8.06-.83,8.36,3.29C318.16,393,314.92,396,311.25,396.4Zm24.44-9.66c-1.31,4.93-12.07,2.24-11.23-2.52,0,0,0,0,0,0a9,9,0,0,1,5.65-2.56C333,381.52,336.57,383.39,335.69,386.74Z"/><path class="cls-24" d="M334.29,464.16c-8.29,4.66-29.79,16.71-39.66,15.65a289.65,289.65,0,0,0,23.57-26.95c5.39-7,3.75-18.24,2.13-26.26-1.05-5.24-6.88-5-9.63-1.85a5.1,5.1,0,0,0-4.18,3.28c-9.38,21.48-27.24,40-31.49,63.57-.58,3.21.84,7.53,4.62,8.13,23.13,3.73,39.14-20.49,58.14-29.18C345.46,467.05,337.29,462.48,334.29,464.16Z"/><path class="cls-24" d="M369.84,467.84c-1.19-1.9-2-3.93-3.34-5.75a23.73,23.73,0,0,0-4.83-4.61c-1.62-1.22-3.31.68-3.1,2.27a25.93,25.93,0,0,0,1.41,5.56c-2.09-.7-4.18-1.43-6.21-2.28l-.5,0a5.21,5.21,0,0,1-4.1-2.24,7,7,0,0,0-5.32,1.56c-3.1,3,13.52,12.46,15.46,14.09a10,10,0,0,0,3.19,2.1c4.14,1.37,8.3-4.5,6.86-8.28A1.65,1.65,0,0,0,369.84,467.84Z"/><path class="cls-24" d="M342,450.91a5.82,5.82,0,0,0-3.18-4.24,1.82,1.82,0,0,0-2.51,1.4l-.39,8.19-.75-.45c-1.45-.86-2.91,1-2.44,2.34.8,2.32,2.3,3.63,3.69,5.54a1.66,1.66,0,0,0,2.25.63,1.85,1.85,0,0,0,2.77-.17,1.83,1.83,0,0,0,.41-1.49C343.05,458.67,344,454.48,342,450.91Z"/><path class="cls-24" d="M349.09,451.53a5.82,5.82,0,0,0-2.56-4.64,1.82,1.82,0,0,0-2.68,1L342.32,456c-.22-.19-.45-.37-.68-.55-1.31-1.05-3,.59-2.74,2,.48,2.41,1.78,3.91,2.9,6a1.67,1.67,0,0,0,2.14.94,1.84,1.84,0,0,0,2.76.2,1.79,1.79,0,0,0,.61-1.41C349.1,459.37,350.59,455.35,349.09,451.53Z"/><path class="cls-35" d="M362.88,331.09a64.58,64.58,0,0,1-7.39,2.69c-1.05.28-.58,1.76.45,1.59,2.58-.44,5.19-.83,7.73-1.48C365.54,333.42,364.59,330.38,362.88,331.09Z"/><path class="cls-35" d="M343.51,318.75a1.36,1.36,0,0,0-2.52.71,13.66,13.66,0,0,0,.95,3.28,12.34,12.34,0,0,0,1.46,3.44c.37.46,1.34.56,1.45-.22a11.14,11.14,0,0,0-.41-3.48A15.33,15.33,0,0,0,343.51,318.75Z"/><path class="cls-35" d="M353.94,320a19.52,19.52,0,0,0-2.17,3.69,10.09,10.09,0,0,0-1.35,3.52.8.8,0,0,0,1.21.67,8.66,8.66,0,0,0,2.15-2.47,21.26,21.26,0,0,0,2.38-3.78C356.71,320.26,355,318.66,353.94,320Z"/><g class="cls-44"><path class="cls-45" d="M236.78,723c2.77-1,3.57-2.13,1.21-3.55-1.9-1.14-7.41-.53-9.92-.59-11.76-.27-23.53-.49-35.33-.45-23.73.08-47.52,1-71.14,2.73-3.51.25-28.91,1.26-24.75,5.6,2.11,2.21,12.21.81,15.93.79l24.45-.1,48.89-.19C189.74,727.25,226.59,726.55,236.78,723Z"/></g><path class="cls-26" d="M218.23,717.87a3.29,3.29,0,0,0-.34-1.35c-.65-1.15-2.86-.62-4-.72a41,41,0,0,1-4.4-.66c-.9-.18-8.53-2.1-8.79-1.53.39-.86-.44-1.76-.66-2.86-2.62-.86-5.65.24-8.81-.11.06,1.54-1.09,2.88-1.75,4.18a3.07,3.07,0,0,0-.58,1.94c.18.81,1.29,1.92,1.76,2.62a3.1,3.1,0,0,0,.58.71,2.9,2.9,0,0,0,1.07.45,13.56,13.56,0,0,0,4.4.28c.8-.08,2.47-.89,1.24-1.92,6.37-.09,12.62,3.55,18.89,1.24a2.1,2.1,0,0,0,1.31-1.21A2.71,2.71,0,0,0,218.23,717.87Z"/><path class="cls-30" d="M226,572.64c0-1-9-.52-9.43.41l-21.58.57c-1.63,0-3.39.13-4.64,1.17-1.72,1.41-11,4.17-11,6.39,1,43.9,11.23,87.58,12.23,131.48l8.85,0c.06-14,7.85-27.74,10.53-41.52C217.22,639.2,226.48,605.2,226,572.64Z"/><path class="cls-30" d="M169.08,568a4.88,4.88,0,0,0-3.09-1.23c-5.11-.76-11.49-1-14.15,3.47-.93,1.54.17,6-1.42,5.16-46.25-24.67-5.64,42.53-8.47,63.79-.72,5.49-1.46,11-3.33,16.23a78.4,78.4,0,0,1-6,12.09L111.6,704.59a18.06,18.06,0,0,0,11.07,4c3.7-6.84,8.9-8.33,31.84-29.88,7.67-7.2,15.76-24,18.91-34,1.78-5.68,3.51-47.93,4-53.86,1.36-16.86,1.79-5.68,3.15-22.55C180.67,567,169.93,568.92,169.08,568Z"/><path class="cls-24" d="M93.82,328.9c.75-3,2.29-6,1.35-9l-1.22.2-.79,1.74a14.53,14.53,0,0,0-.72-4.62c-.47-1.46-1.54-3.06-3.09-3S87,316,86.56,317.49c-1.86,6.7-1,13.81-.11,20.7a23.58,23.58,0,0,0,7.39-.72A17.63,17.63,0,0,1,93.82,328.9Z"/><path class="cls-24" d="M139.37,446.23c11.06,5.42,25.84-26,11.87-32.42-12.66-5.82-33.86-6.5-45.21-15.48a24.86,24.86,0,0,1-9.39-17.92q-1.8-22.18-2.51-44.4l-9.51-.41-5.28,55.09c-.34,3.53-.67,7.21.32,10.67a23.74,23.74,0,0,0,5.2,8.7C99.19,426.93,121.83,437.64,139.37,446.23Z"/><path class="cls-26" d="M136.38,720.79c-.14-1.42-2.55-1.86-3.64-2.46a46.11,46.11,0,0,1-4.05-2.57c-.82-.57-7.51-5.8-8-5.35.75-.68.87-1.45,2.08-2.33-2.22-2-6.73-4-9.69-5.73-.62,1.55-2.78,3.36-4,4.35-.57.47-1.26.94-1.41,1.67s.44,2.46.59,3.36a3.38,3.38,0,0,0,.27.94,2.88,2.88,0,0,0,.86.91,14.4,14.4,0,0,0,4.22,2.2c.82.28,2.82.2,2.06-1.35,6.33,2.69,10.91,9,18.11,9.47a2.31,2.31,0,0,0,1.82-.62,3,3,0,0,0,.55-1A3.45,3.45,0,0,0,136.38,720.79Z"/><path class="cls-24" d="M270.93,340.85a1.2,1.2,0,0,0-1-.16,2.31,2.31,0,0,0-2.21-2.4,3.79,3.79,0,0,0-3.1,1.67,11,11,0,0,0-1.48,3.33l-1.42,4.45a2.7,2.7,0,0,1-.93-1.68,1.07,1.07,0,0,0-1.3.4,3.17,3.17,0,0,0-.45,1.4q-.67,4.5-1.37,9a24.71,24.71,0,0,0,3.37,1.5,4.43,4.43,0,0,0,3.57-.29c1.43-.89,1.87-2.72,2.33-4.35a32,32,0,0,1,2.15-5.58C270.23,345.85,271.71,343.31,270.93,340.85Z"/><path class="cls-24" d="M257.51,356q-4.77,19.32-10.46,38.44a22.43,22.43,0,0,1-11.4,14c-11.39,5.79-23.61,7-35.53,9.77-13.16,3.07-10.5,16.52.09,18.54,17,3.23,35.94-2,51.36-14.16a21.54,21.54,0,0,0,6.09-6.67c1.49-2.85,1.9-6.13,2.27-9.29q2.9-24.62,5.8-49.23Z"/><path class="cls-24" d="M152.75,359.85c-2.81,5-3.27,10.92-3.58,16.64-.38,7.1-.59,14.41,1.77,21.11,1.75,4.95,1.12,3.53,11.46,9.23,9.57-.37,0-.81,9.57-.37,34.75-8.08,19.64-29.62,15.94-47.35a3.34,3.34,0,0,0-.69-1.65,3.25,3.25,0,0,0-1.83-.76c-9.06-1.65-18.38-.83-27.55,0a7.32,7.32,0,0,0-2.83.64A6.14,6.14,0,0,0,152.75,359.85Z"/><path class="cls-34" d="M193.21,346.54c-1.81-1.17-3.2-.34-4.56.64a4.45,4.45,0,0,0-.66-.07,4.08,4.08,0,0,0-2.31.75,31.26,31.26,0,0,0-9.9-1.57c-1.34-1.26-2.71-2.42-4.59-2.64s-3.54.75-5.07,2.11c-2-3.35-5.31-5.2-9.25-2.11a6.53,6.53,0,0,0-1.83,2.09,16.75,16.75,0,0,0-1.4,1,6.35,6.35,0,0,0-2.89.49,5.55,5.55,0,0,0-3.38,6.54,6.71,6.71,0,0,0-.51,2.69c-.29.73-.55,1.48-.78,2.23a6.85,6.85,0,0,0-.66.66,5.27,5.27,0,0,0-1.83.89c-2,.93-2.84,3.44-2.59,5.85a4.46,4.46,0,0,0,.54,2.67,2.89,2.89,0,0,0,.68.74,4.37,4.37,0,0,0,2.84,1.86,17.68,17.68,0,0,0,.5,2.06A19.62,19.62,0,0,0,148.08,386a3.13,3.13,0,0,0,.15.32h0c.09.16.16.32.25.48,1.18,1.95,4.49,0,3.45-2.06-1.48-2.9-3.08-10.62,2.21-9.18,3.09.84,3.35,3.19,4.8,6.15a2,2,0,0,0,3.83-1.05,36.82,36.82,0,0,0-1.95-8.93l-.73-1.89a1.93,1.93,0,0,0,.58-.24c2.29-1.45,3.49-3.94,4.32-6.63l.18-.09c.11.26.22.53.35.81a1.88,1.88,0,0,0,3.2.38,18.25,18.25,0,0,0,2.06-3.71c1.66,1.09,3.63,1.18,4.69-.44,2,.57,3.95.17,6.42-.49,1.19-.31,2.67-.68,4.19-1.15.41.12.81.25,1.23.33a3,3,0,0,0,3.64-2.41,7.87,7.87,0,0,0,3.21-3.29C195.06,351,195.26,347.86,193.21,346.54Z"/><path class="cls-25" d="M236.14,422.21c3.92-6.45-1.77-18.35-12-13.11-2.43,1.24-6.28,1.13-9,1.76l-6.94,1.61a85.18,85.18,0,0,1-12.79-.18,8,8,0,0,0-3.34.32,18.55,18.55,0,0,0-1.28-1.51,85.51,85.51,0,0,1-43.67-2.36l-2.78-.06a83.17,83.17,0,0,1-9.22-.9c-1.57-.25-3.1-.52-4.61-.78-3-5.27-11-8.28-16-2.87-1,1.09-2,2.19-3,3.29a11.37,11.37,0,0,0-5.52,6.07c-1.68,1.86-3.38,3.7-5,5.56a9.51,9.51,0,0,0-.14,12.84,8.32,8.32,0,0,0,7.43,3.85,8.07,8.07,0,0,0,1.75,2.05c3.36,2.82,6.85,5,9.91,8.15,2.74,2.84,5.62,5.41,8.34,8.24a151.91,151.91,0,0,0-4.79,23.94c-.3,2.81-.5,5.65-.62,8.49-3.51,24.07-3,48.3-1.92,72.59a17.57,17.57,0,0,0-1.74,7c-6,3.8-6.81,14.75,1.94,16.46a222.59,222.59,0,0,0,30.28,4l.62,0a56.77,56.77,0,0,0,6.16,1.42c6.37,1.16,12.8,2.06,19.24,2.76a228.23,228.23,0,0,0,37.7.92c6.81-.38,13.14-5.61,12.91-12.91-1.32-42.65-6.68-85.44-13.54-127.52,5.45-3.93,10.74-8.14,15.9-12.38,5.27-2,8-7.66,5.54-12.6A12,12,0,0,0,236.14,422.21Z"/><path class="cls-46" d="M199,459.67c-.12-5.09-3.93-8.25-8.74-8.74-9.26-1-18.52-2-27.8-2.76a7.18,7.18,0,0,0-4.06.85c-5.15-2.42-12.37-.23-12.8,7.76-.85,15.65-2,30.68-4.09,46-.9,6.56,3.51,11.4,10.25,10.25,7.71-1.32,16.3.07,24,1,7.3.84,13.37,1,16.42-7C197.8,492.26,199.38,475.29,199,459.67Z"/></g></g></g></svg>