<svg xmlns="http://www.w3.org/2000/svg" xmlns:xlink="http://www.w3.org/1999/xlink" viewBox="0 0 624 309"><defs><style>.cls-1{mask:url(#mask);filter:url(#luminosity-noclip-8);}.cls-10,.cls-12,.cls-14,.cls-18,.cls-2,.cls-20,.cls-22,.cls-29,.cls-38,.cls-4,.cls-41,.cls-45,.cls-6,.cls-8{mix-blend-mode:multiply;}.cls-2{fill:url(#linear-gradient);}.cls-3{mask:url(#mask-2);filter:url(#luminosity-noclip-13);}.cls-4{fill:url(#linear-gradient-2);}.cls-5{mask:url(#mask-3);filter:url(#luminosity-noclip-14);}.cls-6{fill:url(#linear-gradient-3);}.cls-7{mask:url(#mask-4);filter:url(#luminosity-noclip-9);}.cls-8{fill:url(#linear-gradient-4);}.cls-9{mask:url(#mask-5);filter:url(#luminosity-noclip-10);}.cls-10{fill:url(#linear-gradient-5);}.cls-11{mask:url(#mask-6);filter:url(#luminosity-noclip-11);}.cls-12{fill:url(#linear-gradient-6);}.cls-13{mask:url(#mask-7);filter:url(#luminosity-noclip-12);}.cls-14{fill:url(#linear-gradient-7);}.cls-15{isolation:isolate;}.cls-16{fill:none;}.cls-17{mask:url(#mask-8);}.cls-18,.cls-20,.cls-22,.cls-29,.cls-38,.cls-41,.cls-45{opacity:0.22;}.cls-18{fill:url(#linear-gradient-8);}.cls-19{mask:url(#mask-9);}.cls-20{fill:url(#linear-gradient-9);}.cls-21{mask:url(#mask-10);}.cls-22{fill:url(#linear-gradient-10);}.cls-23{fill:#3a3837;}.cls-24{fill:#f4d19d;}.cls-25{fill:#d6dbe2;}.cls-26{fill:#131313;}.cls-27{fill:#5a4945;}.cls-28{mask:url(#mask-11);}.cls-29{fill:url(#linear-gradient-11);}.cls-30{fill:#303030;}.cls-31{fill:#3f2e26;}.cls-32{fill:#e8e8e8;}.cls-33{fill:#d09a3f;}.cls-34{fill:#976233;}.cls-35{fill:#666;}.cls-36{fill:#7a6356;}.cls-37{mask:url(#mask-12);}.cls-38{fill:url(#linear-gradient-12);}.cls-39{fill:#585553;}.cls-40{mask:url(#mask-13);}.cls-41{fill:url(#linear-gradient-13);}.cls-42{fill:#ddc68b;}.cls-43{fill:#3f3f3f;}.cls-44{mask:url(#mask-14);}.cls-45{fill:url(#linear-gradient-14);}.cls-46{fill:#fcfcfc;}.cls-47{filter:url(#luminosity-noclip-7);}.cls-48{filter:url(#luminosity-noclip-6);}.cls-49{filter:url(#luminosity-noclip-5);}.cls-50{filter:url(#luminosity-noclip-4);}.cls-51{filter:url(#luminosity-noclip-3);}.cls-52{filter:url(#luminosity-noclip-2);}.cls-53{filter:url(#luminosity-noclip);}</style><filter id="luminosity-noclip" x="369.25" y="-8217.89" width="54.14" height="32766" filterUnits="userSpaceOnUse" color-interpolation-filters="sRGB"><feFlood flood-color="#fff" result="bg"/><feBlend in="SourceGraphic" in2="bg"/></filter><mask id="mask" x="369.25" y="-8217.89" width="54.14" height="32766" maskUnits="userSpaceOnUse"><g class="cls-53"/></mask><linearGradient id="linear-gradient" x1="706.72" y1="247.51" x2="734.93" y2="247.51" gradientTransform="matrix(1.92, -0.05, 0.03, 1, -993.98, 26.46)" gradientUnits="userSpaceOnUse"><stop offset="0" stop-color="#fff"/><stop offset="1"/></linearGradient><filter id="luminosity-noclip-2" x="213.24" y="-8217.89" width="42.9" height="32766" filterUnits="userSpaceOnUse" color-interpolation-filters="sRGB"><feFlood flood-color="#fff" result="bg"/><feBlend in="SourceGraphic" in2="bg"/></filter><mask id="mask-2" x="213.24" y="-8217.89" width="42.9" height="32766" maskUnits="userSpaceOnUse"><g class="cls-52"/></mask><linearGradient id="linear-gradient-2" x1="625.47" y1="244.66" x2="647.83" y2="244.66" xlink:href="#linear-gradient"/><filter id="luminosity-noclip-3" x="137.82" y="-8217.89" width="54.14" height="32766" filterUnits="userSpaceOnUse" color-interpolation-filters="sRGB"><feFlood flood-color="#fff" result="bg"/><feBlend in="SourceGraphic" in2="bg"/></filter><mask id="mask-3" x="137.82" y="-8217.89" width="54.14" height="32766" maskUnits="userSpaceOnUse"><g class="cls-51"/></mask><linearGradient id="linear-gradient-3" x1="586.19" y1="242.64" x2="614.41" y2="242.64" xlink:href="#linear-gradient"/><filter id="luminosity-noclip-4" x="296.89" y="-8217.89" width="54.14" height="32766" filterUnits="userSpaceOnUse" color-interpolation-filters="sRGB"><feFlood flood-color="#fff" result="bg"/><feBlend in="SourceGraphic" in2="bg"/></filter><mask id="mask-4" x="296.89" y="-8217.89" width="54.14" height="32766" maskUnits="userSpaceOnUse"><g class="cls-50"/></mask><linearGradient id="linear-gradient-4" x1="669.05" y1="245.27" x2="697.26" y2="245.27" xlink:href="#linear-gradient"/><filter id="luminosity-noclip-5" x="251.97" y="-8217.89" width="42.9" height="32766" filterUnits="userSpaceOnUse" color-interpolation-filters="sRGB"><feFlood flood-color="#fff" result="bg"/><feBlend in="SourceGraphic" in2="bg"/></filter><mask id="mask-5" x="251.97" y="-8217.89" width="42.9" height="32766" maskUnits="userSpaceOnUse"><g class="cls-49"/></mask><linearGradient id="linear-gradient-5" x1="645.64" y1="245.09" x2="668" y2="245.09" xlink:href="#linear-gradient"/><filter id="luminosity-noclip-6" x="417.39" y="-8217.89" width="54.14" height="32766" filterUnits="userSpaceOnUse" color-interpolation-filters="sRGB"><feFlood flood-color="#fff" result="bg"/><feBlend in="SourceGraphic" in2="bg"/></filter><mask id="mask-6" x="417.39" y="-8217.89" width="54.14" height="32766" maskUnits="userSpaceOnUse"><g class="cls-48"/></mask><linearGradient id="linear-gradient-6" x1="731.79" y1="248.81" x2="760" y2="248.81" xlink:href="#linear-gradient"/><filter id="luminosity-noclip-7" x="476.53" y="-8217.89" width="54.14" height="32766" filterUnits="userSpaceOnUse" color-interpolation-filters="sRGB"><feFlood flood-color="#fff" result="bg"/><feBlend in="SourceGraphic" in2="bg"/></filter><mask id="mask-7" x="476.53" y="-8217.89" width="54.14" height="32766" maskUnits="userSpaceOnUse"><g class="cls-47"/></mask><linearGradient id="linear-gradient-7" x1="762.56" y1="251.4" x2="790.78" y2="251.4" xlink:href="#linear-gradient"/><filter id="luminosity-noclip-8" x="369.25" y="232.66" width="54.14" height="3.63" filterUnits="userSpaceOnUse" color-interpolation-filters="sRGB"><feFlood flood-color="#fff" result="bg"/><feBlend in="SourceGraphic" in2="bg"/></filter><mask id="mask-8" x="369.25" y="232.66" width="54.14" height="3.63" maskUnits="userSpaceOnUse"><g class="cls-1"><path class="cls-2" d="M422.4,234.4c1.05-.37,1.35-.81.46-1.35-.72-.43-2.81-.2-3.76-.22-4.45-.11-8.91-.19-13.37-.17-9,0-18,.37-26.94,1-1.33.1-10.94.48-9.37,2.12.8.84,4.62.31,6,.3l9.26,0,18.51-.08C404.59,236,418.54,235.73,422.4,234.4Z"/></g></mask><linearGradient id="linear-gradient-8" x1="706.72" y1="247.51" x2="734.93" y2="247.51" gradientTransform="matrix(1.92, -0.05, 0.03, 1, -993.98, 26.46)" gradientUnits="userSpaceOnUse"><stop offset="0"/><stop offset="1"/></linearGradient><filter id="luminosity-noclip-9" x="296.89" y="232.48" width="54.14" height="3.63" filterUnits="userSpaceOnUse" color-interpolation-filters="sRGB"><feFlood flood-color="#fff" result="bg"/><feBlend in="SourceGraphic" in2="bg"/></filter><mask id="mask-9" x="296.89" y="232.48" width="54.14" height="3.63" maskUnits="userSpaceOnUse"><g class="cls-7"><path class="cls-8" d="M350,234.22c1-.36,1.35-.81.46-1.34-.72-.44-2.8-.21-3.75-.23-4.46-.1-8.91-.18-13.38-.17-9,0-18,.37-26.94,1-1.32.1-10.94.48-9.37,2.12.8.84,4.63.31,6,.3l9.25,0,18.51-.08C332.23,235.82,346.19,235.56,350,234.22Z"/></g></mask><linearGradient id="linear-gradient-9" x1="669.05" y1="245.27" x2="697.26" y2="245.27" xlink:href="#linear-gradient-8"/><filter id="luminosity-noclip-10" x="251.97" y="234.12" width="42.9" height="2.87" filterUnits="userSpaceOnUse" color-interpolation-filters="sRGB"><feFlood flood-color="#fff" result="bg"/><feBlend in="SourceGraphic" in2="bg"/></filter><mask id="mask-10" x="251.97" y="234.12" width="42.9" height="2.87" maskUnits="userSpaceOnUse"><g class="cls-9"><path class="cls-10" d="M294.09,235.5c.83-.29,1.07-.64.36-1.07s-2.22-.16-3-.18c-3.53-.08-7.06-.14-10.6-.13-7.12,0-14.26.29-21.35.82-1,.07-8.67.37-7.42,1.68.63.66,3.66.24,4.78.24l7.33,0,14.67-.06C280,236.76,291,236.56,294.09,235.5Z"/></g></mask><linearGradient id="linear-gradient-10" x1="645.64" y1="245.09" x2="668" y2="245.09" xlink:href="#linear-gradient-8"/><filter id="luminosity-noclip-11" x="417.39" y="232.59" width="54.14" height="3.63" filterUnits="userSpaceOnUse" color-interpolation-filters="sRGB"><feFlood flood-color="#fff" result="bg"/><feBlend in="SourceGraphic" in2="bg"/></filter><mask id="mask-11" x="417.39" y="232.59" width="54.14" height="3.63" maskUnits="userSpaceOnUse"><g class="cls-11"><path class="cls-12" d="M470.55,234.33c1-.36,1.35-.8.45-1.34-.72-.43-2.8-.2-3.75-.23-4.45-.1-8.91-.18-13.38-.17-9,0-18,.38-26.93,1-1.33.09-10.95.47-9.37,2.12.8.83,4.62.3,6,.3l9.25,0,18.51-.07C452.74,235.93,466.69,235.67,470.55,234.33Z"/></g></mask><linearGradient id="linear-gradient-11" x1="731.79" y1="248.81" x2="760" y2="248.81" xlink:href="#linear-gradient-8"/><filter id="luminosity-noclip-12" x="476.53" y="233.5" width="54.14" height="3.63" filterUnits="userSpaceOnUse" color-interpolation-filters="sRGB"><feFlood flood-color="#fff" result="bg"/><feBlend in="SourceGraphic" in2="bg"/></filter><mask id="mask-12" x="476.53" y="233.5" width="54.14" height="3.63" maskUnits="userSpaceOnUse"><g class="cls-13"><path class="cls-14" d="M529.68,235.24c1.05-.37,1.35-.81.45-1.34-.71-.44-2.8-.21-3.75-.23-4.45-.1-8.91-.18-13.38-.17-9,0-18,.37-26.93,1-1.33.1-10.94.48-9.37,2.12.8.84,4.62.31,6,.3l9.26,0,18.51-.08C511.87,236.84,525.82,236.58,529.68,235.24Z"/></g></mask><linearGradient id="linear-gradient-12" x1="762.56" y1="251.4" x2="790.78" y2="251.4" xlink:href="#linear-gradient-8"/><filter id="luminosity-noclip-13" x="213.24" y="234.79" width="42.9" height="2.87" filterUnits="userSpaceOnUse" color-interpolation-filters="sRGB"><feFlood flood-color="#fff" result="bg"/><feBlend in="SourceGraphic" in2="bg"/></filter><mask id="mask-13" x="213.24" y="234.79" width="42.9" height="2.87" maskUnits="userSpaceOnUse"><g class="cls-3"><path class="cls-4" d="M255.37,236.17c.83-.29,1.07-.64.36-1.07s-2.22-.16-3-.17c-3.53-.09-7.06-.15-10.6-.14-7.12,0-14.25.3-21.34.82-1.05.08-8.67.38-7.43,1.68.64.66,3.66.24,4.78.24l7.34,0,14.67-.06C241.25,237.44,252.31,237.23,255.37,236.17Z"/></g></mask><linearGradient id="linear-gradient-13" x1="625.47" y1="244.66" x2="647.83" y2="244.66" xlink:href="#linear-gradient-8"/><filter id="luminosity-noclip-14" x="137.82" y="234.37" width="54.14" height="3.63" filterUnits="userSpaceOnUse" color-interpolation-filters="sRGB"><feFlood flood-color="#fff" result="bg"/><feBlend in="SourceGraphic" in2="bg"/></filter><mask id="mask-14" x="137.82" y="234.37" width="54.14" height="3.63" maskUnits="userSpaceOnUse"><g class="cls-5"><path class="cls-6" d="M191,236.11c1.05-.36,1.35-.8.46-1.34-.72-.43-2.81-.2-3.76-.23-4.45-.1-8.91-.18-13.37-.17-9,0-18,.38-26.94,1-1.33.09-10.94.47-9.37,2.12.8.83,4.62.3,6,.3l9.26,0,18.51-.07C173.16,237.71,187.11,237.45,191,236.11Z"/></g></mask><linearGradient id="linear-gradient-14" x1="586.19" y1="242.64" x2="614.41" y2="242.64" xlink:href="#linear-gradient-8"/></defs><g class="cls-15"><g id="Layer_2" data-name="Layer 2"><g id="Layer_1-2" data-name="Layer 1"><rect class="cls-16" width="624" height="309"/><g class="cls-17"><path class="cls-18" d="M422.4,234.4c1.05-.37,1.35-.81.46-1.35-.72-.43-2.81-.2-3.76-.22-4.45-.11-8.91-.19-13.37-.17-9,0-18,.37-26.94,1-1.33.1-10.94.48-9.37,2.12.8.84,4.62.31,6,.3l9.26,0,18.51-.08C404.59,236,418.54,235.73,422.4,234.4Z"/></g><g class="cls-19"><path class="cls-20" d="M350,234.22c1-.36,1.35-.81.46-1.34-.72-.44-2.8-.21-3.75-.23-4.46-.1-8.91-.18-13.38-.17-9,0-18,.37-26.94,1-1.32.1-10.94.48-9.37,2.12.8.84,4.63.31,6,.3l9.25,0,18.51-.08C332.23,235.82,346.19,235.56,350,234.22Z"/></g><g class="cls-21"><path class="cls-22" d="M294.09,235.5c.83-.29,1.07-.64.36-1.07s-2.22-.16-3-.18c-3.53-.08-7.06-.14-10.6-.13-7.12,0-14.26.29-21.35.82-1,.07-8.67.37-7.42,1.68.63.66,3.66.24,4.78.24l7.33,0,14.67-.06C280,236.76,291,236.56,294.09,235.5Z"/></g><path class="cls-23" d="M279,197.5c-.55-10.06.6-20.32.5-30.43a20.19,20.19,0,0,0-1.71-10.38,1.59,1.59,0,0,0-.38-.57c-.57-.49-1.55-.23-2.31,0a29.37,29.37,0,0,1-22.51-1.61,11.83,11.83,0,0,0-2,5.63,80.79,80.79,0,0,0-1.23,9.49v0h0c0,.68-.05,1.37,0,2a75.84,75.84,0,0,0,1.74,11.76,46.42,46.42,0,0,1,.93,7.68c0,2.11-.33,4,.24,6.11,1.41,5.09,1.41,10.63,2,15.83.64,5.56,1.26,11.13,1.79,16.7l.06.67c.34.08,5.52,1.06,5.52,0L262.86,198c.18-4.55-.22-19.93,1.18-24.27l1.72.14c3.17,14.32,6.91,39.4,10.08,53.72a5.79,5.79,0,0,0,1.62,3.43c1,.81,2.88.59,3.18-.67C279.71,219.38,279.61,208.44,279,197.5Z"/><path class="cls-24" d="M269.72,99.59a7.22,7.22,0,0,0-14.41,0,6.18,6.18,0,0,0,.26,1.78c0,.15,0,.3,0,.45a19.16,19.16,0,0,0,.3,4,9.19,9.19,0,0,0,4.34,6.4,5.54,5.54,0,0,0,2.8.85,5.41,5.41,0,0,0,3.51-1.56c3.08-2.83,3.35-7.09,3.13-11.1A7.36,7.36,0,0,0,269.72,99.59Z"/><path class="cls-25" d="M279.81,162.72q0-10.4-.08-20.78c0-5.83-1.35-12-2.21-17.79a18.7,18.7,0,0,0-2.48-7.1c-.2-.4-.24-.67-2.14-1.29-.42-.13-1.4-.69-1.91-.6-2.49.42-5-.52-7.51-.1s-7-.89-9.1.91c-2.77,2.43-3,8.21-3.4,12-.6,5.1-2,10.27-2.26,15.41-.22,4.5-.34,9-.42,13.51,0,2.35-.9,10.53,1.21,12.1,1.24.92,4.54,1.29,7.94,1.41h.47c1.38,0,2.76,0,4,0,1.85,0,3.42-.13,4.27-.2A87.62,87.62,0,0,0,278,168.13a2.69,2.69,0,0,0,1.83-1C280.08,166.68,279.81,163.25,279.81,162.72Z"/><path class="cls-26" d="M258.29,235.43c-.49.42.18.74.5.77a5.21,5.21,0,0,0,1.76-.11,1.05,1.05,0,0,0,.42-.18,1.27,1.27,0,0,0,.24-.28,4.37,4.37,0,0,0,.7-1,1.21,1.21,0,0,0-.23-.78,3.63,3.63,0,0,1-.7-1.67c-1.27.14-2.48-.3-3.53,0-.09.44-.42.8-.26,1.15-.1-.23-3.16.54-3.52.61a17.36,17.36,0,0,1-1.76.26c-.46,0-1.35-.17-1.61.29a1.23,1.23,0,0,0-.13.54,1.18,1.18,0,0,0,0,.42.86.86,0,0,0,.53.49C253.24,236.85,255.74,235.4,258.29,235.43Z"/><path class="cls-26" d="M279.47,234.8c.47.45-.17.8-.48.84a4.7,4.7,0,0,1-1.71-.12,1.09,1.09,0,0,1-.41-.19,1.78,1.78,0,0,1-.23-.31,4.85,4.85,0,0,1-.68-1.13,1.44,1.44,0,0,1,.22-.84,6.33,6.33,0,0,0,.67-2.24,23.33,23.33,0,0,1,4,.51,6.8,6.8,0,0,0-.35,1.2c.1-.25,3.06.57,3.41.65a16.47,16.47,0,0,0,1.71.28c.44,0,1.3-.19,1.55.3a1.45,1.45,0,0,1,.13.59,1.13,1.13,0,0,1,0,.45.85.85,0,0,1-.5.53C284.36,236.32,281.93,234.76,279.47,234.8Z"/><path class="cls-27" d="M273.15,95.1a4.06,4.06,0,0,0-.58-.92A6,6,0,0,0,271,90.92a1.72,1.72,0,0,0-1.53-.49,5.57,5.57,0,0,0-2-.44,6.67,6.67,0,0,0-2.26-.91,10.84,10.84,0,0,0-11,4.33c-.35-1.46-3.11-1.68-3.34,0A3.43,3.43,0,0,0,253,97.4a2.71,2.71,0,0,0,3.29-.75l.11-.05a19.1,19.1,0,0,1,4.79-2.31,10.93,10.93,0,0,1,3.52,2.44,6,6,0,0,0,2,1.31,4.78,4.78,0,0,0,.38.71,1.85,1.85,0,0,0,1.69,2,4.43,4.43,0,0,0,1.32-.08c0,.11-.06.22-.08.32-.12.49-.23,2.16-.77,2.41a1.73,1.73,0,0,0,0,3c1,.6,2.74-.14,2.59-1.48a4.2,4.2,0,0,1,.36-1.31c.16-.46.37-.87.51-1.36a7.59,7.59,0,0,0,.28-1.51,10.77,10.77,0,0,1,0-1.37,1.16,1.16,0,0,0,.15-1.23,2.33,2.33,0,0,0,.11-.28A3.86,3.86,0,0,0,273.15,95.1Z"/><g class="cls-28"><path class="cls-29" d="M470.55,234.33c1-.36,1.35-.8.45-1.34-.72-.43-2.8-.2-3.75-.23-4.45-.1-8.91-.18-13.38-.17-9,0-18,.38-26.93,1-1.33.09-10.95.47-9.37,2.12.8.83,4.62.3,6,.3l9.25,0,18.51-.07C452.74,235.93,466.69,235.67,470.55,234.33Z"/></g><path class="cls-27" d="M420,77.83a5.6,5.6,0,0,0,0-1.78c-.08-.57-.37-1.24-.95-1.3s-1,.49-1.26,1c-1.14,2.37-1.29,5.07-1.42,7.7-.55-.13-.26.22,2.14,0-.08-1.09.78-2,1.23-3s1.25-2.1,1.1-3.25h-.47Z"/><path class="cls-23" d="M449.57,198c-.55-10.06.61-20.32.51-30.43a20.19,20.19,0,0,0-1.72-10.38,1.36,1.36,0,0,0-.38-.57c-.57-.49-1.55-.23-2.3,0a29.37,29.37,0,0,1-22.51-1.61,11.72,11.72,0,0,0-2,5.63,80.82,80.82,0,0,0-1.24,9.49v0h0c0,.68,0,1.37,0,2.05.09,4,1,7.86,1.74,11.76a45.36,45.36,0,0,1,.92,7.68c0,2.11-.32,4,.25,6.11,1.41,5.09,1.41,10.63,2,15.83.63,5.56,1.26,11.13,1.78,16.7l.06.67c.34.08,5.53,1.06,5.53-.05l1.25-32.46c.17-4.55-.22-19.93,1.17-24.27l1.73.14c3.16,14.32,6.91,39.4,10.08,53.72a5.73,5.73,0,0,0,1.62,3.43c1,.81,2.88.59,3.18-.67C450.28,219.92,450.17,209,449.57,198Z"/><path class="cls-27" d="M440.32,100.14a7.26,7.26,0,0,0-14.49,0,6.25,6.25,0,0,0,.27,1.79c0,.15,0,.3,0,.46a19.25,19.25,0,0,0,.3,4,9.21,9.21,0,0,0,4.37,6.44,5.54,5.54,0,0,0,2.81.85,5.44,5.44,0,0,0,3.53-1.56c3.1-2.85,3.36-7.13,3.14-11.17A5.55,5.55,0,0,0,440.32,100.14Z"/><path class="cls-30" d="M429.79,112.74A4.19,4.19,0,0,0,431,114a4.09,4.09,0,0,0,2.08.48,4.64,4.64,0,0,0,2.54-.56,11.14,11.14,0,0,0,2.08-1.83,16.57,16.57,0,0,0,2.33-4.59,5,5,0,0,0,.31-1.7.48.48,0,0,0-.57.24,1.32,1.32,0,0,0-.11.62,7,7,0,0,1-1.18,3.15,12.41,12.41,0,0,1-2.59,2.34,4.25,4.25,0,0,1-3,1.11,1.22,1.22,0,0,1-.42-.09,1,1,0,0,1-.46-.69,1.1,1.1,0,0,0-.43-.71c-.26-.16-.72,0-.69.26s.23.31.24.49-.29.32-.52.27a1.12,1.12,0,0,1-.52-.39l-1-1.15c-.14-.16-.31-.3-.52-.21A11,11,0,0,0,429.79,112.74Z"/><path class="cls-31" d="M431.49,231.11a28.85,28.85,0,0,0-6.23.23,23.6,23.6,0,0,1-5.15,2.57,4.14,4.14,0,0,0-1.48.75,1,1,0,0,0-.18,1.38,1.89,1.89,0,0,0,1.38.39,68.43,68.43,0,0,0,11.45-.87,1.19,1.19,0,0,0,.63-.22.87.87,0,0,0,.24-.44A4.34,4.34,0,0,0,431.49,231.11Z"/><path class="cls-31" d="M449.21,230a25.82,25.82,0,0,0-5.45,1.17,20.72,20.72,0,0,1-4,3.07,3.61,3.61,0,0,0-1.17.88.92.92,0,0,0,.11,1.26,1.8,1.8,0,0,0,1.3.12,58.66,58.66,0,0,0,9.94-2.54,1,1,0,0,0,.51-.29.8.8,0,0,0,.13-.42A4.05,4.05,0,0,0,449.21,230Z"/><path class="cls-25" d="M418.54,83.67c.17-1,.19-2.34-.6-2.63s-1.59.82-2.05,1.76L412.84,89c-2,4.06-4,8.2-4.83,12.67-.33,1.82-.39,3.92.68,5.1a4.06,4.06,0,0,0,2.57,1.1c4.64.68,4.16-4.58,4.82-8.69Z"/><path class="cls-30" d="M420.9,170.3a5.86,5.86,0,0,0,1.62,0,5.65,5.65,0,0,0,2.89-1.19,7.26,7.26,0,0,0,1.6-2,14.46,14.46,0,0,0,1.53-3.61h-.35q-.27.93-.6,1.83a7.76,7.76,0,0,1-3,4.11c-1.3.75-2.88.61-4.4.55-.22,0-.28.31-.06.34h0a.17.17,0,0,1,.07-.13C420.33,170.12,420.72,170.28,420.9,170.3Z"/><path class="cls-30" d="M427,167.56a21.64,21.64,0,0,0,1.66-4h-.09a14.46,14.46,0,0,1-1.53,3.61,7.26,7.26,0,0,1-1.6,2,5.65,5.65,0,0,1-2.89,1.19,5.86,5.86,0,0,1-1.62,0c-.18,0-.57-.18-.71-.07a.17.17,0,0,0-.07.13C422.83,170.73,425.71,169.85,427,167.56Z"/><path class="cls-25" d="M450.37,163.26q0-10.39-.07-20.78c0-5.83-1.35-12-2.22-17.79a18.52,18.52,0,0,0-2.47-7.1c-.21-.4-.24-.67-2.15-1.29-.41-.13-1.39-.69-1.9-.6-2.49.42-5-.52-7.51-.1s-7.05-.89-9.1.91c-2.77,2.43-3,8.21-3.41,12-.59,5.1-2,10.27-2.25,15.41-.22,4.5-.34,9-.42,13.51-.05,2.36-.9,10.53,1.21,12.1,1.23.92,4.54,1.29,7.94,1.41h.46c1.39,0,2.77,0,4,0,1.85,0,3.41-.13,4.26-.2a87.07,87.07,0,0,0,11.77-2.07,2.63,2.63,0,0,0,1.83-1C450.65,167.22,450.38,163.8,450.37,163.26Z"/><path class="cls-25" d="M420.15,127.43a7.73,7.73,0,0,0,3.45,2.4,2.61,2.61,0,0,0,3.21-1.64,6.09,6.09,0,0,0-.68-4.08,90.69,90.69,0,0,0-5.05-9.5l-5.7-9.75a6.72,6.72,0,0,0-2.1-2.54c-1.57-.93-5,.42-5.24,2.54-.17,1.91,2.52,6.51,3.31,8.3C413.63,118.38,416.38,123.45,420.15,127.43Z"/><path class="cls-32" d="M433,116.56c.12-.16.25-.35.17-.53a.63.63,0,0,0-.37-.28c-.68-.27-1.37-.53-2.08-.75a1,1,0,0,0-.7,0,.75.75,0,0,0-.26.24l-1.31,1.72a.45.45,0,0,0-.13.3.53.53,0,0,0,.2.33c.47.46.91.93,1.33,1.42s.64,1.2,1.22.83.61-1.15.84-1.57A10.72,10.72,0,0,1,433,116.56Z"/><path class="cls-32" d="M435.37,118.74a5.92,5.92,0,0,0,.28,1.08.24.24,0,0,0,.09.13c.14.09.32-.06.41-.19a17,17,0,0,1,2.78-3,2.35,2.35,0,0,0,.54-.6.61.61,0,0,0-.06-.73,1.21,1.21,0,0,0-.51-.24l-1.19-.34a1.93,1.93,0,0,0-.75-.11,1.81,1.81,0,0,0-.63.25c-.49.28-1.83.86-1.88,1.43,0,.32.39.81.52,1.11A6.07,6.07,0,0,1,435.37,118.74Z"/><path class="cls-25" d="M451.25,96.85q-3.25,12.95-7.11,25.76a8,8,0,0,0-.51,3,3,3,0,0,0,1.73,2.52,3.7,3.7,0,0,0,3.74-.86,7.89,7.89,0,0,0,1.85-3.25,78.74,78.74,0,0,0,4.64-33,8.42,8.42,0,0,1,.18-3.43c.2-.58.5-1.29,0-1.73a1.9,1.9,0,0,0-2.31,0c-.57.68-.43,2.83-.59,3.7C452.44,92,451.85,94.44,451.25,96.85Z"/><path class="cls-27" d="M452.9,80a5.49,5.49,0,0,1,.16-1.76c.15-.56.51-1.19,1.1-1.19s.95.61,1.13,1.15c.86,2.49.7,5.19.52,7.82.56-.07.23.24-2.13-.22.21-1.08-.54-2.08-.87-3.12s-1-2.24-.71-3.37l.46,0Z"/><path class="cls-30" d="M439.57,103c-.76.25-1.51.51-2.28.74a.91.91,0,0,0-.52-.63,3.56,3.56,0,0,0-1.38-.1c-.89,0-1.78,0-2.67,0a.2.2,0,0,0-.22.15h-.38a.26.26,0,0,0-.26.25c0,.33,0,.67,0,1l-.48,0h-1c0-.19,0-.37,0-.54s0-.3,0-.45a.25.25,0,0,0-.25-.25H430l0,0-2.39-.13a4.71,4.71,0,0,0-1.83,0c-.75.28-.64,1.25-.55,2.05a1.14,1.14,0,0,0,.08.89.69.69,0,0,0,.49.21,9.94,9.94,0,0,0,1.89,0c.58,0,1.86.29,2.35-.17a1.47,1.47,0,0,0,.33-1h0a.19.19,0,0,0,.16.17,5.35,5.35,0,0,0,1.38.1,1.29,1.29,0,0,0,.83.91,7.22,7.22,0,0,0,2.13.09,2.42,2.42,0,0,0,1.05-.12l.8-.13a.24.24,0,0,0,.16-.12.24.24,0,0,0,.18-.17,5.57,5.57,0,0,0,.28-1.47c.77-.26,1.56-.5,2.34-.73C440,103.39,439.86,102.91,439.57,103Zm-9.91,2.12-.06.12a13.69,13.69,0,0,1-2.3.16,1.42,1.42,0,0,1-.88-.28h0l0-1.47h1.49l1.77.06a6.53,6.53,0,0,1,.05.78C429.73,104.7,429.69,104.92,429.66,105.13Zm6.72-.5a1.23,1.23,0,0,1-.63,1,9,9,0,0,1-2,0c-.56-.06-.75,0-.8-.63,0-.09,0-.19,0-.29a.33.33,0,0,0,0-.24c0-.24,0-.49,0-.73h3.28a.52.52,0,0,1,.17.22v.53S436.39,104.59,436.38,104.63Z"/><path class="cls-26" d="M377.37,235.51c-.47.39.17.7.47.72a4.88,4.88,0,0,0,1.66-.1,1.15,1.15,0,0,0,.41-.17,1.44,1.44,0,0,0,.22-.27c.18-.27.6-.69.66-1a1.14,1.14,0,0,0-.21-.74,3.41,3.41,0,0,1-.67-1.58c-1.19.13-2.34-.28-3.33,0-.09.42-.4.76-.25,1.08-.1-.21-3,.52-3.33.58a15.64,15.64,0,0,1-1.67.25c-.43,0-1.27-.16-1.51.28a1.1,1.1,0,0,0-.13.51,1.08,1.08,0,0,0,0,.4.81.81,0,0,0,.5.46C372.59,236.85,375,235.47,377.37,235.51Z"/><path class="cls-23" d="M378.48,180.5l-8.17-.21c-.17-.36.53,0,.53.34a178.59,178.59,0,0,0,3.28,36.77c1,5.22,2.27,10.44,2.29,15.75h3.35l1.14-49.87a2.13,2.13,0,0,0-2.42-2.78Z"/><path class="cls-23" d="M401.51,230.72a6.79,6.79,0,0,0,4.19-1.5q-4-7-8-14.06a30.43,30.43,0,0,1-2.26-4.58,21.52,21.52,0,0,1-1.26-6.14c-1.15-23-1.15-23,.57-27.91.22-.64,4.4-3,0,0-1.62,1.11-7.73.2-9.67.49a1.85,1.85,0,0,0-1.17.46c-.32.37.16,1.66-.26,1.41-3.45-2-1.15.73-.63,7.11.18,2.25,2.54,16.55,3.22,18.7a35.09,35.09,0,0,0,5.23,10.88C395.23,220.44,397.73,224.92,401.51,230.72Z"/><path class="cls-33" d="M398.77,148c-.63-8.77-2.19-17.83-7.12-25.31-3.54-5.37-8.41-11.61-15.24-6-.62.51-4.86-1.4-5.28-.76a2.45,2.45,0,0,0-2.89,1.23c-2.32,4.07-3.15,8.56-3.52,13.17-.43,5.3-.56,10.63-.72,15.94q-.11,3.71-.17,7.39c-.95,6.58-1.42,13.2-.34,19.82a2.3,2.3,0,0,0,.31.87l.09,5a2.75,2.75,0,0,0,2,2.62A87,87,0,0,0,397,180.7a2.77,2.77,0,0,0,2-2.62A249.49,249.49,0,0,0,398.77,148Z"/><path class="cls-24" d="M346.11,88c.17-1.15.63-2.37.17-3.44l-.46.13c-.07.22-.15.45-.23.68a5.33,5.33,0,0,0-.44-1.71c-.23-.53-.7-1.1-1.28-1s-.83.75-.93,1.31c-.45,2.6.15,5.24.74,7.81a9.34,9.34,0,0,0,2.76-.55A6.58,6.58,0,0,1,346.11,88Z"/><path class="cls-33" d="M367.66,130.48c4.37,1.62,8.76-10.77,3.26-12.66-5-1.72-13-1.18-17.61-4.14a9.39,9.39,0,0,1-4.21-6.4q-1.52-8.3-2.61-16.63l-3.6.2q0,10.47.08,21a10.86,10.86,0,0,0,.51,4,9.1,9.1,0,0,0,2.29,3.08C351.8,124.71,360.73,127.9,367.66,130.48Z"/><path class="cls-25" d="M348.53,105.63a22.71,22.71,0,0,0-5.38.73c-.34.07-.2.58.13.5a34.43,34.43,0,0,1,5.24-.83A.2.2,0,0,0,348.53,105.63Z"/><path class="cls-25" d="M356.79,125c-.64-2.37-.85-6.63,1.21-8.49.2-.18-.09-.43-.3-.28-2.4,1.82-2.08,6.42-1.6,9C356.18,125.61,356.91,125.43,356.79,125Z"/><path class="cls-25" d="M348.8,107.28a6,6,0,0,0-2.23.16c-1.07.19-2.13.43-3.18.69a.38.38,0,0,0,.19.73q1.19-.3,2.37-.57a14.89,14.89,0,0,1,2.78-.56C349,107.72,349.07,107.33,348.8,107.28Z"/><path class="cls-25" d="M359.87,125.81c-.7-3-1.15-5.69.49-8.44a.33.33,0,0,0-.53-.39c-2.32,2.5-1.58,6.1-.89,9.07C359.08,126.64,360,126.39,359.87,125.81Z"/><path class="cls-24" d="M379.48,111.4a7.66,7.66,0,0,0,.92-3.94,18.56,18.56,0,0,0-1.7-8.37c-1.52-2.9-5-5.6-8.38-4.5-3.93,1.28-3.28,6.67-2.74,10.25a11.66,11.66,0,0,0,3.76,7.39C374.56,114.84,377.91,114.14,379.48,111.4Z"/><path class="cls-26" d="M404.17,232.94c-.29.59.47.62.78.51a5.42,5.42,0,0,0,1.6-.83,1.15,1.15,0,0,0,.32-.34,1.14,1.14,0,0,0,.1-.36,4.42,4.42,0,0,0,.23-1.27c-.06-.28-.32-.46-.54-.63a5.41,5.41,0,0,1-1.51-1.65,25,25,0,0,0-3.67,2.17c.46.33.5.62.79.88-.19-.17-2.73,1.81-3,2a17.29,17.29,0,0,1-1.53,1c-.42.23-1.33.39-1.38.93a1.21,1.21,0,0,0,.1.56,1.07,1.07,0,0,0,.2.38.87.87,0,0,0,.69.24C400,236.35,401.77,234,404.17,232.94Z"/><path class="cls-25" d="M387.71,124.19c-.17-.39-.35-.78-.53-1.16a200.07,200.07,0,0,1-21.32,3.19c-.05.38-.1.77-.14,1.16A163.83,163.83,0,0,0,387.71,124.19Z"/><path class="cls-25" d="M364.9,148.84c0,.37,0,.75,0,1.13a214.24,214.24,0,0,0,29.32-4.15c-.08-.48-.17-1-.27-1.43A239,239,0,0,1,364.9,148.84Z"/><path class="cls-25" d="M366.94,170.81c0,.27.08.55.13.82,2.1-.25,4.19-.54,6.24-.82a202.84,202.84,0,0,0,23.15-4.54c0-.4,0-.79,0-1.18-6,1.53-12,2.86-18.21,3.94C374.65,169.65,370.83,170.32,366.94,170.81Z"/><path class="cls-25" d="M365,152.25l0,.53a256.73,256.73,0,0,0,29.73-4c0-.22-.08-.44-.11-.67-7.66,1.33-15.29,2.65-23.12,3.51C369.38,151.89,367.2,152.08,365,152.25Z"/><path class="cls-25" d="M365.56,129.18c0,.19,0,.37-.05.56,7.83-.64,15.63-1.74,23.25-3.08l-.27-.68c-6.32,1.09-12.66,2.11-19.12,2.82C368.1,128.94,366.83,129.06,365.56,129.18Z"/><path class="cls-25" d="M367.64,174.9a120.74,120.74,0,0,0,28.95-5.27c0-.2,0-.4,0-.6a126,126,0,0,1-29.05,5.21Z"/><path class="cls-24" d="M354.7,150.28a4.12,4.12,0,0,0-1.25.6,1.42,1.42,0,0,0-.59,1.19.89.89,0,0,0,.94.81.43.43,0,0,0,.07.38c.94.26,1.88-.33,2.74-.79a11.58,11.58,0,0,1,2.09-.88,2.69,2.69,0,0,0,1.62-.94,1.73,1.73,0,0,0,.06-1.36,9.63,9.63,0,0,0-.61-1.25l-3.4.63a1.1,1.1,0,0,0-.52.19.38.38,0,0,0-.13.49,1,1,0,0,1,.64.33Z"/><path class="cls-33" d="M389.27,125c-.89-4-6-4.83-7,.19-.91,4.55-1.21,9.18-3.26,13.57a8.5,8.5,0,0,1-5.15,4.48q-7.17,2.39-14.42,4.43c.21,1,.42,2.06.62,3.09l18.56-2.8a10,10,0,0,0,3.49-1,8.19,8.19,0,0,0,2.45-2.38C389,138.61,390.7,131.37,389.27,125Z"/><path class="cls-25" d="M372.46,143.94a19.85,19.85,0,0,0,1.3,4.57.23.23,0,0,0,.43-.18,30,30,0,0,1-1.38-4.44A.18.18,0,0,0,372.46,143.94Z"/><path class="cls-25" d="M388.59,134.25c-2,.86-5.77,1.6-7.67.07-.18-.15-.38.13-.21.29,1.9,1.84,5.94,1,8.13.22C389.21,134.7,389,134.1,388.59,134.25Z"/><path class="cls-25" d="M373.88,143.49a5.29,5.29,0,0,0,.42,1.91c.3.91.65,1.79,1,2.67a.34.34,0,0,0,.62-.26c-.27-.66-.54-1.32-.8-2a12.24,12.24,0,0,1-.84-2.33C374.25,143.27,373.9,143.25,373.88,143.49Z"/><path class="cls-25" d="M388.93,131.48c-2.52,1-4.9,1.73-7.53.67-.31-.12-.57.32-.29.51,2.51,1.69,5.6.58,8.15-.41A.42.42,0,0,0,388.93,131.48Z"/><path class="cls-34" d="M390.62,99.45a2.78,2.78,0,0,0-2.3-1.39.77.77,0,0,0,0-.15,2.85,2.85,0,0,0,.22-4.24,3.42,3.42,0,0,0-1.17-.91,19.74,19.74,0,0,0-4.23-2.46,1.63,1.63,0,0,0-.37-.13,5.89,5.89,0,0,0-5.07-4.9,7,7,0,0,0-2.09,0c-2.85-1.42-6.14,0-7.8,2.44a2.65,2.65,0,0,0-.4.22,4.09,4.09,0,0,0-1.76,2.68l-.12,0a4.54,4.54,0,0,0-3.29,5.66,3,3,0,0,0,2.86,2.18l1.9-.07a2.91,2.91,0,0,0,1.79-.74l.4.17a5,5,0,0,0,1.4.31,4.3,4.3,0,0,0,1.76,1.48,6.74,6.74,0,0,0,4.74.38,4.32,4.32,0,0,0,.39.34,3.73,3.73,0,0,0,.68.41,6.56,6.56,0,0,0-.63,1.24c-.6,1.56.68,3.17,2.07,3.65a4.15,4.15,0,0,0,.85.18,3,3,0,0,0,1.94,4.05,5.75,5.75,0,0,0,5.91-2,6.78,6.78,0,0,0,1.32-4C391,102.81,391.73,101.25,390.62,99.45Z"/><path class="cls-35" d="M362.28,72.28a24.53,24.53,0,0,1-1.36,2.65c-.21.35.3.63.54.32.6-.78,1.23-1.57,1.77-2.4C363.62,72.24,362.58,71.64,362.28,72.28Z"/><path class="cls-35" d="M353.21,74.69a5.91,5.91,0,0,0,1.11.66,4.82,4.82,0,0,0,1.29.58c.22,0,.52-.19.35-.43a4.15,4.15,0,0,0-1-.86,5.7,5.7,0,0,0-1.22-.8A.52.52,0,0,0,353.21,74.69Z"/><path class="cls-35" d="M356.94,71.49a7.08,7.08,0,0,0,.35,1.58,3.68,3.68,0,0,0,.53,1.33.31.31,0,0,0,.51-.12,3.24,3.24,0,0,0,0-1.24,7.83,7.83,0,0,0-.32-1.67C357.78,70.86,356.9,70.86,356.94,71.49Z"/><path class="cls-33" d="M304.73,195c.47-10.32-.51-20.83-.43-31.21a24.57,24.57,0,0,1,1.46-10.64,1.44,1.44,0,0,1,.32-.58c.48-.5,1.31-.24,1.95,0A21,21,0,0,0,327.11,151a13.67,13.67,0,0,1,1.7,5.77c.44,3.25.93,6.48,1.05,9.74v0h0c0,.69,0,1.39,0,2.1a90.72,90.72,0,0,1-1.47,12,56.38,56.38,0,0,0-.78,7.88c0,2.17.27,4.14-.21,6.26-1.19,5.22-1.2,10.9-1.7,16.23-.54,5.71-1.07,11.42-1.51,17.14l-.06.68c-.28.08-4.68,1.09-4.68,0q-.53-16.65-1.06-33.29c-.15-4.67-.3-9.4-1.49-13.85l-1.46.15q-4,22-8,44a6.49,6.49,0,0,1-1.37,3.52,1.59,1.59,0,0,1-2.7-.68C304.13,217.44,304.22,206.22,304.73,195Z"/><path class="cls-36" d="M320.76,230.7a20.76,20.76,0,0,1,5,.21,18.4,18.4,0,0,0,4.17,2.35,3.17,3.17,0,0,1,1.2.68,1,1,0,0,1,.15,1.26,1.43,1.43,0,0,1-1.13.35,48.91,48.91,0,0,1-9.27-.79.92.92,0,0,1-.51-.2.75.75,0,0,1-.19-.4A4.31,4.31,0,0,1,320.76,230.7Z"/><path class="cls-36" d="M306.88,230.53a20.64,20.64,0,0,0-5,.52,19,19,0,0,1-4,2.59,3.19,3.19,0,0,0-1.15.75,1,1,0,0,0-.08,1.27,1.43,1.43,0,0,0,1.15.28,48.39,48.39,0,0,0,9.2-1.34.87.87,0,0,0,.5-.24.84.84,0,0,0,.17-.4A4.4,4.4,0,0,0,306.88,230.53Z"/><path class="cls-24" d="M323.79,93.09a3,3,0,0,0-.4-1.59,3.06,3.06,0,0,0-2.27-1c-3.61,0-7.18.17-10.82.34a1.55,1.55,0,0,0-.88.23A1.37,1.37,0,0,0,309,92c-.25,1.49.23,3.06.21,4.59a25.39,25.39,0,0,0,.32,4.69,10.92,10.92,0,0,0,4.52,7.52,5.4,5.4,0,0,0,2.92,1,5.32,5.32,0,0,0,3.65-1.83C324.26,104.17,324.15,98.29,323.79,93.09Z"/><path class="cls-24" d="M320.2,107.61c-.68,1.49-2.36,1.93-4.1,1.43-.94-.26-2.15-1.14-3.12-1.23a5.61,5.61,0,0,0,3,2.33,3.94,3.94,0,0,0,3.51-1C319.93,108.77,320.43,108.17,320.2,107.61Z"/><path class="cls-30" d="M323.18,87.2A7,7,0,0,0,319.11,86a22.17,22.17,0,0,0-4.61-.19c-.82.13-1.62.37-2.45.44a3.36,3.36,0,0,1-2.36-.57c-.28-.22-.55-.52-.91-.54s-.81.53-1,1a15.87,15.87,0,0,0-.88,7.63c.29,2.07,1.79,4.16,2.58,6.11a.62.62,0,0,0,.12.19.34.34,0,0,0,.48-.12,1,1,0,0,0,.1-.54,15.29,15.29,0,0,1,.6-4.41c.54-1.72,1.08-1,2.61-1.13,2.29-.16,4.78-2,7.06-.85a6.06,6.06,0,0,1,1.83,1.74,5.3,5.3,0,0,1,1.53,3.3c1.08-.55,1.33-2,1.42-3.17C325.47,92.14,325.38,88.9,323.18,87.2Z"/><path class="cls-23" d="M331.91,146.67c-.17-1.54-.35-3.09-.52-4.64-1.06-9.65-2.16-19.42-5.43-28.53-.81-2.26-2.87-4.86-5.06-2.53a5.92,5.92,0,0,1-1,.86c-2.18,1.51-5.11,1.35-7.5.46-2.08-.78-3.34-3.76-5.91-2.64-2.42,1.06-3.52,5.28-3.85,7.7-.6,4.42-.86,9-1.33,13.44-.82,8-1.65,15.91-2,23.9a57.17,57.17,0,0,1-.89,9.88,21.06,21.06,0,0,0,5.44.33c4.26,0,8.5.66,12.76.94a33,33,0,0,0,10.2-.63c.54-.14,6.91-1.5,6.87-1.83Q332.84,155,331.91,146.67Z"/><path class="cls-25" d="M333.45,161.54c.1,0,.14-.07.08-.17a34.38,34.38,0,0,1-1.53-3.24,189,189,0,0,0-2.36-20.72c-1.49-8.42-4.72-16.24-6.64-24.53-.56-2.43-3.47-2.21-4.56-.51l-.25,0a10.63,10.63,0,0,0-3.44-2,2.51,2.51,0,0,0-3.15,2.4c0,1.61,0,3.23-.06,4.85a247.34,247.34,0,0,0-4.82,40s0,0,0,0c-.15.69-.31,1.38-.46,2.07a13.33,13.33,0,0,0-.74,3.15,2.68,2.68,0,0,0-.07.27,2.19,2.19,0,0,0,1.48,2.61,32.64,32.64,0,0,0,25.51-1.27l.3-.18.21-.09.38-.29a1.8,1.8,0,0,0,.51-1.06A1.94,1.94,0,0,0,333.45,161.54Z"/><path class="cls-24" d="M342.07,88.42a5.32,5.32,0,0,1,.79-1.58c.34-.47.91-.92,1.46-.71s.66.91.63,1.48c-.11,2.64-1.24,5.09-2.36,7.47A8.84,8.84,0,0,1,340,94a6.68,6.68,0,0,0,1-3.09c.08-1.16-.12-2.45.56-3.39l.42.21Z"/><path class="cls-23" d="M307.6,130.12c-3.35,2.26-2.2-10.8-2.36-12.41-.2-1.86-.48-5,1.1-6.4,2.8-2.51,10.41.48,13.74.85a26.69,26.69,0,0,0,10.77-1,6.7,6.7,0,0,0,2.2-1c1.73-1.35,6.68-16.83,7-16.73l3.48,1c-1.06,4.78-2.07,9.57-3.16,14.34-.84,3.68-1,8-3.64,10.92a12.65,12.65,0,0,1-6.57,3.44C323.69,124.63,313.37,126.23,307.6,130.12Z"/><path class="cls-35" d="M299,79.89a24,24,0,0,1,.47,2.94c0,.41.61.34.62,0,0-1,.07-2,0-3C300.07,79.07,298.87,79.2,299,79.89Z"/><path class="cls-35" d="M293.1,87.18a5.05,5.05,0,0,0,1.28-.12,4.53,4.53,0,0,0,1.38-.29c.21-.11.31-.46,0-.56a4.48,4.48,0,0,0-1.32-.1,5.94,5.94,0,0,0-1.46.08A.52.52,0,0,0,293.1,87.18Z"/><path class="cls-35" d="M294.22,82.4a7.31,7.31,0,0,0,1.22,1.07,3.75,3.75,0,0,0,1.21.76.3.3,0,0,0,.33-.4,3.12,3.12,0,0,0-.76-1A7.45,7.45,0,0,0,295,81.7C294.53,81.39,293.82,81.91,294.22,82.4Z"/><g class="cls-37"><path class="cls-38" d="M529.68,235.24c1.05-.37,1.35-.81.45-1.34-.71-.44-2.8-.21-3.75-.23-4.45-.1-8.91-.18-13.38-.17-9,0-18,.37-26.93,1-1.33.1-10.94.48-9.37,2.12.8.84,4.62.31,6,.3l9.26,0,18.51-.08C511.87,236.84,525.82,236.58,529.68,235.24Z"/></g><path class="cls-23" d="M468.53,146.52c-.37-.39-.95-.78-1.42-.31a1.86,1.86,0,0,0-.11,1.91l1.42,3.84c.93,2.49,1.88,5,3.49,6.83a2.27,2.27,0,0,0,2.55.94,4.51,4.51,0,0,0,1.59-1.47c2.31-3-.21-4.15-1.74-5.74Z"/><path class="cls-23" d="M477.9,140.63a7.15,7.15,0,0,0-.63-3c-.48-1-1.43-1.76-2.23-1.63s-1.12.92-1.4,1.69a46,46,0,0,0-1.59,6.24c-.46,2.25-.93,4.5-1.39,6.74a4.65,4.65,0,0,0-.08,2.17c.37,1.32,2.6,3.22,3.58,2.7s1.55-3.65,1.92-4.71A27.31,27.31,0,0,0,477.9,140.63Z"/><path class="cls-39" d="M505.56,213.82a23.5,23.5,0,0,1-3.72-11.33L498.45,177a5.36,5.36,0,0,0-.57-2.06c-1.07-1.78-3.62-1.7-5.67-1.39a3.13,3.13,0,0,0-.8.2q-6.24.63-12.51,1a2.44,2.44,0,0,0-2.2,2.12c-.12,0-.21,0-.14.14h.13a1.79,1.79,0,0,0,.43,1.25,189.88,189.88,0,0,0,3.47,38c1.08,5.51,2.4,11,2.42,16.65h3.55q.54-24,1.09-47.93a33.43,33.43,0,0,0,1,3.53c1.85,5.46,4,10.78,5.17,16.44a2,2,0,0,0,.78,1.28,32.43,32.43,0,0,0,4.35,8.11c3.94,5.14,6.58,9.88,10.59,16a7.26,7.26,0,0,0,4.42-1.59Q509.78,221.25,505.56,213.82Z"/><path class="cls-26" d="M483.82,235.51c-.5.41.17.73.49.77a5.47,5.47,0,0,0,1.76-.12,1.09,1.09,0,0,0,.43-.18.89.89,0,0,0,.23-.28c.19-.28.64-.72.71-1a1.27,1.27,0,0,0-.23-.78,3.52,3.52,0,0,1-.7-1.67c-1.27.14-2.48-.3-3.53,0-.09.44-.42.8-.27,1.15-.1-.23-3.15.54-3.52.61a14.63,14.63,0,0,1-1.76.26c-.46.05-1.34-.17-1.6.29a1.49,1.49,0,0,0-.14.54,1,1,0,0,0,0,.43.83.83,0,0,0,.52.48C478.76,236.93,481.27,235.47,483.82,235.51Z"/><path class="cls-26" d="M511.9,232.39c-.31.62.49.65.82.54a5.68,5.68,0,0,0,1.69-.88,1.06,1.06,0,0,0,.34-.36,1.27,1.27,0,0,0,.11-.38,4.92,4.92,0,0,0,.24-1.35c-.06-.29-.34-.47-.57-.66a5.78,5.78,0,0,1-1.6-1.74,27.38,27.38,0,0,0-3.88,2.29c.49.35.53.66.83.93-.2-.18-2.88,1.92-3.2,2.14a17.2,17.2,0,0,1-1.63,1c-.43.24-1.4.42-1.45,1a1.34,1.34,0,0,0,.1.59,1,1,0,0,0,.22.4.88.88,0,0,0,.73.25C507.53,236,509.36,233.47,511.9,232.39Z"/><path class="cls-24" d="M482.49,121.57a7.59,7.59,0,0,0,.9-3.87,18.13,18.13,0,0,0-1.68-8.21c-1.48-2.85-4.92-5.5-8.22-4.42-3.86,1.26-3.22,6.55-2.69,10.06a11.41,11.41,0,0,0,3.7,7.26C477.66,124.94,480.94,124.26,482.49,121.57Z"/><path class="cls-23" d="M489.22,135.31c-1.85-4.92-6.6-11.34-9.93-8.92a4.52,4.52,0,0,0-1.32.12l-1.88.49c-3.59.92-3.73,4.42-1.77,6.2-.31,2.06-.61,3.84-.88,5.49a1.92,1.92,0,0,1,.1,1.1,53,53,0,0,0-.89,6.49,27.52,27.52,0,0,1-.21,3.63c-.22,6.43.23,12.9-.07,19.32-.09,1.84-.23,3.67-.39,5.5a5.83,5.83,0,0,0,5,2.22l6.14,0c2,.07,3.91,0,5.61,0h1.73a6,6,0,0,0,4.16-1.43c.51,0,1,.07,1.52.12a5.45,5.45,0,0,0,5.73-4.95C502.57,156.29,494.32,148.82,489.22,135.31Z"/><path class="cls-34" d="M492.21,119.09c-.36-1.24-1.63-2-2.31-3.13-1.38-2.21-1.54-4.62-1.63-7.22-.11-3-1.46-4.64-3.77-6.14a11.51,11.51,0,0,0-12.63,0l-.29.21a13.3,13.3,0,0,0-.93,1.49,1.19,1.19,0,0,0-1.1,1c-.21.89-.41,1.8-.61,2.7a1.41,1.41,0,0,0-.43,2.1c-1,5.18-1.45,10.45.13,15.61a1.42,1.42,0,0,0,1.33,1l1.17.42a1.22,1.22,0,0,0,1.31,0,18.1,18.1,0,0,0,1.55,2.14c1,1.18,3.09-.4,2.17-1.67a28.81,28.81,0,0,1-2.91-5,27.34,27.34,0,0,1-1-10.58,29.34,29.34,0,0,0,8.94-1.86c0,.38-.09.76-.15,1.11-.32,2-.64,2.32,0,4.23,1.23,3.88-.23,7.74,3.34,10.16,2.62,1.78,5.71,1.26,7.22-2.05A8.2,8.2,0,0,0,492.21,119.09Z"/><path class="cls-23" d="M493.65,106.09q-4.57,12.54-9.74,24.88a8.09,8.09,0,0,0-.82,3,3,3,0,0,0,1.46,2.69,3.69,3.69,0,0,0,3.81-.47,8.08,8.08,0,0,0,2.18-3,78.93,78.93,0,0,0,8-32.39,8.44,8.44,0,0,1,.53-3.39c.26-.56.64-1.23.21-1.72a1.9,1.9,0,0,0-2.3-.21c-.64.62-.72,2.77-1,3.62C495.33,101.42,494.5,103.76,493.65,106.09Z"/><path class="cls-24" d="M499.51,90.11a2.76,2.76,0,0,0-2.22-1.7c-1.08-.13-2,.42-2,1.56a5.16,5.16,0,0,0,.33,1.66,9.73,9.73,0,0,0,.87,1.43,4,4,0,0,1,0,.49.81.81,0,0,0,.81.8l1.11,0a.78.78,0,0,0,.68-.39A4.91,4.91,0,0,0,499.51,90.11Z"/><path class="cls-24" d="M467.11,146.87a.8.8,0,0,0,.1-1l-.19-.31a.58.58,0,0,0-.13-.66l-.36-.4a1.4,1.4,0,0,1,.18-.52c.38-.58,1.17-.7,1.52-1.37a2.17,2.17,0,0,0-1.16-3,2.45,2.45,0,0,0-2.93,1.64s0,0,0,0a2.46,2.46,0,0,0-.25.75,7.14,7.14,0,0,0,1.7,5.3A.87.87,0,0,0,467.11,146.87Z"/><path class="cls-35" d="M468.74,89.9a24.6,24.6,0,0,1,.46,2.94c0,.42.62.35.63,0,0-1,.06-2,0-3C469.8,89.09,468.6,89.22,468.74,89.9Z"/><path class="cls-35" d="M462.83,97.19a5.63,5.63,0,0,0,1.29-.11,5,5,0,0,0,1.38-.29c.2-.11.31-.46,0-.56a4.14,4.14,0,0,0-1.32-.1,5.42,5.42,0,0,0-1.45.08A.51.51,0,0,0,462.83,97.19Z"/><path class="cls-35" d="M464,92.42a7.24,7.24,0,0,0,1.21,1.07,3.86,3.86,0,0,0,1.21.76.31.31,0,0,0,.34-.4,3.28,3.28,0,0,0-.76-1,8.42,8.42,0,0,0-1.23-1.16C464.27,91.41,463.55,91.93,464,92.42Z"/><g class="cls-40"><path class="cls-41" d="M255.37,236.17c.83-.29,1.07-.64.36-1.07s-2.22-.16-3-.17c-3.53-.09-7.06-.15-10.6-.14-7.12,0-14.25.3-21.34.82-1.05.08-8.67.38-7.43,1.68.64.66,3.66.24,4.78.24l7.34,0,14.67-.06C241.25,237.44,252.31,237.23,255.37,236.17Z"/></g><path class="cls-30" d="M241.05,234.9a3.1,3.1,0,0,0-1.12-.63,17.64,17.64,0,0,1-3.88-2.18,18.9,18.9,0,0,0-4.69-.2,4.1,4.1,0,0,0-.5,3.22.72.72,0,0,0,.18.37.86.86,0,0,0,.47.19,45.45,45.45,0,0,0,8.63.73,1.32,1.32,0,0,0,1.05-.32A.92.92,0,0,0,241.05,234.9Z"/><path class="cls-30" d="M225.45,234.79a2.79,2.79,0,0,0-1.13-.56,17.31,17.31,0,0,1-3.9-1.94,19.05,19.05,0,0,0-4.59.05,4,4,0,0,0-.33,3.17.87.87,0,0,0,.2.35.9.9,0,0,0,.47.17,44.43,44.43,0,0,0,8.47.27,1.26,1.26,0,0,0,1-.37A.91.91,0,0,0,225.45,234.79Z"/><path class="cls-24" d="M240.77,169h0v0c-.11-3.28-.56-6.55-1-9.82a14.85,14.85,0,0,0-1.57-5.83A17.92,17.92,0,0,1,220.64,155c-.59-.26-1.36-.53-1.81,0a1.71,1.71,0,0,0-.29.59,26.75,26.75,0,0,0-1.34,10.74c-.08,10.48.82,21.09.39,31.5-.47,11.34-.55,22.66-1.28,34,.24,1.3,2.51,1.68,3.3.84s.24-2.39.46-3.7q3.7-22.23,7.42-44.46l1.35-.15a68.23,68.23,0,0,1,1.37,14q.48,16.8,1,33.6c0,1.15,4.05.13,4.32.05,0-.23,0-.46,0-.69.41-5.77.9-11.53,1.4-17.3.47-5.38.47-11.11,1.57-16.38.44-2.14.16-4.14.19-6.32a62.45,62.45,0,0,1,.72-8,99.14,99.14,0,0,0,1.36-12.17C240.8,170.41,240.79,169.7,240.77,169Z"/><path class="cls-24" d="M229.09,111.25a18.42,18.42,0,0,0-2.25-6.77,12.52,12.52,0,0,0-3.31-4.68,2.09,2.09,0,0,0-1-.48,2.34,2.34,0,0,0-1,.18,34.65,34.65,0,0,0-8.53,3.64.85.85,0,0,0-.46,1.08c1.2,6,3.78,13.88,9.77,15.35,2.91-1.4,2.39-.32,5.41-1.47C226.92,116.52,229.2,113,229.09,111.25Z"/><path class="cls-42" d="M236.14,116.19c-.68-.8-1.69-1.23-2.1-2.21a20.23,20.23,0,0,1-1-3.59,50.79,50.79,0,0,0-2.84-9.13,3.18,3.18,0,0,0-.16-.32,3.53,3.53,0,0,0-1.29-4.47,6.21,6.21,0,0,0-1.86-.76,3.9,3.9,0,0,0-2.28-.48l-.25,0c-6.13-.66-15.67.74-15.21,5.65a1.56,1.56,0,0,0-.37.72,1.43,1.43,0,0,0,.5,1.53,4.78,4.78,0,0,0-.5,1.69,4.62,4.62,0,0,0-.73,1.32,10.45,10.45,0,0,0,.31,6.42c.59,1.88,1.62,3.61,1.66,5.63,0,2.23-1.49,2.52-3.39,3-3.77.94-5.9,3.12-6,7.17a8.73,8.73,0,0,0,1.63,5.38,13.88,13.88,0,0,0,4.74,3.95,3.16,3.16,0,0,0,2.22.08c3.2.54,6.54-.06,8.66-2.8a7,7,0,0,0,.7-1.13,5.32,5.32,0,0,0,1.71-3.1,4.75,4.75,0,0,0-4.19-5.66,4.13,4.13,0,0,0-1.25-1.1c1.64-1.19,3.12-2.33,3.76-4.38,1.35-4.24-1.12-8.95-4.43-11.53-.36-.28-.26-.54-.64-.6a2.81,2.81,0,0,1-.08-.31c1.61-.33,1.21-2.49.38-3.82a4.23,4.23,0,0,1,1.52-1.14c.65,0,1.31.12,1.75.19,1.2.17,2.35.31,3.57.4,1.55.12,3.19.54,4.79.58l.11.15a.73.73,0,0,0,.26.24,38.14,38.14,0,0,1,1.89,5.35,31.72,31.72,0,0,1,.68,3.89,2.21,2.21,0,0,0-1.2,2,12.07,12.07,0,0,0,1.44,6.85,15,15,0,0,1,1,1.51.22.22,0,0,0,.21.16,2.84,2.84,0,0,0-.41.34,4.08,4.08,0,0,0-1.65,2.37c-.92,4.9,5.35,6.12,8.07,3S238.79,119.3,236.14,116.19Z"/><path class="cls-39" d="M243.2,183.37c0-3-.43-6.05-.68-9.05s-.45-6-.77-9c-.64-5.92-1.45-11.83-2.36-17.7-1.54-9.91-4.41-19.8-11.68-26.19a27.36,27.36,0,0,1-6.56.63,2.58,2.58,0,0,0-.13.42c-3.44,15.27-4.82,30.86-7.4,46.29-.32,2-.79,4-1.16,6a31.55,31.55,0,0,0-2.1,6.8,3.87,3.87,0,0,0-.4,1,2.55,2.55,0,0,0,.77,3.83,1.89,1.89,0,0,0,1,.17l.14.06a43.6,43.6,0,0,0,16.72,3,3.14,3.14,0,0,0,1-.18c1.64.11,3.27.17,4.93.21,2.07.05,4.86.54,6.72-.56a3.29,3.29,0,0,0,1.29-3.36A4,4,0,0,0,243.2,183.37Z"/><path class="cls-43" d="M227.34,106.49a3.35,3.35,0,0,0-3.76,1.32s0,0,0,.07c-.61.16-1.24.37-1.87.48a2.43,2.43,0,0,0-2.91-.7,3.79,3.79,0,0,0-3,3.06c-.27,2,2.5,2.49,3.95,2.13a3.08,3.08,0,0,0,2.21-4.06l0-.05c.6-.2,1.24-.33,1.85-.5.56,2,4.35,3,5.11.81A2.1,2.1,0,0,0,227.34,106.49Zm-8.17,6c-1.55.16-3.49-.65-2.66-2.46a3.5,3.5,0,0,1,1.62-1.65.24.24,0,0,0,.38.1,1.92,1.92,0,0,1,3.16,1.24A2.69,2.69,0,0,1,219.17,112.45Zm9.25-3.66c-.5,1.87-4.57.85-4.25-1h0a3.45,3.45,0,0,1,2.14-1C227.39,106.82,228.75,107.53,228.42,108.79Z"/><path class="cls-24" d="M227.89,138.11c-3.14,1.76-11.28,6.32-15,5.92a110,110,0,0,0,8.93-10.2c2-2.66,1.42-6.91.8-10-.4-2-2.6-1.9-3.64-.69a1.9,1.9,0,0,0-1.58,1.24c-3.56,8.13-10.32,15.15-11.93,24.07-.22,1.21.32,2.85,1.75,3.07,8.76,1.41,14.82-7.75,22-11C232.12,139.2,229,137.47,227.89,138.11Z"/><path class="cls-24" d="M241.35,139.5a25.21,25.21,0,0,0-1.27-2.18,9.1,9.1,0,0,0-1.82-1.74c-.62-.46-1.26.25-1.18.86a9.65,9.65,0,0,0,.53,2.1c-.79-.27-1.58-.54-2.35-.86l-.19,0a2,2,0,0,1-1.55-.85,2.69,2.69,0,0,0-2,.59c-1.18,1.12,5.12,4.72,5.85,5.34a3.83,3.83,0,0,0,1.21.79c1.56.52,3.14-1.7,2.6-3.13A.63.63,0,0,0,241.35,139.5Z"/><path class="cls-24" d="M230.79,133.09a2.21,2.21,0,0,0-1.2-1.61.69.69,0,0,0-1,.53l-.15,3.1-.29-.17c-.54-.32-1.1.38-.92.89a7.86,7.86,0,0,0,1.4,2.1.63.63,0,0,0,.85.24.71.71,0,0,0,1.05-.07.65.65,0,0,0,.15-.56C231.21,136,231.55,134.44,230.79,133.09Z"/><path class="cls-24" d="M233.49,133.32a2.19,2.19,0,0,0-1-1.75.68.68,0,0,0-1,.39c-.19,1-.39,2-.58,3l-.26-.21c-.5-.39-1.14.23-1,.75a7.83,7.83,0,0,0,1.1,2.27.63.63,0,0,0,.81.36.7.7,0,0,0,1.05.08.68.68,0,0,0,.23-.54C233.49,136.29,234.06,134.77,233.49,133.32Z"/><path class="cls-35" d="M238.71,87.72a22.82,22.82,0,0,1-2.8,1c-.39.11-.21.67.17.6,1-.16,2-.31,2.93-.55C239.72,88.61,239.36,87.46,238.71,87.72Z"/><path class="cls-35" d="M231.38,83.05a.51.51,0,0,0-.95.27,4.9,4.9,0,0,0,.36,1.24,4.18,4.18,0,0,0,.55,1.3c.14.18.51.22.55-.08a4.48,4.48,0,0,0-.16-1.31A6.15,6.15,0,0,0,231.38,83.05Z"/><path class="cls-35" d="M235.33,83.52a7,7,0,0,0-.82,1.39,3.67,3.67,0,0,0-.51,1.33.3.3,0,0,0,.45.26,3.33,3.33,0,0,0,.82-.93,8.27,8.27,0,0,0,.9-1.44C236.38,83.63,235.73,83,235.33,83.52Z"/><g class="cls-44"><path class="cls-45" d="M191,236.11c1.05-.36,1.35-.8.46-1.34-.72-.43-2.81-.2-3.76-.23-4.45-.1-8.91-.18-13.37-.17-9,0-18,.38-26.94,1-1.33.09-10.94.47-9.37,2.12.8.83,4.62.3,6,.3l9.26,0,18.51-.07C173.16,237.71,187.11,237.45,191,236.11Z"/></g><path class="cls-26" d="M184,234.16a1.42,1.42,0,0,0-.13-.51c-.25-.43-1.08-.23-1.52-.27a15.46,15.46,0,0,1-1.66-.25c-.35-.07-3.24-.8-3.33-.58.14-.33-.17-.67-.25-1.08-1-.33-2.14.09-3.34-.05a3.49,3.49,0,0,1-.66,1.59,1.12,1.12,0,0,0-.22.73,4.27,4.27,0,0,0,.67,1,1.09,1.09,0,0,0,.22.26,1,1,0,0,0,.4.17,5.15,5.15,0,0,0,1.66.11c.31,0,.94-.34.48-.73,2.41,0,4.77,1.34,7.15.47a.77.77,0,0,0,.49-.46A.9.9,0,0,0,184,234.16Z"/><path class="cls-30" d="M186.9,179.18c0-.39-3.4-.2-3.57.15l-8.17.22a2.78,2.78,0,0,0-1.76.44c-.65.53-4.18,1.58-4.16,2.42.38,16.62,4.25,33.16,4.63,49.78h3.35c0-5.32,3-10.51,4-15.72C183.57,204.38,187.07,191.5,186.9,179.18Z"/><path class="cls-30" d="M165.34,177.4a1.94,1.94,0,0,0-1.17-.47c-1.94-.28-4.35-.36-5.36,1.32-.35.58.07,2.28-.54,1.95-17.51-9.34-2.13,16.11-3.2,24.16a30.43,30.43,0,0,1-1.26,6.14,30.9,30.9,0,0,1-2.26,4.58l-8,14a6.78,6.78,0,0,0,4.19,1.51c1.4-2.59,3.37-3.15,12-11.31,2.91-2.73,6-9.08,7.16-12.88.68-2.15,1.33-18.14,1.51-20.39.52-6.38.68-2.15,1.2-8.54C169.72,177,165.66,177.77,165.34,177.4Z"/><path class="cls-24" d="M136.85,86.9c.28-1.13.86-2.3.5-3.41l-.46.08c-.1.22-.2.44-.29.66a5.52,5.52,0,0,0-.28-1.75c-.18-.55-.58-1.16-1.17-1.12s-.9.67-1.05,1.22c-.71,2.53-.38,5.22,0,7.83a8.77,8.77,0,0,0,2.79-.27A6.58,6.58,0,0,1,136.85,86.9Z"/><path class="cls-24" d="M154.09,131.32c4.19,2.05,9.78-9.84,4.49-12.28-4.79-2.2-12.82-2.46-17.11-5.86a9.42,9.42,0,0,1-3.56-6.78q-.67-8.4-.95-16.81l-3.6-.16q-1,10.42-2,20.86a11,11,0,0,0,.12,4,9.09,9.09,0,0,0,2,3.29C138.88,124,147.45,128.07,154.09,131.32Z"/><path class="cls-26" d="M153,235.27c-.05-.54-1-.71-1.38-.93a17.29,17.29,0,0,1-1.53-1c-.31-.21-2.85-2.19-3-2,.29-.26.33-.55.79-.89a26.5,26.5,0,0,0-3.67-2.16,5.38,5.38,0,0,1-1.51,1.64c-.22.18-.48.36-.54.63a4.43,4.43,0,0,0,.23,1.28.92.92,0,0,0,.42.7,5.67,5.67,0,0,0,1.6.83c.31.11,1.07.08.78-.51,2.4,1,4.13,3.41,6.86,3.58a.87.87,0,0,0,.69-.23,1.38,1.38,0,0,0,.2-.38A1.21,1.21,0,0,0,153,235.27Z"/><path class="cls-24" d="M203.9,91.42a.43.43,0,0,0-.38-.06.88.88,0,0,0-.84-.91,1.44,1.44,0,0,0-1.17.63,4.08,4.08,0,0,0-.56,1.26L200.41,94a1,1,0,0,1-.35-.64.4.4,0,0,0-.49.15,1,1,0,0,0-.17.53c-.18,1.14-.35,2.28-.52,3.42a9.65,9.65,0,0,0,1.27.57A1.67,1.67,0,0,0,201.5,98a2.69,2.69,0,0,0,.89-1.65,11.48,11.48,0,0,1,.81-2.11C203.64,93.31,204.19,92.35,203.9,91.42Z"/><path class="cls-24" d="M198.82,97.16q-1.8,7.32-4,14.55a8.51,8.51,0,0,1-4.32,5.3c-4.31,2.19-8.94,2.64-13.45,3.69-5,1.17-4,6.26,0,7,6.43,1.23,13.61-.75,19.45-5.36a8,8,0,0,0,2.3-2.52,9.89,9.89,0,0,0,.86-3.52q1.11-9.31,2.2-18.64Z"/><path class="cls-24" d="M159.16,98.61a14.23,14.23,0,0,0-1.36,6.3,20.87,20.87,0,0,0,.67,8c.66,1.87.43,1.33,4.34,3.49,3.62-.14,0-.31,3.62-.14,13.16-3.06,7.44-11.21,6-17.93a1.37,1.37,0,0,0-.26-.62,1.3,1.3,0,0,0-.69-.29,39.24,39.24,0,0,0-10.44,0,2.78,2.78,0,0,0-1.07.24A2.36,2.36,0,0,0,159.16,98.61Z"/><path class="cls-34" d="M174.47,93.57c-.68-.44-1.21-.12-1.72.25a1.9,1.9,0,0,0-.25,0,1.51,1.51,0,0,0-.87.29,11.64,11.64,0,0,0-3.75-.6,3.09,3.09,0,0,0-1.74-1,2.56,2.56,0,0,0-1.92.8c-.77-1.27-2-2-3.5-.8a2.6,2.6,0,0,0-.7.79c-.18.12-.36.24-.53.37a2.38,2.38,0,0,0-1.09.19,2.1,2.1,0,0,0-1.28,2.48,2.44,2.44,0,0,0-.19,1c-.11.28-.21.56-.3.85a3,3,0,0,0-.25.25,1.91,1.91,0,0,0-.69.33,2.12,2.12,0,0,0-1,2.22,1.69,1.69,0,0,0,.2,1,1.18,1.18,0,0,0,.26.28,1.63,1.63,0,0,0,1.08.7,6.34,6.34,0,0,0,.18.78,7.47,7.47,0,0,0,1,4.76l.05.12h0c0,.06.06.12.1.18.44.73,1.7,0,1.3-.78-.56-1.1-1.16-4,.84-3.48,1.17.32,1.27,1.21,1.82,2.33a.76.76,0,0,0,1.45-.4,14.48,14.48,0,0,0-.74-3.38l-.28-.71a.85.85,0,0,0,.22-.09,4.31,4.31,0,0,0,1.64-2.51l.07,0,.13.31a.71.71,0,0,0,1.21.14,7.07,7.07,0,0,0,.78-1.4,1.22,1.22,0,0,0,1.78-.17,4.41,4.41,0,0,0,2.43-.18c.45-.12,1-.26,1.58-.44a4.12,4.12,0,0,0,.47.13,1.16,1.16,0,0,0,1.38-.92A3,3,0,0,0,174.84,96,2,2,0,0,0,174.47,93.57Z"/><path class="cls-25" d="M190.73,122.22c1.48-2.44-.67-6.94-4.54-5a16.22,16.22,0,0,1-3.41.67l-2.63.61a32.53,32.53,0,0,1-4.84-.07,3,3,0,0,0-1.26.12,6.68,6.68,0,0,0-.49-.57,32.47,32.47,0,0,1-16.53-.89l-1.06,0a31.06,31.06,0,0,1-3.48-.34l-1.75-.29c-1.13-2-4.18-3.14-6.06-1.09l-1.13,1.24a4.29,4.29,0,0,0-2.09,2.3c-.64.71-1.28,1.4-1.91,2.11a3.59,3.59,0,0,0-.06,4.86,3.17,3.17,0,0,0,2.82,1.46,2.92,2.92,0,0,0,.66.77,46.25,46.25,0,0,1,3.75,3.09c1,1.07,2.13,2,3.16,3.12a57.92,57.92,0,0,0-1.82,9.06c-.11,1.07-.19,2.14-.23,3.22-1.33,9.11-1.15,18.28-.73,27.48a6.6,6.6,0,0,0-.66,2.65c-2.27,1.44-2.57,5.58.74,6.23a83,83,0,0,0,11.46,1.5h.24a23.72,23.72,0,0,0,2.33.54c2.41.44,4.84.77,7.28,1a87.31,87.31,0,0,0,14.28.35,5,5,0,0,0,4.89-4.89,376.07,376.07,0,0,0-5.13-48.28c2.06-1.49,4.06-3.08,6-4.69a3.47,3.47,0,0,0,2.09-4.77A4.48,4.48,0,0,0,190.73,122.22Z"/><path class="cls-46" d="M176.67,136.41a3.39,3.39,0,0,0-3.31-3.31c-3.5-.37-7-.75-10.52-1a2.8,2.8,0,0,0-1.54.32,3.29,3.29,0,0,0-4.84,2.94c-.32,5.93-.75,11.62-1.55,17.42-.34,2.48,1.33,4.31,3.88,3.88,2.92-.5,6.17,0,9.09.36,2.76.32,5.06.4,6.22-2.65C176.21,148.75,176.81,142.32,176.67,136.41Z"/></g></g></g></svg>