<svg xmlns="http://www.w3.org/2000/svg" xmlns:xlink="http://www.w3.org/1999/xlink" viewBox="0 0 624 309"><defs><style>.cls-1{fill:#585553;}.cls-2{fill:#ebeef2;}.cls-3{fill:#d09a3f;}.cls-4{fill:#d6dbe2;}.cls-5{clip-path:url(#clip-path);}.cls-6{fill:#fff;}.cls-7{fill:none;}</style><clipPath id="clip-path"><path id="SVGID" class="cls-1" d="M159,155.93c0,32.34-27.5,58.68-61.63,58.83-34.34.15-62.34-26.25-62.34-59S63.06,96.74,97.4,97C131.53,97.2,159,123.59,159,155.93Z"/></clipPath></defs><g id="Layer_2" data-name="Layer 2"><g id="Layer_1-2" data-name="Layer 1"><path class="cls-2" d="M606.86,101c0-18.12-14-33-31.66-33.14L47.54,62.56C27.83,62.36,12.29,77.77,12.29,97V211.91c0,19.22,15.72,34.68,35.44,34.53l527.63-4c17.7-.13,31.5-14.92,31.5-33Z"/><path class="cls-3" d="M226.78,132.46,237.46,152l23.7,2.86a2.76,2.76,0,0,1,1.72,4.82l-17.11,15.47,4,21.44c.44,2.32-2.24,4.15-4.53,3.1L224,190l-21.56,10.7c-2.34,1.16-5.08-.57-4.63-2.93l4.14-21.84-17.6-15.17c-1.91-1.65-.85-4.58,1.78-4.95l24.27-3.46,10.76-19.82A3.31,3.31,0,0,1,226.78,132.46Z"/><path class="cls-3" d="M315.84,131.85,326.08,151l22.73,2.8a2.71,2.71,0,0,1,1.65,4.72l-16.41,15.15,3.89,21c.42,2.27-2.15,4.06-4.35,3l-20.47-9.55-20.67,10.47c-2.24,1.14-4.87-.56-4.44-2.87l4-21.38-16.87-14.86a2.79,2.79,0,0,1,1.7-4.85l23.27-3.38,10.32-19.41A3.15,3.15,0,0,1,315.84,131.85Z"/><path class="cls-3" d="M401.29,131.27,411.12,150,433,152.8a2.67,2.67,0,0,1,1.59,4.62l-15.76,14.84,3.73,20.58a2.91,2.91,0,0,1-4.18,3l-19.65-9.36L378.84,196.7a2.85,2.85,0,0,1-4.26-2.81l3.81-20.95L362.2,158.38a2.75,2.75,0,0,1,1.64-4.75l22.33-3.31,9.9-19A3,3,0,0,1,401.29,131.27Z"/><path class="cls-3" d="M483.35,130.72l9.45,18.39,21,2.71a2.63,2.63,0,0,1,1.53,4.53L500.15,170.9l3.59,20.17a2.8,2.8,0,0,1-4,2.91l-18.88-9.18-19.06,10a2.74,2.74,0,0,1-4.09-2.76l3.66-20.53L445.8,157.27a2.71,2.71,0,0,1,1.58-4.65l21.44-3.23,9.52-18.64A2.84,2.84,0,0,1,483.35,130.72Z"/><path class="cls-3" d="M562.22,130.18l9.09,18,20.17,2.66a2.6,2.6,0,0,1,1.46,4.45l-14.56,14.26,3.44,19.78a2.7,2.7,0,0,1-3.85,2.86l-18.16-9-18.32,9.84a2.65,2.65,0,0,1-3.93-2.71l3.52-20.13-15-14a2.66,2.66,0,0,1,1.51-4.56l20.61-3.16,9.15-18.27A2.71,2.71,0,0,1,562.22,130.18Z"/><path class="cls-4" d="M469.07,106a7.52,7.52,0,0,1-7.63,7.42L196.64,112c-4.41,0-8.91-3.46-8.91-7.69V103c0-4.22,4.47-7.63,8.88-7.6L461,97.16c4.18,0,8.07,3.38,8.07,7.49Z"/><path id="SVGID-2" data-name="SVGID" class="cls-1" d="M159,155.93c0,32.34-27.5,58.68-61.63,58.83-34.34.15-62.34-26.25-62.34-59S63.06,96.74,97.4,97C131.53,97.2,159,123.59,159,155.93Z"/><g class="cls-5"><path class="cls-6" d="M127.08,143.34c0,15.49-13.2,28.06-29.52,28.06s-29.69-12.62-29.69-28.19,13.31-28.14,29.69-28.06S127.08,127.85,127.08,143.34Z"/><path class="cls-6" d="M140.16,216.39c-2-20.93-20.32-37-42.76-37s-41.09,16.3-43.1,37.41Z"/></g><rect class="cls-7" width="624" height="309"/></g></g></svg>