<svg xmlns="http://www.w3.org/2000/svg" xmlns:xlink="http://www.w3.org/1999/xlink" viewBox="0 0 1167.2 1033.1"><defs><style>.cls-1{fill:#585553;}.cls-2{fill:none;}.cls-3{fill:#d6dbe2;}.cls-15,.cls-4,.cls-5{fill:#fff;}.cls-4{opacity:0.32;}.cls-6{fill:#d09a3f;}.cls-7{fill:#ebeef2;}.cls-8{clip-path:url(#clip-path);}.cls-9{clip-path:url(#clip-path-2);}.cls-10{fill:#f4d19d;}.cls-11{fill:#3a3837;}.cls-12{fill:#edd3ae;}.cls-13{clip-path:url(#clip-path-3);}.cls-14{fill:#bdd0fb;}.cls-15{opacity:0.7;}</style><clipPath id="clip-path"><path id="SVGID" class="cls-1" d="M256.63,310.88c0,15.53-13.21,28.18-29.6,28.25s-29.94-12.61-29.94-28.32,13.45-28.36,29.94-28.25S256.63,295.35,256.63,310.88Z"/></clipPath><clipPath id="clip-path-2"><path id="SVGID-2" data-name="SVGID" class="cls-2" d="M362.39,809.81c0,8.08,4.86,14.69,10.81,14.69H965.38c6,0,10.81-6.61,10.81-14.69l4.85-438c-.57-26.36-17.57-35.83-27.88-35.27l-578.62-21.1c-5.54-.2-10.89,2.7-14.81,8s-6.08,12.59-6,20.12Z"/></clipPath><clipPath id="clip-path-3"><path id="SVGID-3" data-name="SVGID" class="cls-2" d="M878.45,529.21c-1.56-1.59-5-7.7-7.86-23.49-2.81-15.27-4.36-35.07-4.36-55.76s1.55-40.49,4.36-55.76c2.91-15.8,6.3-21.91,7.86-23.49,1.56,1.58,4.95,7.69,7.86,23.49,2.81,15.27,25,35.07,25,55.76s-22.18,40.49-25,55.76C883.4,521.51,880,527.62,878.45,529.21Z"/></clipPath></defs><g id="Layer_2" data-name="Layer 2"><g id="Layer_1-2" data-name="Layer 1"><rect class="cls-2" width="1167.2" height="1033.1"/><path class="cls-3" d="M862.22,838.47c-14,14.78-27.33,24.32-37.83,31.85C701,958.88,554.92,933.07,523.88,926.76c-45.83-9.31-134.42-27.3-198.48-102.63-96.9-114-81.81-293.5-6.65-412,13.75-21.68,86.38-142,234-161.3,89.33-11.67,193.47,11.88,268.88,75.06C979.93,458.49,968.66,726.41,862.22,838.47Z"/><path class="cls-1" d="M288.73,843.51a11,11,0,0,0,11,11h595.1a11,11,0,0,0,11-11l4.95-342c0-6-7.12-17.85-20.18-17L309,469.51a27.72,27.72,0,0,0-28.45,28.36Z"/><path class="cls-3" d="M299.6,833A10.44,10.44,0,0,0,310,843.38H880.49A10.44,10.44,0,0,0,890.9,833l4.68-310.46c-.55-18.68-16.93-25.4-26.86-25l-557.42-15a19.5,19.5,0,0,0-20,19.95Z"/><path class="cls-4" d="M884.74,685.47h0a1.52,1.52,0,0,1-1.51-1.55l.37-25.17a1.54,1.54,0,0,1,1.53-1.51h0a1.52,1.52,0,0,1,1.5,1.55L886.26,684A1.52,1.52,0,0,1,884.74,685.47Z"/><path class="cls-4" d="M885.65,623.77h0a1.52,1.52,0,0,1-1.5-1.55l1.42-96.43c0-5.73-1.77-10.3-5.17-13.56-6.36-6.09-16.44-5.78-16.87-5.76L685.34,501.7a1.54,1.54,0,0,1-1.48-1.57,1.45,1.45,0,0,1,1.56-1.48l178.06,4.77c1.11-.06,11.85-.25,19,6.6,4,3.86,6.08,9.17,6.11,15.79l-1.42,96.46A1.52,1.52,0,0,1,885.65,623.77Z"/><rect class="cls-1" x="254.69" y="852.85" width="673.3" height="26.92" rx="5.65" transform="translate(1182.68 1732.61) rotate(180)"/><path class="cls-5" d="M316.06,814.66A9.55,9.55,0,0,0,325.8,824H859.61a9.55,9.55,0,0,0,9.74-9.29l4.38-277c-.52-16.67-15.84-22.66-25.14-22.31L327,502A18.68,18.68,0,0,0,313.65,507a16.94,16.94,0,0,0-5.35,12.72Z"/><circle class="cls-6" cx="726.96" cy="314.58" r="46.15" transform="translate(248.32 945.72) rotate(-76.22)"/><rect class="cls-5" x="703.64" y="297.16" width="11.85" height="38.7" rx="2.15"/><path class="cls-5" d="M742.23,297.16h-7.78V287.9c0-3-1.58-5-4.57-5h-.19a5.22,5.22,0,0,0-5.41,5.18l-2.57,9.22c-1.19,0-3.06.85-3.06,2v35.33c0,1.19,2.77,2.73,4,2.73h19.62c4.47,0,8-4.2,8-8.66V305.32A8.09,8.09,0,0,0,742.23,297.16Z"/><circle class="cls-6" cx="834.9" cy="289.16" r="44.6" transform="translate(345.55 1024.83) rotate(-75.47)"/><path class="cls-5" d="M854,276.74c-4.84-4.76-12.38-3.33-17.58,1a2,2,0,0,1-2.58,0c-5.27-4.27-12.81-5.57-17.56-.73a13.33,13.33,0,0,0,.16,18.86L834,313.21a2,2,0,0,0,2.87,0l17.27-17.58A13.32,13.32,0,0,0,854,276.74Z"/><circle class="cls-1" cx="906.31" cy="367.89" r="40.85" transform="translate(291.57 1128.71) rotate(-73.15)"/><path class="cls-5" d="M906.09,345.66l-6.2,11.4-12.51,1.5a2.33,2.33,0,0,0-1.44,3.82l8.45,9.39-2.88,12.93a2.27,2.27,0,0,0,3.12,2.66l11.77-5.65,11.42,6.93a2.34,2.34,0,0,0,3.52-2.35l-1.75-13.49,9.89-9a2.34,2.34,0,0,0-1.17-4l-13-2.27-5.2-11.76A2.24,2.24,0,0,0,906.09,345.66Z"/><path class="cls-7" d="M471.72,284.51a15.62,15.62,0,0,0-15.21-15.92L203.09,266a16.54,16.54,0,0,0-16.93,16.54v55.19a16.68,16.68,0,0,0,17,16.59l253.4-1.92c8.5-.06,15.14-7.17,15.14-15.87Z"/><path class="cls-6" d="M289.17,299.6,294.3,309l11.38,1.38a1.33,1.33,0,0,1,.83,2.31l-8.22,7.43,1.95,10.3a1.51,1.51,0,0,1-2.18,1.49l-10.25-4.68-10.35,5.14a1.48,1.48,0,0,1-2.23-1.41l2-10.49-8.45-7.28a1.37,1.37,0,0,1,.86-2.38l11.65-1.66,5.17-9.52A1.59,1.59,0,0,1,289.17,299.6Z"/><path class="cls-6" d="M331.94,299.31l4.92,9.2,10.92,1.35a1.3,1.3,0,0,1,.79,2.26l-7.88,7.28,1.87,10.09a1.44,1.44,0,0,1-2.09,1.45l-9.83-4.58-9.93,5a1.42,1.42,0,0,1-2.13-1.38l1.91-10.27-8.11-7.14a1.34,1.34,0,0,1,.82-2.32l11.18-1.63,4.95-9.32A1.51,1.51,0,0,1,331.94,299.31Z"/><path class="cls-6" d="M373,299l4.73,9,10.48,1.32a1.28,1.28,0,0,1,.76,2.22l-7.57,7.13,1.79,9.88a1.39,1.39,0,0,1-2,1.43l-9.44-4.5-9.53,4.93a1.37,1.37,0,0,1-2-1.36L362,319l-7.78-7a1.32,1.32,0,0,1,.79-2.28l10.72-1.59,4.76-9.13A1.43,1.43,0,0,1,373,299Z"/><path class="cls-6" d="M412.4,298.77l4.53,8.83L427,308.9a1.27,1.27,0,0,1,.73,2.18l-7.27,7,1.72,9.69a1.35,1.35,0,0,1-1.93,1.4l-9.07-4.41L402,329.56a1.32,1.32,0,0,1-2-1.33l1.76-9.85-7.47-6.86a1.3,1.3,0,0,1,.76-2.23l10.3-1.56,4.57-9A1.37,1.37,0,0,1,412.4,298.77Z"/><path class="cls-6" d="M450.27,298.51l4.37,8.66,9.69,1.28a1.25,1.25,0,0,1,.7,2.14l-7,6.84,1.66,9.51a1.3,1.3,0,0,1-1.85,1.37L449.12,324l-8.8,4.72a1.27,1.27,0,0,1-1.89-1.3l1.69-9.67L432.94,311a1.28,1.28,0,0,1,.73-2.19l9.9-1.52,4.39-8.77A1.3,1.3,0,0,1,450.27,298.51Z"/><path class="cls-3" d="M405.54,286.89a3.62,3.62,0,0,1-3.67,3.56l-127.18-.67c-2.11,0-4.27-1.66-4.27-3.68v-.66c0-2,2.14-3.67,4.26-3.66l127,.87a3.85,3.85,0,0,1,3.88,3.6Z"/><path class="cls-5" d="M227,341.62c-17.92.09-32.6-13.73-32.6-30.81s14.68-30.87,32.6-30.75,32.2,13.95,32.2,30.82S244.83,341.54,227,341.62Z"/><path id="SVGID-4" data-name="SVGID" class="cls-1" d="M256.63,310.88c0,15.53-13.21,28.18-29.6,28.25s-29.94-12.61-29.94-28.32,13.45-28.36,29.94-28.25S256.63,295.35,256.63,310.88Z"/><g class="cls-8"><path class="cls-5" d="M241.29,304.83c0,7.44-6.34,13.47-14.18,13.48s-14.26-6.06-14.26-13.55,6.39-13.51,14.26-13.47S241.29,297.39,241.29,304.83Z"/><path class="cls-5" d="M247.57,339.91c-.95-10.05-9.76-17.79-20.54-17.78s-19.73,7.83-20.7,18Z"/></g><g class="cls-9"><path class="cls-10" d="M581.26,586.53s113.12,93.86,130,65.84C728,624.69,613.76,525.7,613.76,525.7Z"/><path class="cls-10" d="M707.93,529s-20.22,71.82-26.66,91.67,9.59,47.72,31.91,34.61,19.75-117.94,19.75-117.94Z"/><path class="cls-11" d="M401.88,650.41c10.67-17.63,13.43-33.45,10.28-53.9-5.21-33.76-1.15-71.35,20.52-99.13,20.57-26.36,57.58-28.71,80.16-52.22a25.12,25.12,0,0,0,1.44-2.12,58.44,58.44,0,0,0,9.19-29.63c2.2-66.16,50.7-65.39,73.71-52.83,36.43,19.87,28.43,57,28.43,57-10.16,10.78-46.47-12.2-46.47-12.2l-15.08,24c4.27,1.84,8.87,3.93,13.87,6.36,34.19,16.64,37.85,146.62,18.59,167.41s-22.64,40.63-3.21,74.65,8.19,78.43-95.16,115.29c-16.74,6-41.94,6.61-58.47-.05-36.27-14.59-56.21-57.39-57.2-94.27C382,680.05,392.64,665.69,401.88,650.41Z"/><path class="cls-1" d="M428.67,607.68a.21.21,0,0,1-.21-.19c-4.24-46.94,10.22-77.85,23.1-95.51,14.09-19.31,32.53-31.17,43.7-34,19.17-4.88,28.11-27.26,28.2-27.48a.21.21,0,0,1,.27-.12.22.22,0,0,1,.12.27c-.09.23-9.11,22.8-28.49,27.73-11.1,2.83-29.44,14.63-43.46,33.86-12.84,17.6-27.26,48.41-23,95.22a.21.21,0,0,1-.19.23Z"/><path class="cls-1" d="M445.54,772.76l-.08,0a70.61,70.61,0,0,1-20.55-13.63,62.73,62.73,0,0,1-20-47.77.22.22,0,0,1,.21-.2h0a.21.21,0,0,1,.2.21,62.31,62.31,0,0,0,19.89,47.46,70.6,70.6,0,0,0,20.41,13.55.21.21,0,0,1-.07.4Z"/><path class="cls-11" d="M522.55,757.2c-11.81,8.86-36.66,16.29-45.49,89.61l152.76-.68c-6.3-28.32-13.44-70.21-23.76-81.47Z"/><path class="cls-1" d="M608.58,520.35c-14.12-4.56-55.33-13.29-95.45,22.2a24.39,24.39,0,0,0-7.53,24.13c9.75,39.14,37.7,146,12.2,195.27,0,0,26.62,25.71,91.65,9.5,0,0,18.81-81.21,47.29-121C676.4,623,628.53,545.19,616.39,526.38A14.61,14.61,0,0,0,608.58,520.35Z"/><path class="cls-10" d="M571,442.21s-22.26,59-24.4,85.2a45,45,0,0,0,45.27-6.32s3.54-59.33,7.09-69.89Z"/><path class="cls-10" d="M507.34,550.2S439,604.58,420.77,680.47s96.33,86.4,96.33,86.4S533,749.8,551.41,756.4s2.07-30.34-19.58-30.69-12,17-42.3,2.45c-29.53-14.14-47.09-56.3,30.33-118a34.48,34.48,0,0,0,10.34-13.48C545.76,559.75,534.55,535.11,507.34,550.2Z"/><path class="cls-10" d="M614.09,406.65s28.75,71.67-3,82.62-52.22-40-52.22-40-1.51-35.72,12.48-44.28S614.09,406.65,614.09,406.65Z"/><path class="cls-11" d="M615.39,384.57s14.3,16.63,11.35,27.46-34.56.92-42.26-3.83l-27.59,32.86s2.5-47.12,21.27-62.36S615.39,384.57,615.39,384.57Z"/><path class="cls-10" d="M568.83,447s-12.29-23.83-22.71-12.83,9.79,26.15,19.37,21.85Z"/><path class="cls-11" d="M663.5,482.69s28.21,74.41,37.13,89.89c10.34,18,40.56,6.52,39.06-8.52s-36.81-77.19-36.81-77.19Z"/><polygon class="cls-6" points="701.62 428.49 876.98 367.69 875.14 532.22 696.83 492.44 701.62 428.49"/><ellipse class="cls-12" cx="877.14" cy="450.43" rx="17.23" ry="84.55"/><path class="cls-6" d="M878.45,529.21c-1.56-1.59-5-7.7-7.86-23.49-2.81-15.27-4.36-35.07-4.36-55.76s1.55-40.49,4.36-55.76c2.91-15.8,6.3-21.91,7.86-23.49,1.56,1.58,4.95,7.69,7.86,23.49,2.81,15.27,4.36,35.07,4.36,55.76s-1.55,40.49-4.36,55.76C883.4,521.51,880,527.62,878.45,529.21Z"/><g class="cls-13"><path class="cls-11" d="M900.53,449.33c0,14.36-7.74,26-23,26s-27.74-11.65-27.74-26,12.42-26,27.74-26S900.53,435,900.53,449.33Z"/></g><path class="cls-11" d="M673.34,425a98.46,98.46,0,0,1,32.87,1.63c-4.22,22-3.58,44.95,1.29,68.71H671.43a11.7,11.7,0,0,1-11.56-9.86c-1.79-11.39-4-30.52-1.65-45.9A17.32,17.32,0,0,1,673.34,425Z"/><path class="cls-14" d="M695,441.81H666.88a2.53,2.53,0,0,1-2.25-1.34,2.5,2.5,0,0,1,.1-2.61.72.72,0,1,1,1.21.78,1.13,1.13,0,0,0,.94,1.73H695a1.12,1.12,0,0,0,1.11-1.12v-2a1.12,1.12,0,0,0-1.11-1.12H666.67a.72.72,0,1,1,0-1.44H695a2.56,2.56,0,0,1,2.56,2.56v2A2.56,2.56,0,0,1,695,441.81Z"/><path class="cls-14" d="M692.48,454.26h-28.1a2.57,2.57,0,0,1-2.16-4,.73.73,0,0,1,1.22.79,1.09,1.09,0,0,0-.05,1.14,1.1,1.1,0,0,0,1,.58h28.1a1.12,1.12,0,0,0,1.12-1.11v-2a1.12,1.12,0,0,0-1.12-1.12H664.17a.73.73,0,0,1-.73-.72.73.73,0,0,1,.73-.73h28.31A2.57,2.57,0,0,1,695,449.7v2A2.56,2.56,0,0,1,692.48,454.26Z"/><path class="cls-15" d="M727.1,424a.73.73,0,0,1-.69-.51.72.72,0,0,1,.47-.9L859.7,380.36a.72.72,0,0,1,.9.47.73.73,0,0,1-.47.91L727.32,424A.57.57,0,0,1,727.1,424Z"/><path class="cls-15" d="M709.14,431.38a.74.74,0,0,1-.67-.45.72.72,0,0,1,.4-.94l6.83-2.8a.72.72,0,0,1,.94.4.71.71,0,0,1-.39.94l-6.84,2.8A.86.86,0,0,1,709.14,431.38Z"/><path class="cls-14" d="M695,468.84H666.88a2.57,2.57,0,0,1-2.15-4,.72.72,0,1,1,1.21.79,1.12,1.12,0,0,0,.94,1.72H695a1.12,1.12,0,0,0,1.11-1.12v-2a1.11,1.11,0,0,0-1.11-1.11H666.67a.73.73,0,0,1,0-1.45H695a2.56,2.56,0,0,1,2.56,2.56v2A2.57,2.57,0,0,1,695,468.84Z"/><path class="cls-14" d="M697.62,485H669.51a2.57,2.57,0,0,1-2.15-4,.73.73,0,0,1,1-.21.72.72,0,0,1,.21,1,1.12,1.12,0,0,0,.94,1.72h28.11a1.12,1.12,0,0,0,1.12-1.11v-2a1.12,1.12,0,0,0-1.12-1.12H669.3a.73.73,0,0,1,0-1.45h28.32a2.57,2.57,0,0,1,2.56,2.57v2A2.56,2.56,0,0,1,697.62,485Z"/><path class="cls-14" d="M722.72,573a18.35,18.35,0,0,1-16.67-10.77l-22.46-49.88a.72.72,0,0,1,1.32-.6l22.46,49.89a16.66,16.66,0,0,0,11.75,9.52,16.32,16.32,0,0,0,14.36-3.67l.64-.57a.72.72,0,0,1,1,0,.72.72,0,0,1,0,1l-.66.6A17.74,17.74,0,0,1,722.72,573Z"/><path class="cls-14" d="M680.93,505.4a.73.73,0,0,1-.66-.43l-2.5-5.56a.72.72,0,0,1,.36-1,.74.74,0,0,1,1,.36l2.5,5.57a.72.72,0,0,1-.36.95A.66.66,0,0,1,680.93,505.4Z"/><path class="cls-14" d="M896.43,448.58a.71.71,0,0,1-.72-.67c-.5-7-2.94-12.29-7.26-15.6-7.45-5.73-18.09-3.76-18.2-3.74a.72.72,0,0,1-.85-.57.73.73,0,0,1,.58-.85c.46-.09,11.39-2.1,19.35,4,4.66,3.58,7.29,9.18,7.82,16.64a.73.73,0,0,1-.67.78Z"/><path class="cls-10" d="M694.82,518.07s10.41-14.24,23.29-5.6,19.56,27.52,17.71,29S667,542.38,694.82,518.07Z"/></g><rect class="cls-2" width="1167.2" height="1033.1"/></g></g></svg>